<?xml version="1.0"?>
<COLLADA xmlns="http://www.collada.org/2005/11/COLLADASchema" version="1.4.1">
	<asset>
		<contributor>
			<author>Assimp</author>
			<authoring_tool>Assimp Exporter</authoring_tool>
		</contributor>
		<created>2022-08-18T18:30:51</created>
		<modified>2022-08-18T18:30:51</modified>
		<unit name="meter" meter="1.000000" />
		<up_axis>Y_UP</up_axis>
	</asset>
	<library_effects>
		<effect id="DefaultMaterial-fx" name="DefaultMaterial">
			<profile_COMMON>
				<technique sid="standard">
					<phong>
						<diffuse>
							<color sid="diffuse">0.600000   0.600000   0.600000   1.000000</color>
						</diffuse>
					</phong>
				</technique>
			</profile_COMMON>
		</effect>
	</library_effects>
	<library_materials>
		<material id="DefaultMaterial" name="DefaultMaterial">
			<instance_effect url="#DefaultMaterial-fx"/>
		</material>
	</library_materials>
	<library_geometries>
		<geometry id="meshId0" name="meshId0_name" >
			<mesh>
				<source id="meshId0-positions" name="meshId0-positions">
					<float_array id="meshId0-positions-array" count="1542"> 
						0.216778 0.163705 0.482826 0.216778 0.163705 0.494186 0.216778 -0.251689 0.494186 0.216778 -0.251689 0.482826 -0.104596 -0.251689 0.482826 -0.104596 -0.251689 0.494186 -0.216778 -0.251689 0.494186 -0.216778 -0.251689 0.482826 -0.216778 -0.251689 0.482826 -0.216778 -0.251689 0.494186 -0.216778 0.163705 0.494186 -0.216778 0.163705 0.482826 0.104596 0.209375 0.482826 0.104596 0.209375 0.494186 0.216778 0.163705 0.494186 0.216778 0.163705 0.482826 -0.104596 -0.251689 0.482826 -0.216778 -0.251689 0.482826 -0.216778 0.163705 0.482826 -0.104596 0.209375 0.482826 0.104596 -0.251689 0.494186 0.216778 -0.251689 0.494186 0.216778 0.163705 0.494186 0.104596 0.209375 0.494186 -0.216778 -0.251689 0.494186 -0.104596 -0.251689 0.494186 -0.104596 0.209375 0.494186 -0.216778 0.163705 0.494186 0.000000 -0.251689 0.494186 -0.000000 0.214565 0.494186 0.216778 -0.251689 0.482826 0.104596 -0.251689 0.482826 0.104596 0.209375 0.482826 0.216778 0.163705 0.482826 0.000000 -0.251689 0.482826 -0.000000 0.214565 0.482826 -0.216778 0.163705 0.482826 -0.216778 0.163705 0.494186 -0.104596 0.209375 0.494186 -0.104596 0.209375 0.482826 -0.000000 0.214565 0.482826 -0.000000 0.214565 0.494186 0.216778 -0.251689 0.482826 0.216778 -0.251689 0.494186 0.104596 -0.251689 0.494186 0.104596 -0.251689 0.482826 0.000000 -0.251689 0.482826 0.000000 -0.251689 0.494186 -0.181067 -0.225469 0.430140 -0.181067 -0.225469 0.481662 0.181068 -0.225469 0.481662 0.181068 -0.225469 0.430140 0.181068 -0.237234 0.430140 0.181068 -0.237234 0.481662 -0.181067 -0.237234 0.481662 -0.181067 -0.237234 0.430140 -0.181067 -0.225469 0.430140 0.181068 -0.225469 0.430140 0.181068 -0.237234 0.430140 -0.181067 -0.237234 0.430140 -0.191330 -0.213121 0.430140 -0.191330 0.178434 0.430140 -0.191330 0.178433 0.481662 -0.191330 -0.213121 0.481662 
						-0.203095 0.178434 0.430140 -0.203095 -0.213121 0.430140 -0.203095 -0.213121 0.481662 -0.203095 0.178433 0.481662 -0.191330 -0.213121 0.430140 -0.203095 -0.213121 0.430140 -0.203095 0.178434 0.430140 -0.191330 0.178434 0.430140 0.090534 0.203151 0.433801 0.090534 0.201823 0.485357 0.181068 0.175364 0.485653 0.181068 0.175364 0.434132 -0.090533 0.191907 0.433836 -0.090533 0.187887 0.485383 -0.181067 0.163599 0.485653 -0.181067 0.163599 0.434132 0.090534 0.203151 0.433801 0.181068 0.175364 0.434132 0.181068 0.163599 0.434132 0.090534 0.191907 0.433836 -0.181067 0.175364 0.434132 -0.090533 0.203151 0.433801 -0.090533 0.191907 0.433836 -0.181067 0.163599 0.434132 0.000000 0.211919 0.433752 0.000000 0.200277 0.433777 0.181068 0.163599 0.434132 0.181068 0.163599 0.485653 0.090534 0.187887 0.485383 0.090534 0.191907 0.433836 0.000000 0.194731 0.485328 0.000000 0.200277 0.433777 -0.181067 0.175364 0.434132 -0.181067 0.175364 0.485653 -0.090533 0.201823 0.485357 -0.090533 0.203151 0.433801 0.000000 0.207535 0.485298 0.000000 0.211919 0.433752 -0.231049 0.216704 0.847738 -0.222014 0.178921 0.847738 -0.228031 0.204086 1.017070 -0.237066 0.241869 1.017070 -0.184231 0.187956 0.847738 -0.193266 0.225739 0.847738 -0.199283 0.250903 1.017070 -0.190248 0.213120 1.017070 -0.222014 0.178921 0.847738 -0.184231 0.187956 0.847738 -0.190248 0.213120 1.017070 -0.228031 0.204086 1.017070 -0.193266 0.225739 0.847738 -0.231049 0.216704 0.847738 -0.237066 0.241869 1.017070 -0.199283 0.250903 1.017070 -0.228031 0.204086 0.001077 -0.237066 0.241869 0.001077 -0.199283 0.250903 0.001077 -0.190248 0.213120 0.001077 -0.190248 0.213120 1.017070 -0.199283 0.250903 1.017070 -0.237066 0.241869 1.017070 -0.228031 0.204086 1.017070 -0.199283 0.250903 0.001077 -0.237066 0.241869 0.001077 
						-0.231049 0.216704 0.170409 -0.193266 0.225739 0.170409 -0.226419 0.197344 0.339741 -0.188636 0.206378 0.339741 -0.223946 0.187001 0.509074 -0.186163 0.196035 0.509074 -0.226419 0.197344 0.678406 -0.188636 0.206378 0.678406 -0.190248 0.213120 0.001077 -0.199283 0.250903 0.001077 -0.193266 0.225739 0.170409 -0.184231 0.187956 0.170409 -0.188636 0.206378 0.339741 -0.179602 0.168595 0.339741 -0.186163 0.196035 0.509074 -0.177129 0.158252 0.509074 -0.188636 0.206378 0.678406 -0.179602 0.168595 0.678406 -0.228031 0.204086 0.001077 -0.190248 0.213120 0.001077 -0.184231 0.187956 0.170409 -0.222014 0.178921 0.170409 -0.179602 0.168595 0.339741 -0.217385 0.159561 0.339741 -0.177129 0.158252 0.509074 -0.214912 0.149218 0.509074 -0.179602 0.168595 0.678406 -0.217385 0.159561 0.678406 -0.237066 0.241869 0.001077 -0.228031 0.204086 0.001077 -0.222014 0.178921 0.170409 -0.231049 0.216704 0.170409 -0.217385 0.159561 0.339741 -0.226419 0.197344 0.339741 -0.214912 0.149218 0.509074 -0.223946 0.187001 0.509074 -0.217385 0.159561 0.678406 -0.226419 0.197344 0.678406 -0.094673 0.200251 0.682403 -0.094673 0.202905 0.717699 -0.189347 0.188464 0.717699 -0.189347 0.185809 0.682403 0.094674 0.215298 0.681271 0.094674 0.217953 0.716567 0.189348 0.203511 0.716567 0.189348 0.200857 0.681271 -0.094673 0.200251 0.682403 -0.189347 0.185809 0.682403 -0.189347 0.200857 0.681271 -0.094673 0.215298 0.681271 0.094674 0.202905 0.717699 0.189348 0.188464 0.717699 0.189348 0.203511 0.716567 0.094674 0.217953 0.716567 -0.189347 0.188464 0.717699 -0.094673 0.202905 0.717699 -0.094673 0.217953 0.716567 -0.189347 0.203511 0.716567 0.000000 0.208761 0.717699 0.000000 0.223808 0.716567 0.189348 0.185810 0.682403 0.094674 0.200251 0.682403 0.094674 0.215298 0.681271 0.189348 0.200857 0.681271 
						0.000000 0.206106 0.682403 0.000000 0.221154 0.681271 -0.189347 0.200857 0.681271 -0.189347 0.203511 0.716567 -0.094673 0.217953 0.716567 -0.094673 0.215298 0.681271 0.000000 0.223808 0.716567 0.000000 0.221154 0.681271 0.189348 0.185810 0.682403 0.189348 0.188464 0.717699 0.094674 0.202905 0.717699 0.094674 0.200251 0.682403 0.000000 0.208761 0.717699 0.000000 0.206106 0.682403 -0.094673 0.210473 0.786746 -0.094673 0.214385 0.821925 -0.189347 0.199944 0.821925 -0.189347 0.196031 0.786746 0.094674 0.225470 0.785078 0.094674 0.229383 0.820257 0.189348 0.214941 0.820257 0.189348 0.211029 0.785078 -0.094673 0.210473 0.786746 -0.189347 0.196031 0.786746 -0.189347 0.211029 0.785078 -0.094673 0.225470 0.785078 0.094674 0.214385 0.821925 0.189348 0.199944 0.821925 0.189348 0.214941 0.820257 0.094674 0.229383 0.820257 -0.189347 0.199944 0.821925 -0.094673 0.214385 0.821925 -0.094673 0.229383 0.820257 -0.189347 0.214941 0.820257 0.000000 0.220241 0.821925 0.000000 0.235238 0.820257 0.189348 0.196031 0.786746 0.094674 0.210473 0.786746 0.094674 0.225470 0.785078 0.189348 0.211029 0.785078 0.000000 0.216328 0.786746 0.000000 0.231325 0.785078 -0.189347 0.211029 0.785078 -0.189347 0.214941 0.820257 -0.094673 0.229383 0.820257 -0.094673 0.225470 0.785078 0.000000 0.235238 0.820257 0.000000 0.231325 0.785078 0.189348 0.196031 0.786746 0.189348 0.199944 0.821925 0.094674 0.214385 0.821925 0.094674 0.210473 0.786746 0.000000 0.220241 0.821925 0.000000 0.216328 0.786746 -0.206853 0.182949 0.328610 -0.206853 -0.213121 0.328610 -0.206853 -0.213121 0.364006 -0.206853 0.182949 0.364006 -0.191763 -0.213121 0.328610 -0.191763 0.182949 0.328610 -0.191763 0.182949 0.364006 -0.191763 -0.213121 0.364006 -0.206853 0.182949 0.328610 -0.191763 0.182949 0.328610 
						-0.191763 -0.213121 0.328610 -0.206853 -0.213121 0.328610 -0.206853 -0.213121 0.364006 -0.191763 -0.213121 0.364006 -0.191763 0.182949 0.364006 -0.206853 0.182949 0.364006 -0.178410 -0.244199 0.001077 -0.209488 -0.244199 0.001077 -0.209488 -0.213121 0.001077 -0.178410 -0.213121 0.001077 -0.209488 -0.244199 0.001077 -0.213373 -0.248084 0.483526 -0.213373 -0.209236 0.483526 -0.209488 -0.213121 0.001077 -0.209488 -0.213121 0.001077 -0.213373 -0.209236 0.483526 -0.174525 -0.209236 0.483526 -0.178410 -0.213121 0.001077 -0.178410 -0.213121 0.001077 -0.174525 -0.209236 0.483526 -0.174525 -0.248084 0.483526 -0.178410 -0.244199 0.001077 -0.178410 -0.244199 0.001077 -0.174525 -0.248084 0.483526 -0.213373 -0.248084 0.483526 -0.209488 -0.244199 0.001077 -0.126231 0.195408 0.328610 -0.126231 0.195408 0.364006 -0.189347 0.187180 0.364006 -0.189347 0.187180 0.328610 0.126275 0.210171 0.328610 0.126275 0.210171 0.364006 0.189348 0.202270 0.364006 0.189348 0.202270 0.328610 -0.126231 0.195408 0.328610 -0.189347 0.187180 0.328610 -0.189347 0.202270 0.328610 -0.126274 0.210171 0.328610 0.126232 0.195408 0.364006 0.189348 0.187181 0.364006 0.189348 0.202270 0.364006 0.126275 0.210171 0.364006 -0.189347 0.187180 0.364006 -0.126231 0.195408 0.364006 -0.126274 0.210171 0.364006 -0.189347 0.202270 0.364006 -0.063115 0.201336 0.364006 -0.063115 0.216667 0.364006 0.000000 0.204475 0.364006 0.000000 0.219049 0.364006 0.063116 0.201336 0.364006 0.063116 0.216668 0.364006 0.189348 0.187181 0.328610 0.126232 0.195408 0.328610 0.126275 0.210171 0.328610 0.189348 0.202270 0.328610 0.063116 0.201336 0.328610 0.063116 0.216668 0.328610 0.000000 0.204475 0.328610 0.000000 0.219049 0.328610 -0.063115 0.201336 0.328610 -0.063115 0.216667 0.328610 -0.189347 0.202270 0.328610 -0.189347 0.202270 0.364006 
						-0.126274 0.210171 0.364006 -0.126274 0.210171 0.328610 -0.063115 0.216667 0.364006 -0.063115 0.216667 0.328610 0.000000 0.219049 0.364006 0.000000 0.219049 0.328610 0.063116 0.216668 0.364006 0.063116 0.216668 0.328610 0.189348 0.187181 0.328610 0.189348 0.187181 0.364006 0.126232 0.195408 0.364006 0.126232 0.195408 0.328610 0.063116 0.201336 0.364006 0.063116 0.201336 0.328610 0.000000 0.204475 0.364006 0.000000 0.204475 0.328610 -0.063115 0.201336 0.364006 -0.063115 0.201336 0.328610 0.206854 0.182949 0.328610 0.206854 0.182949 0.364006 0.206854 -0.213121 0.364006 0.206854 -0.213121 0.328610 0.191764 -0.213121 0.328610 0.191764 -0.213121 0.364006 0.191764 0.182949 0.364006 0.191764 0.182949 0.328610 0.206854 0.182949 0.328610 0.206854 -0.213121 0.328610 0.191764 -0.213121 0.328610 0.191764 0.182949 0.328610 0.206854 -0.213121 0.364006 0.206854 0.182949 0.364006 0.191764 0.182949 0.364006 0.191764 -0.213121 0.364006 0.251677 0.191756 1.053300 0.251677 0.204794 1.052253 0.133489 0.222267 1.041456 0.133489 0.209229 1.042503 -0.266923 0.173055 0.934665 -0.266923 0.186093 0.933618 -0.133452 0.207136 0.922129 -0.133452 0.194098 0.923177 -0.266923 0.186223 1.041353 -0.266923 0.199262 1.040306 -0.266923 0.186093 0.933618 -0.266923 0.173055 0.934665 0.000018 0.216457 1.039299 0.000018 0.229496 1.038252 -0.133453 0.222267 1.041456 -0.133452 0.209228 1.042503 0.133489 0.194098 0.923177 0.133489 0.207136 0.922129 0.266959 0.186094 0.933618 0.266959 0.173055 0.934665 0.000018 0.201326 0.919973 0.000018 0.214365 0.918925 -0.251640 0.191756 1.053300 -0.262447 0.188537 1.050088 -0.266923 0.186223 1.041353 -0.133452 0.207136 0.922129 -0.133453 0.222267 1.041456 0.000018 0.229496 1.038252 0.000018 0.214365 0.918925 0.133489 0.222267 1.041456 
						0.133489 0.207136 0.922129 0.133489 0.194098 0.923177 0.133489 0.209229 1.042503 0.000018 0.216457 1.039299 0.000018 0.201326 0.919973 -0.133452 0.209228 1.042503 -0.133452 0.194098 0.923177 -0.251640 0.204794 1.052253 -0.251640 0.191756 1.053300 -0.262447 0.201576 1.049040 -0.262447 0.188537 1.050088 0.266959 0.186094 0.933618 -0.266923 0.186093 0.933618 0.266959 0.173055 0.934665 0.266959 0.186223 1.041353 0.251677 0.191756 1.053300 0.266959 0.199262 1.040306 0.266959 0.186223 1.041353 0.266959 0.173055 0.934665 0.266959 0.186094 0.933618 0.262483 0.188784 1.050088 0.262483 0.201822 1.049040 0.262483 0.201822 1.049040 0.262483 0.188784 1.050088 -0.262447 0.188537 1.050088 -0.262447 0.201576 1.049040 0.262483 0.188784 1.050088 -0.266923 0.173055 0.934665 0.251677 0.204794 1.052253 0.262483 0.201822 1.049040 0.266959 0.199262 1.040306 -0.266923 0.199262 1.040306 -0.251640 0.204794 1.052253 -0.262447 0.201576 1.049040 0.178411 -0.244199 0.001077 0.178411 -0.213121 0.001077 0.209489 -0.213121 0.001077 0.209489 -0.244199 0.001077 0.209489 -0.244199 0.001077 0.209489 -0.213121 0.001077 0.213374 -0.209236 0.483526 0.213374 -0.248084 0.483526 0.209489 -0.213121 0.001077 0.178411 -0.213121 0.001077 0.174526 -0.209236 0.483526 0.213374 -0.209236 0.483526 0.178411 -0.213121 0.001077 0.178411 -0.244199 0.001077 0.174526 -0.248084 0.483526 0.174526 -0.209236 0.483526 0.178411 -0.244199 0.001077 0.209489 -0.244199 0.001077 0.213374 -0.248084 0.483526 0.174526 -0.248084 0.483526 0.231049 0.216705 0.847738 0.237066 0.241869 1.017070 0.228032 0.204086 1.017070 0.222015 0.178922 0.847738 0.184232 0.187956 0.847738 0.190249 0.213120 1.017070 0.199284 0.250903 1.017070 0.193266 0.225739 0.847738 0.222015 0.178922 0.847738 0.228032 0.204086 1.017070 
						0.190249 0.213120 1.017070 0.184232 0.187956 0.847738 0.193266 0.225739 0.847738 0.199284 0.250903 1.017070 0.237066 0.241869 1.017070 0.231049 0.216705 0.847738 0.228032 0.204086 0.001077 0.190249 0.213120 0.001077 0.199284 0.250903 0.001077 0.237066 0.241869 0.001077 0.190249 0.213120 1.017070 0.228032 0.204086 1.017070 0.237066 0.241869 1.017070 0.199284 0.250903 1.017070 0.199284 0.250903 0.001077 0.193266 0.225739 0.170409 0.231049 0.216705 0.170409 0.237066 0.241869 0.001077 0.188637 0.206378 0.339741 0.226420 0.197344 0.339741 0.186164 0.196035 0.509074 0.223947 0.187001 0.509074 0.188637 0.206378 0.678406 0.226420 0.197344 0.678406 0.190249 0.213120 0.001077 0.184232 0.187956 0.170409 0.193266 0.225739 0.170409 0.199284 0.250903 0.001077 0.179603 0.168595 0.339741 0.188637 0.206378 0.339741 0.177130 0.158252 0.509074 0.186164 0.196035 0.509074 0.179603 0.168595 0.678406 0.188637 0.206378 0.678406 0.228032 0.204086 0.001077 0.222015 0.178922 0.170409 0.184232 0.187956 0.170409 0.190249 0.213120 0.001077 0.217386 0.159561 0.339741 0.179603 0.168595 0.339741 0.214912 0.149218 0.509074 0.177130 0.158252 0.509074 0.217386 0.159561 0.678406 0.179603 0.168595 0.678406 0.237066 0.241869 0.001077 0.231049 0.216705 0.170409 0.222015 0.178922 0.170409 0.228032 0.204086 0.001077 0.226420 0.197344 0.339741 0.217386 0.159561 0.339741 0.223947 0.187001 0.509074 0.214912 0.149218 0.509074 0.226420 0.197344 0.678406 0.217386 0.159561 0.678406 0.191332 -0.213121 0.430140 0.191332 -0.213121 0.481662 0.191332 0.178434 0.481662 0.191332 0.178434 0.430140 0.203098 0.178434 0.430140 0.203098 0.178434 0.481662 0.203098 -0.213121 0.481662 0.203098 -0.213121 0.430140 0.191332 -0.213121 0.430140 0.191332 0.178434 0.430140 
						0.203098 0.178434 0.430140 0.203098 -0.213121 0.430140 
					</float_array>
					<technique_common>
						<accessor count="514" offset="0" source="#meshId0-positions-array" stride="3">
							<param name="X" type="float" />
							<param name="Y" type="float" />
							<param name="Z" type="float" />
						</accessor>
					</technique_common>
				</source>
				<source id="meshId0-normals" name="meshId0-normals">
					<float_array id="meshId0-normals-array" count="1542"> 
						1.000000 0.000000 0.000000 1.000000 0.000000 0.000000 1.000000 0.000000 0.000000 1.000000 0.000000 0.000000 0.000000 -1.000000 0.000000 0.000000 -1.000000 0.000000 0.000001 -1.000000 0.000000 0.000001 -1.000000 0.000000 -1.000000 -0.000000 0.000000 -1.000000 -0.000000 0.000000 -1.000000 -0.000000 0.000000 -1.000000 -0.000000 0.000000 0.216371 0.976311 0.000000 0.216371 0.976311 0.000000 0.377056 0.926190 0.000000 0.377056 0.926190 0.000000 0.000000 0.000000 -1.000000 0.000000 0.000000 -1.000000 0.000000 0.000000 -1.000000 0.000000 0.000000 -1.000000 0.000000 0.000000 1.000000 0.000000 0.000000 1.000000 0.000000 0.000000 1.000000 0.000000 0.000000 1.000000 -0.000000 0.000000 1.000000 -0.000000 0.000000 1.000000 -0.000000 0.000000 1.000000 -0.000000 0.000000 1.000000 -0.000000 0.000000 1.000000 -0.000000 0.000000 1.000000 -0.000000 0.000000 -1.000000 -0.000000 0.000000 -1.000000 -0.000000 0.000000 -1.000000 -0.000000 0.000000 -1.000000 0.000000 0.000000 -1.000000 0.000000 0.000000 -1.000000 -0.377058 0.926190 0.000000 -0.377058 0.926190 0.000000 -0.216372 0.976311 0.000000 -0.216372 0.976311 0.000000 -0.000000 1.000000 0.000000 -0.000000 1.000000 0.000000 0.000000 -1.000000 0.000000 0.000000 -1.000000 0.000000 0.000000 -1.000000 0.000000 0.000000 -1.000000 0.000000 0.000000 -1.000000 0.000000 0.000000 -1.000000 0.000000 0.000000 1.000000 0.000000 0.000000 1.000000 0.000000 0.000000 1.000000 0.000000 0.000000 1.000000 0.000000 0.000000 -1.000000 0.000000 0.000000 -1.000000 0.000000 0.000000 -1.000000 0.000000 0.000000 -1.000000 0.000000 0.000000 0.000000 -1.000000 0.000000 0.000000 -1.000000 0.000000 0.000000 -1.000000 0.000000 0.000000 -1.000000 1.000000 0.000000 0.000000 1.000000 0.000000 0.000000 1.000000 0.000000 0.000000 1.000000 0.000000 0.000000 
						-1.000000 -0.000000 0.000000 -1.000000 -0.000000 0.000000 -1.000000 -0.000000 0.000000 -1.000000 -0.000000 0.000000 0.000000 0.000000 -1.000000 0.000000 0.000000 -1.000000 0.000000 0.000000 -1.000000 0.000000 0.000000 -1.000000 0.183845 0.982366 0.034031 0.184731 0.982206 0.033848 0.286927 0.957873 0.012337 0.286927 0.957873 0.012337 0.180870 -0.981331 -0.065390 0.182860 -0.980999 -0.064833 0.278648 -0.959664 -0.037430 0.278648 -0.959664 -0.037430 0.001493 -0.002130 -0.999997 0.002991 -0.001527 -0.999994 0.002991 -0.001527 -0.999994 0.001826 -0.001996 -0.999996 -0.002992 -0.001527 -0.999994 -0.001493 -0.002130 -0.999997 -0.001826 -0.001996 -0.999996 -0.002992 -0.001527 -0.999994 0.000000 -0.002590 -0.999997 0.000000 -0.002590 -0.999997 -0.278648 -0.959664 -0.037430 -0.278648 -0.959664 -0.037430 -0.182860 -0.980999 -0.064833 -0.180870 -0.981331 -0.065390 0.000000 -0.995724 -0.092383 0.000000 -0.995724 -0.092383 -0.286927 0.957873 0.012337 -0.286927 0.957873 0.012337 -0.184731 0.982206 0.033848 -0.183845 0.982366 0.034031 -0.000000 0.998469 0.055314 -0.000000 0.998469 0.055314 -0.972582 -0.232559 0.000000 -0.972582 -0.232559 0.000000 -0.972582 -0.232558 -0.000000 -0.972582 -0.232558 -0.000000 0.972582 0.232559 0.000000 0.972582 0.232559 -0.000000 0.972583 0.232558 -0.000000 0.972583 0.232558 -0.000000 0.230463 -0.963822 0.133920 0.230463 -0.963822 0.133920 0.229890 -0.961424 0.151045 0.229890 -0.961424 0.151045 -0.230464 0.963822 -0.133920 -0.230464 0.963822 -0.133920 -0.229890 0.961424 -0.151045 -0.229890 0.961424 -0.151045 0.000000 0.000000 -1.000000 0.000000 0.000000 -1.000000 0.000000 0.000000 -1.000000 0.000000 0.000000 -1.000000 -0.000002 0.000000 1.000000 -0.000002 0.000000 1.000000 -0.000002 0.000000 1.000000 -0.000002 0.000000 1.000000 -0.229891 0.961424 0.151045 -0.229891 0.961424 0.151045 
						-0.230464 0.963822 0.133920 -0.230464 0.963822 0.133920 -0.231620 0.968657 0.089750 -0.231620 0.968657 0.089750 -0.232558 0.972582 -0.000000 -0.232558 0.972582 0.000000 -0.231620 0.968657 -0.089750 -0.231620 0.968657 -0.089750 0.972582 0.232559 0.000000 0.972582 0.232559 0.000000 0.972582 0.232559 -0.000000 0.972582 0.232559 -0.000000 0.972582 0.232559 -0.000000 0.972582 0.232559 0.000000 0.972582 0.232558 0.000000 0.972582 0.232558 0.000000 0.972582 0.232559 0.000000 0.972582 0.232559 0.000000 0.229890 -0.961424 -0.151045 0.229890 -0.961424 -0.151045 0.230463 -0.963822 -0.133920 0.230463 -0.963822 -0.133920 0.231620 -0.968657 -0.089750 0.231620 -0.968657 -0.089750 0.232559 -0.972582 -0.000000 0.232559 -0.972582 -0.000000 0.231620 -0.968657 0.089750 0.231620 -0.968657 0.089750 -0.972582 -0.232559 0.000000 -0.972582 -0.232559 0.000000 -0.972582 -0.232559 0.000000 -0.972582 -0.232559 0.000000 -0.972582 -0.232559 -0.000000 -0.972582 -0.232559 -0.000000 -0.972582 -0.232558 -0.000000 -0.972582 -0.232558 -0.000000 -0.972582 -0.232559 0.000000 -0.972582 -0.232559 0.000000 0.106300 -0.991534 0.074565 0.105849 -0.991582 0.074568 0.150381 -0.985845 0.074137 0.150381 -0.985845 0.074137 0.106299 0.991535 -0.074564 0.105848 0.991583 -0.074568 0.150380 0.985845 -0.074136 0.150380 0.985845 -0.074136 0.008262 -0.074987 -0.997150 0.011438 -0.074985 -0.997119 0.011438 -0.074985 -0.997119 0.007801 -0.074988 -0.997154 0.008262 0.074988 0.997150 0.011438 0.074985 0.997119 0.011438 0.074985 0.997119 0.007801 0.074988 0.997154 -0.011438 0.074985 0.997119 -0.008262 0.074988 0.997150 -0.007801 0.074988 0.997154 -0.011438 0.074985 0.997119 -0.000000 0.074990 0.997184 0.000000 0.074990 0.997184 -0.011438 -0.074985 -0.997119 -0.008262 -0.074988 -0.997150 -0.007801 -0.074988 -0.997154 -0.011438 -0.074985 -0.997119 
						-0.000000 -0.074990 -0.997184 0.000000 -0.074990 -0.997184 -0.150381 0.985845 -0.074136 -0.150381 0.985845 -0.074136 -0.105849 0.991582 -0.074568 -0.106300 0.991534 -0.074564 -0.000000 0.997184 -0.074989 -0.000000 0.997184 -0.074989 -0.150380 -0.985845 0.074136 -0.150380 -0.985845 0.074136 -0.105848 -0.991583 0.074568 -0.106299 -0.991535 0.074564 0.000000 -0.997184 0.074989 0.000000 -0.997184 0.074989 0.106058 -0.988266 0.109918 0.105395 -0.988336 0.109926 0.149892 -0.982643 0.109293 0.149892 -0.982643 0.109293 0.106057 0.988266 -0.109918 0.105394 0.988336 -0.109926 0.149892 0.982643 -0.109293 0.149892 0.982643 -0.109293 0.012177 -0.110531 -0.993798 0.016860 -0.110524 -0.993730 0.016860 -0.110524 -0.993730 0.011501 -0.110532 -0.993806 0.012177 0.110531 0.993798 0.016859 0.110524 0.993730 0.016859 0.110524 0.993730 0.011500 0.110532 0.993806 -0.016859 0.110524 0.993730 -0.012176 0.110532 0.993798 -0.011500 0.110532 0.993806 -0.016859 0.110524 0.993730 0.000000 0.110540 0.993872 0.000000 0.110540 0.993872 -0.016859 -0.110524 -0.993730 -0.012177 -0.110532 -0.993798 -0.011500 -0.110533 -0.993806 -0.016859 -0.110524 -0.993730 0.000000 -0.110540 -0.993872 0.000000 -0.110540 -0.993872 -0.149893 0.982643 -0.109293 -0.149893 0.982643 -0.109293 -0.105395 0.988336 -0.109926 -0.106058 0.988266 -0.109918 -0.000000 0.993872 -0.110541 -0.000000 0.993872 -0.110541 -0.149892 -0.982643 0.109292 -0.149892 -0.982643 0.109292 -0.105394 -0.988336 0.109925 -0.106057 -0.988266 0.109917 0.000000 -0.993872 0.110541 0.000000 -0.993872 0.110541 -1.000000 0.000000 -0.000000 -1.000000 0.000000 -0.000000 -1.000000 0.000000 -0.000000 -1.000000 0.000000 -0.000000 1.000000 -0.000000 0.000000 1.000000 -0.000000 0.000000 1.000000 -0.000000 0.000000 1.000000 -0.000000 0.000000 0.000000 0.000000 -1.000000 0.000000 0.000000 -1.000000 
						0.000000 0.000000 -1.000000 0.000000 0.000000 -1.000000 0.000000 0.000000 1.000000 0.000000 0.000000 1.000000 0.000000 0.000000 1.000000 0.000000 0.000000 1.000000 0.000000 0.000000 -1.000000 0.000000 0.000000 -1.000000 0.000000 0.000000 -1.000000 0.000000 0.000000 -1.000000 -0.999968 -0.000000 -0.008052 -0.999968 -0.000000 -0.008052 -0.999968 -0.000000 -0.008052 -0.999968 -0.000000 -0.008052 0.000000 0.999968 -0.008052 0.000000 0.999968 -0.008052 0.000000 0.999968 -0.008052 0.000000 0.999968 -0.008052 0.999968 0.000000 -0.008052 0.999968 0.000000 -0.008052 0.999968 0.000000 -0.008052 0.999968 0.000000 -0.008052 0.000000 -0.999968 -0.008052 0.000000 -0.999968 -0.008052 0.000000 -0.999968 -0.008052 0.000000 -0.999968 -0.008052 0.111408 -0.993775 0.000000 0.111408 -0.993775 0.000000 0.129256 -0.991611 0.000000 0.129256 -0.991611 0.000000 0.113312 0.993560 0.000000 0.113312 0.993560 0.000000 0.124293 0.992246 -0.000000 0.124293 0.992246 -0.000000 -0.000000 0.000000 -1.000000 -0.000000 0.000000 -1.000000 -0.000000 0.000000 -1.000000 -0.000000 0.000000 -1.000000 0.000000 0.000000 1.000000 0.000000 0.000000 1.000000 0.000000 0.000000 1.000000 -0.000000 0.000000 1.000000 0.000000 0.000000 1.000000 -0.000000 0.000000 1.000000 -0.000000 0.000000 1.000000 0.000000 0.000000 1.000000 -0.000000 0.000000 1.000000 -0.000000 0.000000 1.000000 -0.000000 0.000000 1.000000 -0.000000 0.000000 1.000000 -0.000000 0.000000 1.000000 -0.000000 0.000000 1.000000 0.000000 0.000000 -1.000000 0.000000 0.000000 -1.000000 -0.000000 0.000000 -1.000000 0.000000 0.000000 -1.000000 -0.000000 0.000000 -1.000000 -0.000000 0.000000 -1.000000 -0.000000 0.000000 -1.000000 -0.000000 0.000000 -1.000000 0.000000 0.000000 -1.000000 0.000000 0.000000 -1.000000 -0.124294 0.992246 0.000000 -0.124294 0.992246 0.000000 
						-0.113312 0.993559 0.000000 -0.113312 0.993559 0.000000 -0.070049 0.997544 0.000000 -0.070049 0.997544 0.000000 -0.000000 1.000000 -0.000000 -0.000000 1.000000 -0.000000 0.070048 0.997544 -0.000000 0.070048 0.997544 -0.000000 -0.129255 -0.991611 -0.000000 -0.129255 -0.991611 -0.000000 -0.111407 -0.993775 -0.000000 -0.111407 -0.993775 -0.000000 -0.071608 -0.997433 0.000000 -0.071608 -0.997433 0.000000 0.000000 -1.000000 0.000000 0.000000 -1.000000 0.000000 0.071609 -0.997433 0.000000 0.071609 -0.997433 0.000000 1.000000 -0.000000 0.000000 1.000000 -0.000000 0.000000 1.000000 -0.000000 0.000000 1.000000 -0.000000 0.000000 -1.000000 0.000000 0.000000 -1.000000 0.000000 0.000000 -1.000000 0.000000 0.000000 -1.000000 0.000000 0.000000 0.000000 0.000000 -1.000000 0.000000 0.000000 -1.000000 0.000000 0.000000 -1.000000 0.000000 0.000000 -1.000000 0.000000 0.000000 1.000000 0.000000 0.000000 1.000000 0.000000 0.000000 1.000000 0.000000 0.000000 1.000000 0.137695 0.079321 0.987293 0.089657 0.079761 0.992774 -0.047263 0.079994 0.995674 -0.051217 0.079979 0.995480 -0.072980 -0.079873 -0.994130 -0.072980 -0.079873 -0.994130 -0.044380 -0.080007 -0.995806 -0.048091 -0.079994 -0.995635 -0.976488 0.017262 0.214879 -0.969414 0.019653 0.244643 -1.000000 -0.000001 0.000000 -1.000000 -0.000001 0.000000 -0.000000 0.080084 0.996788 -0.000000 0.080084 0.996788 0.047264 0.079994 0.995674 0.051218 0.079979 0.995480 0.048090 -0.079994 -0.995635 0.044379 -0.080007 -0.995806 0.072979 -0.079873 -0.994130 0.072979 -0.079873 -0.994130 -0.000000 -0.080086 -0.996788 -0.000000 -0.080086 -0.996788 0.198889 -0.971908 0.125851 0.248232 -0.960315 0.127183 0.253779 -0.959810 0.119839 -0.109536 0.986087 -0.125038 -0.110533 0.985679 -0.127358 -0.000000 0.992056 -0.125795 -0.000000 0.992056 -0.125795 0.110532 0.985679 -0.127358 
						0.109536 0.986087 -0.125038 -0.109535 -0.986087 0.125038 -0.110532 -0.985679 0.127358 0.000000 -0.992056 0.125795 0.000000 -0.992056 0.125795 0.107942 -0.986260 0.125060 0.107546 -0.986031 0.127191 -0.088899 0.079767 0.992841 -0.139687 0.079299 0.987015 -0.304937 0.076270 0.949314 -0.304937 0.076270 0.949314 0.168501 0.977324 -0.128242 -0.168501 0.977324 -0.128242 -0.168501 -0.977324 0.128242 -0.248341 -0.960308 0.127025 -0.191777 -0.972124 0.134897 0.969137 0.019741 0.245731 0.977004 0.017075 0.212536 1.000000 0.000001 0.000000 1.000000 0.000001 0.000000 0.303363 0.076310 0.949814 0.303363 0.076310 0.949814 0.893598 0.035945 0.447426 0.893598 0.035945 0.447426 -0.893199 0.036008 0.448218 -0.893199 0.036008 0.448218 -0.213172 -0.961640 0.172643 0.172696 -0.976141 0.131626 0.191775 0.972124 -0.134896 0.213155 0.961645 -0.172640 0.248340 0.960308 -0.127025 -0.253777 0.959810 -0.119838 -0.196355 0.972018 -0.128944 -0.248209 0.960322 -0.127176 0.000000 0.000000 -1.000000 0.000000 0.000000 -1.000000 0.000000 0.000000 -1.000000 0.000000 0.000000 -1.000000 0.999968 -0.000000 -0.008052 0.999968 -0.000000 -0.008052 0.999968 -0.000000 -0.008052 0.999968 -0.000000 -0.008052 -0.000000 0.999968 -0.008052 -0.000000 0.999968 -0.008052 -0.000000 0.999968 -0.008052 -0.000000 0.999968 -0.008052 -0.999968 -0.000000 -0.008052 -0.999968 -0.000000 -0.008052 -0.999968 -0.000000 -0.008052 -0.999968 -0.000000 -0.008052 -0.000000 -0.999968 -0.008052 -0.000000 -0.999968 -0.008052 -0.000000 -0.999968 -0.008052 -0.000000 -0.999968 -0.008052 0.972583 -0.232558 -0.000000 0.972583 -0.232558 -0.000000 0.972583 -0.232558 -0.000000 0.972583 -0.232558 -0.000000 -0.972583 0.232558 0.000000 -0.972583 0.232558 0.000000 -0.972583 0.232558 0.000000 -0.972583 0.232558 0.000000 -0.230463 -0.963822 0.133920 -0.229890 -0.961424 0.151045 
						-0.229890 -0.961424 0.151045 -0.230463 -0.963822 0.133920 0.230462 0.963822 -0.133920 0.229889 0.961424 -0.151045 0.229889 0.961424 -0.151045 0.230462 0.963822 -0.133920 -0.000000 0.000000 -1.000000 -0.000000 0.000000 -1.000000 -0.000000 0.000000 -1.000000 -0.000000 0.000000 -1.000000 0.000002 0.000000 1.000000 0.000002 0.000000 1.000000 0.000002 0.000000 1.000000 0.000002 0.000000 1.000000 0.229889 0.961424 0.151045 0.230462 0.963822 0.133920 0.230462 0.963822 0.133920 0.229889 0.961424 0.151045 0.231620 0.968658 0.089750 0.231620 0.968658 0.089750 0.232558 0.972583 0.000000 0.232558 0.972582 -0.000000 0.231619 0.968657 -0.089750 0.231619 0.968657 -0.089750 -0.972583 0.232558 -0.000000 -0.972583 0.232558 -0.000000 -0.972583 0.232558 -0.000000 -0.972583 0.232558 -0.000000 -0.972583 0.232558 0.000000 -0.972583 0.232558 0.000000 -0.972583 0.232558 0.000000 -0.972583 0.232558 0.000000 -0.972583 0.232558 0.000000 -0.972583 0.232558 0.000000 -0.229890 -0.961424 -0.151045 -0.230463 -0.963822 -0.133920 -0.230463 -0.963822 -0.133920 -0.229890 -0.961424 -0.151045 -0.231619 -0.968658 -0.089750 -0.231619 -0.968658 -0.089750 -0.232558 -0.972583 -0.000000 -0.232558 -0.972583 -0.000000 -0.231619 -0.968658 0.089750 -0.231619 -0.968658 0.089750 0.972583 -0.232558 0.000000 0.972583 -0.232558 0.000000 0.972583 -0.232558 0.000000 0.972583 -0.232558 0.000000 0.972583 -0.232558 0.000000 0.972583 -0.232558 0.000000 0.972583 -0.232558 -0.000000 0.972583 -0.232558 -0.000000 0.972583 -0.232558 -0.000000 0.972583 -0.232558 -0.000000 -1.000000 -0.000000 -0.000000 -1.000000 -0.000000 -0.000000 -1.000000 -0.000000 -0.000000 -1.000000 -0.000000 -0.000000 1.000000 0.000000 0.000000 1.000000 0.000000 0.000000 1.000000 0.000000 0.000000 1.000000 0.000000 0.000000 0.000000 0.000000 -1.000000 0.000000 0.000000 -1.000000 
						0.000000 0.000000 -1.000000 0.000000 0.000000 -1.000000 
					</float_array>
					<technique_common>
						<accessor count="514" offset="0" source="#meshId0-normals-array" stride="3">
							<param name="X" type="float" />
							<param name="Y" type="float" />
							<param name="Z" type="float" />
						</accessor>
					</technique_common>
				</source>
				<source id="meshId0-tangents" name="meshId0-tangents">
					<float_array id="meshId0-tangents-array" count="1542"> 
						-0.000000 0.000000 -1.000000 -0.000000 0.000000 -1.000000 -0.000000 0.000000 -1.000000 -0.000000 0.000000 -1.000000 -0.000000 0.000000 1.000000 -0.000000 0.000000 1.000000 -0.000000 -0.000000 1.000000 -0.000000 0.000000 1.000000 -0.000000 0.000000 -1.000000 -0.000000 0.000000 -1.000000 -0.000000 0.000000 -1.000000 -0.000000 0.000000 -1.000000 0.000000 -0.000000 1.000000 0.000000 -0.000000 1.000000 0.000000 -0.000000 1.000000 0.000000 -0.000000 1.000000 1.000000 -0.000001 0.000000 1.000000 0.000001 0.000000 1.000000 0.000001 0.000000 1.000000 -0.000008 0.000000 1.000000 0.000003 -0.000000 1.000000 -0.000002 -0.000000 1.000000 -0.000016 -0.000000 1.000000 0.000013 -0.000000 1.000000 0.000001 0.000000 1.000000 0.000002 0.000000 1.000000 -0.000009 0.000000 1.000000 0.000013 0.000000 1.000000 -0.000002 0.000000 1.000000 -0.000002 0.000000 1.000000 -0.000000 -0.000000 1.000000 0.000000 -0.000000 1.000000 0.000007 -0.000000 1.000000 0.000000 -0.000000 1.000000 0.000001 0.000000 1.000000 0.000001 0.000000 -0.000000 -0.000000 1.000000 -0.000000 -0.000000 1.000000 -0.000000 -0.000000 1.000000 -0.000000 -0.000000 1.000000 -0.000000 0.000000 1.000000 -0.000000 0.000000 1.000000 0.000000 -0.000000 1.000000 0.000000 0.000000 1.000000 -0.000000 0.000000 1.000000 -0.000000 -0.000000 1.000000 -0.000000 0.000000 1.000000 -0.000000 0.000000 1.000000 0.000000 0.000000 -1.000000 0.000000 -0.000000 -1.000000 0.000000 0.000000 -1.000000 0.000000 -0.000000 -1.000000 0.000000 0.000000 -1.000000 0.000000 -0.000000 -1.000000 0.000000 0.000000 -1.000000 0.000000 -0.000000 -1.000000 0.000000 1.000000 0.000000 0.000000 1.000000 -0.000000 0.000000 1.000000 0.000000 0.000000 1.000000 -0.000000 0.000000 -0.000000 1.000000 0.000000 -0.000000 1.000000 0.000000 -0.000000 1.000000 0.000000 -0.000000 1.000000 
						0.000000 -0.000000 1.000000 0.000000 -0.000000 1.000000 0.000000 -0.000000 1.000000 0.000000 -0.000000 1.000000 -1.000000 -0.000000 0.000000 -1.000000 -0.000000 0.000000 -1.000000 -0.000000 0.000000 -1.000000 -0.000000 0.000000 0.000174 -0.034654 0.999399 -0.002327 -0.034003 0.999419 -0.003540 -0.011818 0.999924 -0.001287 -0.012493 0.999921 -0.002883 -0.067015 0.997748 0.000113 -0.065924 0.997825 0.010437 -0.035945 0.999299 0.003760 -0.037883 0.999275 0.000001 -0.999998 0.002130 -0.000004 -0.999999 0.001527 -0.000005 -0.999999 0.001527 0.000002 -0.999998 0.001996 0.000005 -0.999999 0.001527 -0.000001 -0.999998 0.002130 -0.000002 -0.999998 0.001996 0.000004 -0.999999 0.001527 -0.000000 -0.999997 0.002590 -0.000000 -0.999997 0.002590 -0.010437 -0.035945 0.999299 -0.003819 -0.037866 0.999276 0.002994 -0.066501 0.997782 -0.000196 -0.066451 0.997790 -0.000000 -0.092383 0.995724 -0.000000 -0.092383 0.995724 0.003540 -0.011818 0.999924 0.001292 -0.012491 0.999921 -0.000185 -0.034475 0.999406 0.002347 -0.034182 0.999413 -0.000000 -0.055314 0.998469 -0.000000 -0.055314 0.998469 -0.232559 0.972582 0.000000 -0.232559 0.972582 -0.000000 -0.232558 0.972582 -0.000002 -0.232558 0.972582 -0.000002 -0.232559 0.972582 0.000000 -0.232559 0.972582 -0.000000 -0.232558 0.972582 -0.000002 -0.232558 0.972582 -0.000002 -0.972583 -0.232558 -0.000000 -0.972583 -0.232558 -0.000000 -0.972583 -0.232558 -0.000000 -0.972583 -0.232558 -0.000000 -0.972582 -0.232559 0.000000 -0.972582 -0.232559 0.000000 -0.972582 -0.232559 -0.000000 -0.972582 -0.232559 -0.000000 -0.232559 0.972582 0.000000 -0.232558 0.972582 -0.000000 -0.232558 0.972583 0.000000 -0.232558 0.972582 0.000000 -0.232558 0.972582 -0.000001 -0.232558 0.972582 -0.000001 -0.232559 0.972582 -0.000001 -0.232558 0.972582 -0.000001 -0.972582 -0.232559 0.000000 -0.972582 -0.232559 0.000000 
						-0.972582 -0.232559 0.000002 -0.972582 -0.232559 0.000002 -0.972582 -0.232559 0.000001 -0.972582 -0.232559 0.000001 -0.972582 -0.232558 0.000002 -0.972582 -0.232558 0.000002 -0.972582 -0.232558 -0.000000 -0.972582 -0.232558 0.000000 -0.232559 0.972582 0.000000 -0.232559 0.972582 0.000000 -0.232559 0.972582 0.000000 -0.232559 0.972582 0.000000 -0.232559 0.972582 0.000000 -0.232559 0.972582 0.000000 -0.232558 0.972582 0.000000 -0.232558 0.972582 0.000000 -0.232559 0.972582 0.000000 -0.232559 0.972582 0.000000 -0.972583 -0.232558 0.000000 -0.972583 -0.232558 0.000000 -0.972583 -0.232558 -0.000000 -0.972583 -0.232558 -0.000000 -0.972582 -0.232558 -0.000000 -0.972583 -0.232558 -0.000000 -0.972582 -0.232559 -0.000000 -0.972582 -0.232559 -0.000000 -0.972583 -0.232558 -0.000000 -0.972582 -0.232558 -0.000000 -0.232559 0.972582 0.000000 -0.232559 0.972582 0.000000 -0.232559 0.972582 0.000003 -0.232559 0.972582 0.000002 -0.232559 0.972582 0.000001 -0.232559 0.972582 0.000001 -0.232559 0.972582 0.000002 -0.232558 0.972582 0.000002 -0.232559 0.972582 0.000000 -0.232559 0.972582 0.000000 -0.000000 0.074990 0.997184 -0.000000 0.074990 0.997184 -0.000000 0.074990 0.997184 -0.000000 0.074989 0.997184 0.000000 0.074989 0.997184 0.000000 0.074989 0.997184 -0.000000 0.074989 0.997184 0.000000 0.074989 0.997184 -0.000001 0.997184 -0.074990 -0.000000 0.997184 -0.074990 0.000000 0.997184 -0.074990 -0.000000 0.997184 -0.074990 0.000001 0.997184 -0.074990 0.000000 0.997184 -0.074990 -0.000000 0.997184 -0.074990 0.000000 0.997184 -0.074990 0.000000 0.997184 -0.074990 0.000000 0.997184 -0.074990 0.000001 0.997184 -0.074990 0.000000 0.997184 -0.074990 0.000001 0.997184 -0.074990 0.000001 0.997184 -0.074990 -0.000000 0.997184 -0.074990 -0.000000 0.997184 -0.074990 -0.000001 0.997184 -0.074990 -0.000000 0.997184 -0.074990 
						-0.000001 0.997184 -0.074990 -0.000001 0.997184 -0.074990 -0.000000 0.074989 0.997184 0.000000 0.074989 0.997184 0.000000 0.074989 0.997184 0.000000 0.074989 0.997184 0.000000 0.074989 0.997184 0.000000 0.074989 0.997184 -0.000000 0.074989 0.997184 -0.000000 0.074989 0.997184 -0.000000 0.074989 0.997184 -0.000000 0.074989 0.997184 -0.000000 0.074989 0.997184 -0.000000 0.074989 0.997184 0.000000 -0.110542 -0.993872 0.000000 -0.110542 -0.993872 0.000000 -0.110541 -0.993872 0.000000 -0.110541 -0.993872 0.000000 0.110541 0.993872 0.000000 0.110541 0.993872 0.000000 0.110541 0.993872 0.000000 0.110541 0.993872 0.000001 -0.993872 0.110540 0.000000 -0.993872 0.110540 -0.000000 -0.993872 0.110540 0.000000 -0.993872 0.110540 0.000001 0.993872 -0.110540 0.000000 0.993872 -0.110540 0.000000 0.993872 -0.110540 0.000001 0.993872 -0.110540 -0.000000 0.993872 -0.110540 0.000000 0.993872 -0.110540 0.000000 0.993872 -0.110540 -0.000000 0.993872 -0.110540 0.000001 0.993872 -0.110540 0.000001 0.993872 -0.110540 0.000000 -0.993872 0.110540 0.000001 -0.993872 0.110540 0.000001 -0.993872 0.110540 0.000000 -0.993872 0.110540 0.000001 -0.993872 0.110540 0.000001 -0.993872 0.110540 -0.000000 0.110542 0.993872 -0.000000 0.110542 0.993872 0.000000 0.110541 0.993872 0.000000 0.110541 0.993872 0.000000 0.110541 0.993872 0.000000 0.110541 0.993872 -0.000000 -0.110540 -0.993872 -0.000000 -0.110540 -0.993872 0.000000 -0.110541 -0.993872 0.000000 -0.110541 -0.993872 0.000000 -0.110541 -0.993872 0.000000 -0.110541 -0.993872 -0.000000 -0.000000 1.000000 -0.000000 -0.000000 1.000000 -0.000000 -0.000000 1.000000 -0.000000 -0.000000 1.000000 0.000000 0.000000 -1.000000 0.000000 0.000000 -1.000000 0.000000 0.000000 -1.000000 0.000000 0.000000 -1.000000 -1.000000 -0.000000 0.000000 -1.000000 -0.000000 0.000000 
						-1.000000 -0.000000 0.000000 -1.000000 -0.000000 0.000000 1.000000 0.000000 0.000000 1.000000 0.000000 0.000000 1.000000 0.000000 0.000000 1.000000 0.000000 0.000000 0.000001 -1.000000 -0.000000 0.000001 -1.000000 -0.000000 0.000001 -1.000000 0.000000 0.000001 -1.000000 0.000000 0.000000 -1.000000 -0.000000 0.000000 -1.000000 -0.000000 0.000000 -1.000000 -0.000000 0.000000 -1.000000 -0.000000 -1.000000 0.000000 -0.000000 -1.000000 -0.000000 -0.000002 -1.000000 -0.000000 -0.000002 -1.000000 0.000000 -0.000000 -0.000000 -1.000000 -0.000000 -0.000000 -1.000000 -0.000002 -0.000000 -1.000000 -0.000002 -0.000000 -1.000000 -0.000000 1.000000 0.000000 -0.000000 1.000000 0.000000 0.000000 1.000000 0.000000 0.000000 1.000000 0.000000 -0.000000 -0.000000 0.000000 1.000000 -0.000000 0.000000 1.000000 -0.000000 -0.000000 1.000000 -0.000000 -0.000000 1.000000 -0.000000 0.000000 -1.000000 -0.000000 0.000000 -1.000000 -0.000000 0.000000 -1.000000 -0.000000 0.000000 -1.000000 0.002676 -0.999996 -0.000000 0.000440 -1.000000 -0.000000 0.000000 -1.000000 0.000000 0.002678 -0.999996 -0.000000 -0.002676 -0.999996 0.000000 -0.000440 -1.000000 0.000000 0.000000 -1.000000 0.000000 -0.002677 -0.999996 -0.000000 0.000000 -1.000000 0.000000 0.002669 -0.999996 0.000000 0.002662 -0.999996 0.000000 0.000396 -1.000000 0.000000 0.000211 -1.000000 0.000000 0.000000 -1.000000 0.000000 0.000000 -1.000000 0.000000 0.000000 -1.000000 0.000000 0.000000 -1.000000 -0.000000 -0.000209 -1.000000 -0.000000 -0.000000 -1.000000 0.000000 -0.002669 -0.999996 -0.000000 -0.002662 -0.999996 0.000000 -0.000396 -1.000000 -0.000000 -0.000210 -1.000000 0.000000 0.000001 -1.000000 -0.000000 0.000000 -1.000000 -0.000000 0.000000 -1.000000 -0.000000 0.000001 -1.000000 0.000000 0.000209 -1.000000 0.000000 0.000000 0.000000 -1.000000 -0.000000 0.000000 -1.000000 
						-0.000000 0.000000 -1.000000 -0.000000 0.000000 -1.000000 -0.000000 0.000000 -1.000000 -0.000000 0.000000 -1.000000 0.000000 -0.000000 -1.000000 -0.000000 -0.000000 -1.000000 -0.000000 -0.000000 -1.000000 -0.000000 -0.000000 -1.000000 0.000000 -0.000000 1.000000 -0.000000 -0.000000 1.000000 -0.000000 -0.000000 1.000000 -0.000000 -0.000000 1.000000 -0.000000 0.000000 1.000000 -0.000000 0.000000 1.000000 -0.000000 0.000000 1.000000 -0.000000 0.000000 1.000000 -0.000000 0.000000 1.000000 -0.000000 0.000000 1.000000 0.000000 0.000000 -1.000000 0.000000 0.000000 -1.000000 0.000000 0.000000 -1.000000 0.000000 0.000000 -1.000000 0.000000 0.000000 -1.000000 0.000000 0.000000 -1.000000 0.000000 0.000000 -1.000000 0.000000 0.000000 -1.000000 1.000000 0.000000 0.000000 1.000000 0.000000 0.000000 1.000000 0.000000 0.000000 1.000000 0.000000 0.000000 -1.000000 -0.000000 0.000000 -1.000000 -0.000000 0.000000 -1.000000 -0.000000 0.000000 -1.000000 -0.000000 0.000000 -0.000000 -0.996788 0.080084 -0.000000 -0.996788 0.080084 -0.000000 -0.996788 0.080084 -0.000000 -0.996788 0.080084 -0.000000 0.996788 -0.080086 -0.000000 0.996788 -0.080086 -0.000000 0.996788 -0.080086 -0.000000 0.996788 -0.080086 0.000001 -0.996788 0.080080 0.000001 -0.996788 0.080080 0.000001 -0.996788 0.080085 0.000001 -0.996788 0.080085 0.000000 -0.996788 0.080084 0.000000 -0.996788 0.080084 0.000003 -0.996788 0.080084 0.000003 -0.996788 0.080084 0.000000 0.996788 -0.080086 0.000000 0.996788 -0.080086 0.000000 0.996788 -0.080086 0.000000 0.996788 -0.080086 -0.000000 0.996788 -0.080086 -0.000000 0.996788 -0.080086 -0.000303 0.128356 0.991728 -0.001117 0.131009 0.991381 0.000720 0.124082 0.992272 -0.000000 0.125795 0.992056 -0.000379 0.128102 0.991761 -0.000000 0.125795 0.992056 -0.000000 0.125795 0.992056 0.000386 0.128101 0.991761 
						-0.000000 0.125795 0.992056 -0.000028 0.125798 0.992056 0.000365 0.128103 0.991761 -0.000003 0.125795 0.992056 -0.000007 0.125795 0.992056 -0.000014 0.125793 0.992056 -0.000355 0.127895 0.991788 0.000000 -0.996788 0.080084 0.000001 -0.996788 0.080084 -0.000001 -0.996788 0.080084 -0.000000 -0.996788 0.080084 0.000655 0.129992 0.991515 -0.000643 0.129994 0.991515 0.000630 0.129996 0.991514 0.000804 0.130929 0.991391 0.002079 0.137045 0.990563 -0.000000 -0.996789 0.080080 -0.000000 -0.996788 0.080081 0.000001 -0.996788 0.080085 0.000001 -0.996788 0.080085 0.000000 -0.996788 0.080084 0.000001 -0.996788 0.080084 -0.000001 -0.996788 0.080080 -0.000001 -0.996788 0.080080 0.000001 -0.996788 0.080080 0.000001 -0.996788 0.080080 0.011044 0.174322 0.984627 -0.001219 0.133422 0.991059 0.002168 0.137028 0.990565 0.011573 0.174203 0.984642 0.000899 0.130904 0.991395 0.000711 0.124079 0.992272 -0.000809 0.131343 0.991337 -0.001334 0.130945 0.991389 1.000000 -0.000001 0.000000 1.000000 -0.000000 0.000000 1.000000 0.000000 0.000000 1.000000 -0.000000 0.000000 0.000000 1.000000 0.000000 0.000000 1.000000 0.000000 0.000000 1.000000 0.000000 0.000000 1.000000 0.000000 -1.000000 -0.000000 0.000000 -1.000000 -0.000000 0.000000 -1.000000 0.000000 0.000001 -1.000000 0.000000 0.000001 0.000000 -1.000000 -0.000000 0.000000 -1.000000 -0.000000 0.000000 -1.000000 -0.000002 0.000000 -1.000000 -0.000001 1.000000 -0.000000 0.000000 1.000000 -0.000000 0.000000 1.000000 -0.000000 -0.000000 1.000000 -0.000000 -0.000000 -0.232558 -0.972583 -0.000000 -0.232558 -0.972582 0.000002 -0.232558 -0.972583 0.000002 -0.232558 -0.972583 0.000000 -0.232558 -0.972583 -0.000000 -0.232558 -0.972583 0.000002 -0.232558 -0.972583 0.000002 -0.232558 -0.972583 0.000000 -0.972583 0.232558 0.000000 -0.972583 0.232558 0.000000 
						-0.972583 0.232558 0.000000 -0.972583 0.232558 0.000000 0.972583 -0.232557 0.000000 0.972583 -0.232557 -0.000000 0.972583 -0.232557 -0.000000 0.972583 -0.232557 0.000000 0.972582 -0.232559 -0.000000 0.972583 -0.232558 -0.000000 0.972583 -0.232557 -0.000000 0.972583 -0.232558 -0.000000 0.972582 -0.232559 -0.000002 0.972583 -0.232558 -0.000002 0.972583 -0.232557 -0.000002 0.972583 -0.232558 -0.000002 0.972583 -0.232557 -0.000000 0.972583 -0.232558 0.000002 0.972583 -0.232558 0.000002 0.972583 -0.232557 0.000000 0.972582 -0.232558 0.000001 0.972582 -0.232558 0.000001 0.972582 -0.232558 0.000002 0.972582 -0.232558 0.000002 0.972583 -0.232558 0.000000 0.972583 -0.232558 -0.000000 -0.232558 -0.972583 -0.000000 -0.232558 -0.972583 -0.000000 -0.232558 -0.972583 -0.000000 -0.232558 -0.972582 -0.000000 -0.232558 -0.972583 -0.000000 -0.232558 -0.972583 -0.000000 -0.232558 -0.972583 -0.000000 -0.232558 -0.972583 -0.000000 -0.232558 -0.972583 -0.000000 -0.232558 -0.972583 -0.000000 -0.972583 0.232558 -0.000000 -0.972583 0.232558 0.000000 -0.972583 0.232558 0.000000 -0.972583 0.232558 -0.000000 -0.972583 0.232558 0.000000 -0.972583 0.232558 0.000000 -0.972583 0.232558 0.000000 -0.972583 0.232558 0.000000 -0.972583 0.232558 0.000000 -0.972583 0.232558 0.000000 -0.232558 -0.972583 -0.000000 -0.232558 -0.972583 -0.000002 -0.232558 -0.972583 -0.000002 -0.232558 -0.972582 -0.000000 -0.232558 -0.972583 -0.000001 -0.232558 -0.972583 -0.000001 -0.232558 -0.972583 -0.000002 -0.232558 -0.972583 -0.000002 -0.232558 -0.972583 -0.000000 -0.232558 -0.972583 -0.000000 -0.000000 0.000000 -1.000000 -0.000000 0.000000 -1.000000 -0.000000 0.000000 -1.000000 -0.000000 0.000000 -1.000000 0.000000 -0.000000 1.000000 0.000000 -0.000000 1.000000 0.000000 -0.000000 1.000000 0.000000 -0.000000 1.000000 1.000000 0.000000 0.000000 1.000000 0.000000 0.000000 
						1.000000 0.000000 0.000000 1.000000 0.000000 0.000000 
					</float_array>
					<technique_common>
						<accessor count="514" offset="0" source="#meshId0-tangents-array" stride="3">
							<param name="X" type="float" />
							<param name="Y" type="float" />
							<param name="Z" type="float" />
						</accessor>
					</technique_common>
				</source>
				<source id="meshId0-bitangents" name="meshId0-bitangents">
					<float_array id="meshId0-bitangents-array" count="1542"> 
						-0.000000 1.000000 0.000000 -0.000000 1.000000 0.000000 -0.000000 1.000000 0.000000 -0.000000 1.000000 0.000000 -1.000000 -0.000000 -0.000000 -1.000000 -0.000000 -0.000000 -1.000000 -0.000001 -0.000000 -1.000000 -0.000001 -0.000000 0.000000 -1.000000 -0.000000 0.000000 -1.000000 -0.000000 0.000000 -1.000000 -0.000000 0.000000 -1.000000 -0.000000 0.976311 -0.216371 -0.000000 0.976311 -0.216371 -0.000000 0.926190 -0.377056 -0.000000 0.926190 -0.377056 -0.000000 -0.000001 -1.000000 -0.000000 0.000001 -1.000000 0.000000 0.000001 -1.000000 0.000000 -0.000008 -1.000000 -0.000000 -0.000003 1.000000 0.000000 0.000002 1.000000 -0.000000 0.000016 1.000000 -0.000000 -0.000013 1.000000 0.000000 -0.000001 1.000000 -0.000000 -0.000002 1.000000 -0.000000 0.000009 1.000000 0.000000 -0.000013 1.000000 -0.000000 0.000002 1.000000 0.000000 0.000002 1.000000 0.000000 -0.000000 -1.000000 0.000000 0.000000 -1.000000 -0.000000 0.000007 -1.000000 -0.000000 0.000000 -1.000000 0.000000 0.000001 -1.000000 0.000000 0.000001 -1.000000 0.000000 0.926190 0.377058 0.000000 0.926190 0.377058 0.000000 0.976311 0.216372 0.000000 0.976311 0.216372 0.000000 1.000000 0.000000 0.000000 1.000000 0.000000 0.000000 -1.000000 -0.000000 0.000000 -1.000000 -0.000000 0.000000 -1.000000 -0.000000 -0.000000 -1.000000 -0.000000 -0.000000 -1.000000 -0.000000 -0.000000 -1.000000 -0.000000 -0.000000 -1.000000 0.000000 -0.000000 -1.000000 0.000000 -0.000000 -1.000000 0.000000 -0.000000 -1.000000 0.000000 -0.000000 1.000000 0.000000 0.000000 1.000000 0.000000 0.000000 1.000000 0.000000 0.000000 1.000000 0.000000 0.000000 1.000000 0.000000 0.000000 1.000000 0.000000 0.000000 1.000000 0.000000 0.000000 1.000000 0.000000 0.000000 0.000000 -1.000000 -0.000000 0.000000 -1.000000 -0.000000 0.000000 -1.000000 -0.000000 0.000000 -1.000000 -0.000000 
						-0.000000 1.000000 0.000000 -0.000000 1.000000 0.000000 -0.000000 1.000000 0.000000 -0.000000 1.000000 0.000000 -0.000000 1.000000 0.000000 -0.000000 1.000000 0.000000 -0.000000 1.000000 0.000000 -0.000000 1.000000 0.000000 0.982955 -0.183729 -0.006542 0.982786 -0.184703 -0.003996 0.957946 -0.286949 -0.000000 0.957951 -0.286920 -0.002351 -0.983503 -0.180274 -0.014950 -0.983139 -0.182469 -0.011944 -0.960337 -0.278843 -0.000000 -0.960386 -0.278586 -0.006948 -0.999999 -0.000005 -0.001493 -0.999995 -0.000001 -0.002991 -0.999996 0.000000 -0.002991 -0.999998 -0.000005 -0.001826 -0.999996 -0.000000 0.002992 -0.999999 0.000004 0.001493 -0.999998 0.000006 0.001826 -0.999996 0.000001 0.002992 -1.000000 -0.000000 -0.000000 -1.000000 -0.000000 -0.000000 -0.960337 0.278843 0.000000 -0.960386 0.278589 0.006886 -0.983134 0.182260 0.015097 -0.983507 0.180483 0.011827 -1.000000 -0.000000 -0.000000 -1.000000 -0.000000 -0.000000 0.957946 0.286949 0.000000 0.957952 0.286921 0.002346 0.982789 0.184615 0.006550 0.982952 0.183817 0.003979 1.000000 0.000000 0.000000 1.000000 0.000000 0.000000 -0.000000 0.000000 -1.000000 -0.000000 -0.000000 -1.000000 0.000001 -0.000002 -1.000000 0.000000 -0.000002 -1.000000 0.000000 -0.000000 1.000000 0.000000 0.000000 1.000000 -0.000000 0.000002 1.000000 -0.000000 0.000002 1.000000 0.031144 -0.130248 -0.990992 0.031144 -0.130248 -0.990992 0.035127 -0.146903 -0.988527 0.035127 -0.146903 -0.988527 -0.031144 0.130248 0.990992 -0.031144 0.130248 0.990992 -0.035127 0.146904 0.988527 -0.035127 0.146903 0.988527 0.972582 0.232559 -0.000000 0.972582 0.232558 0.000000 0.972583 0.232558 0.000000 0.972582 0.232558 0.000000 -0.972582 -0.232558 -0.000002 -0.972582 -0.232558 -0.000002 -0.972582 -0.232559 -0.000002 -0.972582 -0.232558 -0.000002 0.035127 -0.146903 0.988527 0.035127 -0.146903 0.988527 
						0.031146 -0.130248 0.990992 0.031146 -0.130248 0.990992 0.020873 -0.087289 0.995964 0.020873 -0.087289 0.995964 0.000002 0.000000 1.000000 0.000002 0.000000 1.000000 -0.020872 0.087289 0.995964 -0.020872 0.087289 0.995964 -0.000000 -0.000000 1.000000 -0.000000 -0.000000 1.000000 0.000000 -0.000000 1.000000 0.000000 -0.000000 1.000000 0.000000 -0.000000 1.000000 0.000000 -0.000000 1.000000 0.000000 -0.000000 1.000000 0.000000 -0.000000 1.000000 0.000000 -0.000000 1.000000 0.000000 -0.000000 1.000000 -0.035127 0.146904 -0.988527 -0.035127 0.146904 -0.988527 -0.031144 0.130248 -0.990992 -0.031144 0.130248 -0.990992 -0.020872 0.087289 -0.995964 -0.020872 0.087289 -0.995964 0.000000 0.000000 -1.000000 0.000000 0.000000 -1.000000 0.020872 -0.087289 -0.995964 0.020872 -0.087289 -0.995964 -0.000000 0.000000 -1.000000 -0.000000 0.000000 -1.000000 -0.000001 0.000002 -1.000000 -0.000001 0.000002 -1.000000 -0.000000 0.000001 -1.000000 -0.000000 0.000001 -1.000000 -0.000000 0.000002 -1.000000 -0.000000 0.000002 -1.000000 -0.000000 0.000000 -1.000000 -0.000000 0.000000 -1.000000 -0.994334 -0.106000 0.007971 -0.994382 -0.105551 0.007937 -0.988628 -0.149957 0.011277 -0.988628 -0.149957 0.011277 0.994334 -0.106000 0.007971 0.994382 -0.105550 0.007937 0.988628 -0.149957 0.011277 0.988628 -0.149957 0.011277 0.999966 0.000620 0.008238 0.999935 0.000858 0.011406 0.999935 0.000858 0.011406 0.999970 0.000586 0.007779 -0.999966 0.000620 0.008238 -0.999935 0.000858 0.011406 -0.999935 0.000858 0.011406 -0.999970 0.000586 0.007779 -0.999935 -0.000858 -0.011406 -0.999966 -0.000619 -0.008239 -0.999970 -0.000584 -0.007779 -0.999935 -0.000858 -0.011406 -1.000000 0.000001 -0.000000 -1.000000 0.000001 -0.000000 0.999935 -0.000858 -0.011406 0.999966 -0.000619 -0.008239 0.999970 -0.000584 -0.007779 0.999935 -0.000858 -0.011406 
						1.000000 0.000001 -0.000000 1.000000 0.000001 -0.000000 0.988628 0.149957 -0.011277 0.988628 0.149957 -0.011277 0.994382 0.105551 -0.007938 0.994334 0.106000 -0.007971 1.000000 0.000000 -0.000000 1.000000 0.000000 -0.000000 -0.988628 0.149957 -0.011277 -0.988628 0.149957 -0.011277 -0.994382 0.105550 -0.007938 -0.994334 0.106000 -0.007971 -1.000000 -0.000000 -0.000000 -1.000000 -0.000000 -0.000000 0.994360 0.105408 -0.011724 0.994430 0.104749 -0.011650 0.988702 0.148974 -0.016569 0.988702 0.148974 -0.016569 0.994360 -0.105407 0.011724 0.994430 -0.104749 0.011650 0.988703 -0.148973 0.016569 0.988702 -0.148973 0.016569 -0.999926 -0.001347 -0.012103 -0.999858 -0.001864 -0.016756 -0.999858 -0.001864 -0.016756 -0.999934 -0.001272 -0.011430 -0.999926 0.001347 0.012102 -0.999858 0.001864 0.016756 -0.999858 0.001864 0.016756 -0.999934 0.001272 0.011430 -0.999858 -0.001864 -0.016756 -0.999926 -0.001346 -0.012102 -0.999934 -0.001271 -0.011430 -0.999858 -0.001864 -0.016756 -1.000000 0.000001 0.000000 -1.000000 0.000001 0.000000 -0.999858 0.001864 0.016756 -0.999926 0.001346 0.012102 -0.999934 0.001271 0.011430 -0.999858 0.001864 0.016756 -1.000000 -0.000001 -0.000000 -1.000000 -0.000001 -0.000000 0.988702 0.148974 -0.016569 0.988702 0.148974 -0.016569 0.994430 0.104749 -0.011651 0.994360 0.105408 -0.011724 1.000000 0.000000 -0.000000 1.000000 0.000000 -0.000000 0.988702 -0.148973 0.016569 0.988703 -0.148973 0.016569 0.994430 -0.104748 0.011651 0.994360 -0.105407 0.011724 1.000000 0.000000 0.000000 1.000000 0.000000 0.000000 0.000000 1.000000 0.000000 0.000000 1.000000 0.000000 0.000000 1.000000 0.000000 0.000000 1.000000 0.000000 0.000000 1.000000 0.000000 0.000000 1.000000 0.000000 0.000000 1.000000 0.000000 0.000000 1.000000 0.000000 -0.000000 1.000000 0.000000 -0.000000 1.000000 0.000000 
						-0.000000 1.000000 0.000000 -0.000000 1.000000 0.000000 0.000000 1.000000 0.000000 0.000000 1.000000 0.000000 0.000000 1.000000 0.000000 0.000000 1.000000 0.000000 -1.000000 -0.000001 0.000000 -1.000000 -0.000001 0.000000 -1.000000 -0.000001 0.000000 -1.000000 -0.000001 0.000000 -0.008052 -0.000000 0.999968 -0.008052 -0.000000 0.999968 -0.008052 -0.000000 0.999968 -0.008052 -0.000000 0.999968 -0.000000 0.008052 0.999968 -0.000002 0.008052 0.999968 -0.000002 0.008052 0.999968 -0.000000 0.008052 0.999968 -0.008052 0.000000 -0.999968 -0.008052 0.000002 -0.999968 -0.008052 0.000002 -0.999968 -0.008052 0.000000 -0.999968 0.000000 -0.008052 0.999968 0.000000 -0.008052 0.999968 -0.000000 -0.008052 0.999968 0.000000 -0.008052 0.999968 -0.993775 -0.111408 -0.000000 -0.993775 -0.111408 -0.000000 -0.991611 -0.129256 -0.000000 -0.991611 -0.129256 -0.000000 -0.993560 0.113312 0.000000 -0.993560 0.113312 0.000000 -0.992246 0.124293 0.000000 -0.992246 0.124293 0.000000 -0.999996 -0.002676 0.000000 -1.000000 -0.000440 0.000000 -1.000000 -0.000000 0.000000 -0.999996 -0.002678 0.000000 0.999996 -0.002676 -0.000000 1.000000 -0.000440 -0.000000 1.000000 0.000000 -0.000000 0.999996 -0.002677 0.000000 1.000000 0.000000 0.000000 0.999996 0.002669 0.000000 0.999996 0.002662 0.000000 1.000000 0.000396 -0.000000 1.000000 0.000211 0.000000 1.000000 0.000000 0.000000 1.000000 0.000000 0.000000 1.000000 0.000000 0.000000 1.000000 0.000000 0.000000 1.000000 -0.000209 0.000000 -1.000000 0.000000 -0.000000 -0.999996 0.002669 -0.000000 -0.999996 0.002662 0.000000 -1.000000 0.000396 -0.000000 -1.000000 0.000210 0.000000 -1.000000 -0.000001 0.000000 -1.000000 -0.000000 0.000000 -1.000000 -0.000000 0.000000 -1.000000 -0.000001 -0.000000 -1.000000 -0.000209 -0.000000 -0.992246 -0.124294 -0.000000 -0.992246 -0.124294 0.000000 
						-0.993559 -0.113312 0.000000 -0.993559 -0.113312 0.000000 -0.997544 -0.070049 0.000000 -0.997544 -0.070049 0.000000 -1.000000 -0.000000 -0.000000 -1.000000 -0.000000 0.000000 -0.997544 0.070048 0.000000 -0.997544 0.070048 0.000000 -0.991611 0.129255 0.000000 -0.991611 0.129255 -0.000000 -0.993775 0.111407 -0.000000 -0.993775 0.111407 -0.000000 -0.997433 0.071608 -0.000000 -0.997433 0.071608 -0.000000 -1.000000 -0.000000 -0.000000 -1.000000 -0.000000 -0.000000 -0.997433 -0.071609 -0.000000 -0.997433 -0.071609 -0.000000 0.000000 1.000000 0.000000 0.000000 1.000000 0.000000 0.000000 1.000000 0.000000 0.000000 1.000000 0.000000 -0.000000 -1.000000 -0.000000 -0.000000 -1.000000 -0.000000 -0.000000 -1.000000 -0.000000 -0.000000 -1.000000 -0.000000 0.000000 -1.000000 0.000000 0.000000 -1.000000 0.000000 0.000000 -1.000000 0.000000 0.000000 -1.000000 0.000000 0.000000 -1.000000 0.000000 0.000000 -1.000000 0.000000 0.000000 -1.000000 0.000000 0.000000 -1.000000 0.000000 0.990475 -0.011028 -0.137253 0.995973 -0.007180 -0.089369 0.998882 0.003785 0.047112 0.998688 0.004101 0.051053 0.997333 -0.005845 -0.072746 0.997333 -0.005845 -0.072746 0.999015 -0.003554 -0.044237 0.998843 -0.003851 -0.047936 0.215571 0.078197 0.973352 0.245431 0.077631 0.966301 -0.000000 0.080085 0.996788 -0.000000 0.080085 0.996788 1.000000 0.000000 0.000000 1.000000 0.000000 0.000000 0.998882 -0.003783 -0.047112 0.998688 -0.004099 -0.051053 0.998843 0.003851 0.047936 0.999015 0.003554 0.044237 0.997333 0.005845 0.072744 0.997333 0.005845 0.072744 1.000000 -0.000000 -0.000000 1.000000 -0.000000 -0.000000 -0.980022 -0.197282 0.025234 -0.968700 -0.246235 0.031448 -0.967262 -0.251732 0.032181 0.993983 0.108666 -0.013779 0.993872 0.109670 -0.013786 1.000000 0.000000 0.000000 1.000000 0.000000 0.000000 0.993872 -0.109671 0.013779 
						0.993983 -0.108665 0.013779 -0.993983 0.108662 -0.013806 -0.993873 0.109668 -0.013800 -1.000000 -0.000001 -0.000003 -1.000000 -0.000001 -0.000006 -0.994157 -0.107086 0.013565 -0.994200 -0.106708 0.013405 0.996041 0.007120 0.088613 0.990196 0.011187 0.139238 0.952373 0.024419 0.303958 0.952373 0.024421 0.303957 0.985701 -0.167155 0.021264 0.985701 0.167154 -0.021276 -0.985701 0.167151 -0.021289 -0.968672 0.246305 -0.031743 -0.981436 0.190248 -0.024261 0.246523 -0.077609 -0.966025 0.213221 -0.078239 -0.973866 0.000000 -0.080085 -0.996788 0.000000 -0.080085 -0.996788 0.952875 -0.024295 -0.302389 0.952875 -0.024293 -0.302389 0.448867 -0.071560 -0.890729 0.448867 -0.071560 -0.890729 0.449662 0.071528 0.890330 0.449662 0.071528 0.890330 -0.976952 0.211802 -0.026540 -0.984974 -0.171312 0.021851 0.981436 -0.190258 0.024171 0.976950 -0.211879 0.026003 0.968672 -0.246317 0.031646 0.967263 0.251731 -0.032171 0.980533 0.194758 -0.025004 0.968706 0.246241 -0.031221 -0.000001 -1.000000 0.000000 -0.000000 -1.000000 0.000000 0.000000 -1.000000 0.000000 -0.000000 -1.000000 0.000000 0.008052 -0.000000 0.999968 0.008052 -0.000000 0.999968 0.008052 -0.000000 0.999968 0.008052 -0.000000 0.999968 0.000000 0.008052 0.999968 0.000000 0.008052 0.999968 0.000001 0.008052 0.999968 0.000001 0.008052 0.999968 -0.008052 -0.000000 0.999968 -0.008052 -0.000000 0.999968 -0.008052 -0.000002 0.999968 -0.008052 -0.000002 0.999968 -0.000000 -0.008052 0.999968 -0.000000 -0.008052 0.999968 0.000000 -0.008052 0.999968 -0.000000 -0.008052 0.999968 0.000000 0.000000 -1.000000 -0.000000 -0.000002 -1.000000 -0.000001 -0.000002 -1.000000 -0.000000 -0.000000 -1.000000 -0.000000 -0.000000 1.000000 0.000001 0.000002 1.000000 0.000001 0.000002 1.000000 0.000000 0.000000 1.000000 -0.031144 -0.130248 -0.990992 -0.035127 -0.146904 -0.988527 
						-0.035127 -0.146904 -0.988527 -0.031144 -0.130248 -0.990992 -0.031144 -0.130248 -0.990992 -0.035127 -0.146903 -0.988527 -0.035127 -0.146903 -0.988527 -0.031144 -0.130248 -0.990992 -0.232559 -0.972582 0.000000 -0.232558 -0.972583 0.000000 -0.232557 -0.972583 0.000000 -0.232558 -0.972583 0.000000 0.232559 0.972582 -0.000000 0.232558 0.972583 -0.000000 0.232557 0.972583 -0.000000 0.232558 0.972583 -0.000000 0.035126 0.146904 -0.988527 0.031146 0.130248 -0.990992 0.031146 0.130248 -0.990992 0.035127 0.146903 -0.988527 0.020873 0.087289 -0.995964 0.020873 0.087289 -0.995964 0.000002 -0.000000 -1.000000 0.000002 -0.000000 -1.000000 -0.020872 -0.087289 -0.995964 -0.020872 -0.087289 -0.995964 -0.000000 -0.000000 1.000000 -0.000000 -0.000000 1.000000 -0.000000 -0.000000 1.000000 -0.000000 -0.000000 1.000000 -0.000000 -0.000000 1.000000 -0.000000 -0.000000 1.000000 -0.000000 -0.000000 1.000000 -0.000000 -0.000000 1.000000 -0.000000 -0.000000 1.000000 -0.000000 -0.000000 1.000000 0.035127 0.146904 -0.988527 0.031144 0.130248 -0.990992 0.031144 0.130248 -0.990992 0.035127 0.146904 -0.988527 0.020872 0.087289 -0.995964 0.020872 0.087289 -0.995964 -0.000000 0.000000 -1.000000 -0.000000 0.000000 -1.000000 -0.020872 -0.087289 -0.995964 -0.020872 -0.087289 -0.995964 0.000000 0.000000 -1.000000 0.000001 0.000002 -1.000000 0.000001 0.000002 -1.000000 0.000000 0.000000 -1.000000 0.000000 0.000001 -1.000000 0.000000 0.000001 -1.000000 0.000000 0.000002 -1.000000 0.000000 0.000002 -1.000000 0.000000 0.000000 -1.000000 0.000000 0.000000 -1.000000 0.000000 -1.000000 -0.000000 0.000000 -1.000000 -0.000000 0.000000 -1.000000 -0.000000 0.000000 -1.000000 -0.000000 0.000000 -1.000000 -0.000000 0.000000 -1.000000 -0.000000 0.000000 -1.000000 -0.000000 0.000000 -1.000000 -0.000000 0.000000 -1.000000 0.000000 0.000000 -1.000000 0.000000 
						0.000000 -1.000000 0.000000 0.000000 -1.000000 0.000000 
					</float_array>
					<technique_common>
						<accessor count="514" offset="0" source="#meshId0-bitangents-array" stride="3">
							<param name="X" type="float" />
							<param name="Y" type="float" />
							<param name="Z" type="float" />
						</accessor>
					</technique_common>
				</source>
				<source id="meshId0-tex0" name="meshId0-tex0">
					<float_array id="meshId0-tex0-array" count="1028"> 
						0.156018 0.577946 0.149213 0.577946 0.149213 0.329008 0.156018 0.329008 0.970343 0.194444 0.977150 0.194444 0.977150 0.261670 0.970343 0.261670 0.865935 0.711401 0.859130 0.711401 0.859130 0.462466 0.865935 0.462466 0.350324 0.923780 0.357130 0.923780 0.357130 0.996368 0.350324 0.996368 0.554715 0.996749 0.487489 0.996749 0.487489 0.747812 0.554715 0.720443 0.540139 0.001853 0.607368 0.001853 0.607368 0.250791 0.540139 0.278159 0.347545 0.001853 0.414774 0.001853 0.414774 0.278159 0.347545 0.250791 0.477456 0.001853 0.477456 0.281271 0.747309 0.996749 0.680080 0.996749 0.680080 0.720443 0.747309 0.747812 0.617399 0.996749 0.617399 0.717332 0.350324 0.725672 0.357130 0.725672 0.357130 0.798259 0.350324 0.798259 0.350324 0.861019 0.357130 0.861019 0.970343 0.001853 0.977150 0.001853 0.977150 0.069080 0.970343 0.069080 0.970343 0.131761 0.977150 0.131761 0.476659 0.717483 0.445784 0.717483 0.445784 0.500463 0.476659 0.500463 0.428466 0.757331 0.397591 0.757331 0.397591 0.540315 0.428466 0.540315 0.393519 0.519926 0.393519 0.736949 0.386469 0.736949 0.386469 0.519926 0.228915 0.521950 0.228915 0.287303 0.259792 0.287303 0.259792 0.521950 
						0.396664 0.996464 0.396664 0.761817 0.427541 0.761817 0.427541 0.996464 0.476367 0.761817 0.483417 0.761817 0.483417 0.996468 0.476367 0.996468 0.503244 0.450033 0.534156 0.450033 0.534156 0.506672 0.503244 0.506672 0.481001 0.676063 0.511958 0.676063 0.511958 0.732573 0.481001 0.732573 0.291011 0.545215 0.291011 0.488415 0.297922 0.488415 0.297922 0.545215 0.291011 0.711008 0.291011 0.654209 0.297922 0.654209 0.297922 0.711008 0.291011 0.599711 0.297922 0.599711 0.481001 0.510658 0.511958 0.510658 0.511958 0.567168 0.481001 0.567168 0.511958 0.621616 0.481001 0.621616 0.503244 0.284523 0.534156 0.284523 0.534156 0.341162 0.503244 0.341162 0.534156 0.395597 0.503244 0.395597 0.144688 0.486345 0.121409 0.486345 0.121409 0.383689 0.144688 0.383689 0.093605 0.512214 0.116884 0.512214 0.116884 0.614870 0.093605 0.614870 0.061277 0.104509 0.037998 0.104509 0.037998 0.001853 0.061277 0.001853 0.965710 0.894051 0.988989 0.894051 0.988989 0.996706 0.965710 0.996706 0.065801 0.294718 0.089082 0.294718 0.089082 0.317998 0.065801 0.317998 0.965710 0.329008 0.988989 0.329008 0.988989 0.352289 0.965710 0.352289 0.965710 0.383689 0.988989 0.383689 
						0.988989 0.486345 0.965710 0.486345 0.988989 0.588521 0.965710 0.588521 0.988989 0.690198 0.965710 0.690198 0.988989 0.791874 0.965710 0.791874 0.093605 0.001853 0.116884 0.001853 0.116884 0.104509 0.093605 0.104509 0.116884 0.206685 0.093605 0.206685 0.116884 0.308362 0.093605 0.308362 0.116884 0.410038 0.093605 0.410038 0.061277 0.614870 0.037998 0.614870 0.037998 0.512215 0.061277 0.512215 0.037998 0.410038 0.061277 0.410038 0.037998 0.308362 0.061277 0.308362 0.037998 0.206685 0.061277 0.206685 0.144688 0.996706 0.121409 0.996706 0.121409 0.894052 0.144688 0.894052 0.121409 0.791874 0.144688 0.791874 0.121409 0.690198 0.144688 0.690198 0.121409 0.588521 0.144688 0.588521 0.451344 0.939384 0.472554 0.939384 0.472554 0.996777 0.451344 0.996777 0.640408 0.172933 0.661619 0.172933 0.661619 0.230326 0.640408 0.230326 0.431881 0.825697 0.431881 0.768304 0.440923 0.768304 0.440923 0.825697 0.173309 0.386402 0.173309 0.329008 0.182351 0.329008 0.182351 0.386402 0.173309 0.557481 0.173309 0.500088 0.182351 0.500088 0.182351 0.557481 0.173309 0.443245 0.182351 0.443245 0.431881 0.996777 0.431881 0.939384 0.440923 0.939384 0.440923 0.996777 
						0.431881 0.882540 0.440923 0.882540 0.640408 0.001853 0.661619 0.001853 0.661619 0.059246 0.640408 0.059246 0.661619 0.116090 0.640408 0.116090 0.451344 0.768304 0.472554 0.768304 0.472554 0.825697 0.451344 0.825697 0.472554 0.882540 0.451344 0.882540 0.285735 0.540243 0.264521 0.540243 0.265478 0.482855 0.286692 0.482855 0.538462 0.658568 0.559672 0.658568 0.559672 0.715962 0.538462 0.715962 0.620720 0.172933 0.620720 0.230326 0.611678 0.230326 0.611678 0.172933 0.627434 0.059246 0.627434 0.001853 0.636476 0.001853 0.636476 0.059246 0.627434 0.230326 0.627434 0.172933 0.636476 0.172933 0.636476 0.230326 0.627434 0.116090 0.636476 0.116090 0.620720 0.001853 0.620720 0.059246 0.611678 0.059246 0.611678 0.001853 0.620720 0.116090 0.611678 0.116090 0.538462 0.487489 0.559672 0.487489 0.559672 0.544882 0.538462 0.544882 0.559672 0.601725 0.538462 0.601725 0.286692 0.711325 0.265478 0.711325 0.264521 0.653937 0.285735 0.653937 0.264133 0.597090 0.285347 0.597090 0.203892 0.532075 0.203892 0.294718 0.225103 0.294718 0.225103 0.532075 0.855318 0.473587 0.855318 0.710941 0.834105 0.710941 0.834105 0.473587 0.734716 0.239205 0.725672 0.239205 
						0.725672 0.001853 0.734716 0.001853 0.001853 0.759036 0.010896 0.759036 0.010896 0.996389 0.001853 0.996389 0.961164 0.657090 0.961164 0.675715 0.942540 0.675715 0.942540 0.657090 0.086753 0.001853 0.086753 0.290992 0.065801 0.290992 0.065801 0.001853 0.878227 0.001853 0.878227 0.290992 0.857275 0.290992 0.857275 0.001853 0.093605 0.997201 0.093605 0.708063 0.114557 0.708063 0.114557 0.997201 0.961638 0.708063 0.961638 0.997201 0.940687 0.997201 0.940687 0.708063 0.563485 0.463271 0.584698 0.463271 0.584698 0.501415 0.563485 0.501415 0.382657 0.567287 0.361446 0.567287 0.361446 0.529193 0.382657 0.529193 0.195266 0.518888 0.195266 0.557007 0.186284 0.557007 0.186284 0.518888 0.618806 0.674587 0.618806 0.712706 0.609824 0.712706 0.609824 0.674587 0.618806 0.484708 0.618806 0.522827 0.609824 0.522827 0.609824 0.484708 0.618806 0.560847 0.609824 0.560847 0.618806 0.598707 0.609824 0.598707 0.618806 0.636567 0.609824 0.636567 0.195266 0.329008 0.195266 0.367127 0.186284 0.367127 0.186284 0.329008 0.195266 0.405148 0.186284 0.405148 0.195266 0.443008 0.186284 0.443008 0.195266 0.480868 0.186284 0.480868 0.382657 0.757186 0.361446 0.757186 
						0.361446 0.719091 0.382657 0.719091 0.361446 0.681042 0.382657 0.681042 0.361446 0.643189 0.382657 0.643189 0.361446 0.605338 0.382657 0.605338 0.563485 0.273401 0.584698 0.273401 0.584698 0.311546 0.563485 0.311546 0.584698 0.349535 0.563485 0.349535 0.584698 0.387407 0.563485 0.387407 0.584698 0.425280 0.563485 0.425280 0.830293 0.710944 0.809082 0.710944 0.809082 0.473587 0.830293 0.473587 0.721860 0.239210 0.700649 0.239210 0.700649 0.001853 0.721860 0.001853 0.023871 0.759036 0.023871 0.996393 0.014829 0.996393 0.014829 0.759036 0.160333 0.566359 0.160333 0.329008 0.169376 0.329008 0.169376 0.566359 0.878089 0.919056 0.870250 0.919056 0.870250 0.847166 0.878089 0.847166 0.981465 0.001853 0.989304 0.001853 0.989304 0.083120 0.981465 0.083120 0.878089 0.601956 0.870250 0.601956 0.870250 0.537534 0.878089 0.537534 0.878089 0.767039 0.870250 0.767039 0.870250 0.686915 0.878089 0.686915 0.981465 0.243371 0.989304 0.243371 0.989304 0.324638 0.981465 0.324638 0.981465 0.163246 0.989304 0.163246 0.199960 0.314987 0.197807 0.321674 0.192437 0.324449 0.150572 0.754948 0.222660 0.754948 0.221302 0.835072 0.149213 0.835072 0.222660 0.915191 
						0.150572 0.915191 0.122767 0.083031 0.194856 0.083029 0.193498 0.163152 0.121409 0.163152 0.194857 0.243272 0.122768 0.243273 0.870250 0.615025 0.878089 0.615025 0.870250 0.607998 0.878089 0.607998 0.155817 0.996296 0.155818 0.673845 0.128012 0.001927 0.192437 0.001853 0.199960 0.011317 0.870250 0.932120 0.878089 0.932120 0.878089 0.996542 0.870250 0.996542 0.878089 0.926042 0.870250 0.926042 0.870250 0.926042 0.878089 0.926042 0.878089 0.607998 0.870250 0.607998 0.197829 0.004661 0.128012 0.324378 0.227767 0.986904 0.225634 0.993559 0.220242 0.996369 0.220242 0.673772 0.227767 0.683235 0.225611 0.676548 0.065801 0.341147 0.065801 0.322520 0.084426 0.322520 0.084426 0.341147 0.037998 0.708063 0.058949 0.708063 0.058949 0.997201 0.037998 0.997201 0.912883 0.001853 0.933834 0.001853 0.933834 0.290992 0.912883 0.290992 0.885079 0.708063 0.906030 0.708063 0.906030 0.997201 0.885079 0.997201 0.203892 0.001853 0.224844 0.001853 0.224844 0.290992 0.203892 0.290992 0.065801 0.486345 0.065801 0.383689 0.089080 0.383689 0.089080 0.486345 0.905577 0.512214 0.905577 0.614870 0.882298 0.614870 0.882298 0.512214 0.937906 0.104508 0.937906 0.001853 
						0.961188 0.001853 0.961188 0.104508 0.910102 0.486345 0.910102 0.383689 0.933381 0.383689 0.933381 0.486345 0.961188 0.703541 0.937906 0.703541 0.937906 0.680260 0.961188 0.680260 0.037998 0.680260 0.061277 0.680260 0.061277 0.703541 0.037998 0.703541 0.910102 0.996706 0.910102 0.894051 0.933381 0.894051 0.933381 0.996706 0.910102 0.791874 0.933381 0.791874 0.910102 0.690198 0.933381 0.690198 0.910102 0.588521 0.933381 0.588521 0.905577 0.001853 0.905577 0.104509 0.882298 0.104509 0.882298 0.001853 0.905577 0.206685 0.882298 0.206685 0.905577 0.308362 0.882298 0.308362 0.905577 0.410038 0.882298 0.410038 0.937906 0.614862 0.937906 0.512209 0.961188 0.512209 0.961188 0.614862 0.937906 0.410033 0.961188 0.410033 0.937906 0.308358 0.961188 0.308358 0.937906 0.206681 0.961188 0.206681 0.065801 0.996706 0.065801 0.894052 0.089080 0.894052 0.089080 0.996706 0.065801 0.791874 0.089080 0.791874 0.065801 0.690198 0.089080 0.690198 0.065801 0.588521 0.089080 0.588521 0.696305 0.236500 0.665431 0.236500 0.665431 0.001853 0.696305 0.001853 0.361446 0.761817 0.392320 0.761817 0.392320 0.996464 0.361446 0.996464 0.797962 0.711016 0.797964 0.476367 
						0.805013 0.476367 0.805013 0.711016 
					</float_array>
					<technique_common>
						<accessor count="514" offset="0" source="#meshId0-tex0-array" stride="2">
							<param name="S" type="float" />
							<param name="T" type="float" />
						</accessor>
					</technique_common>
				</source>
				<source id="meshId0-color0" name="meshId0-color0">
					<float_array id="meshId0-color0-array" count="1542"> 
						1.000000 1.000000 1.000000 1.000000 1.000000 1.000000 1.000000 1.000000 1.000000 1.000000 1.000000 1.000000 1.000000 1.000000 1.000000 1.000000 1.000000 1.000000 1.000000 1.000000 1.000000 1.000000 1.000000 1.000000 1.000000 1.000000 1.000000 1.000000 1.000000 1.000000 1.000000 1.000000 1.000000 1.000000 1.000000 1.000000 1.000000 1.000000 1.000000 1.000000 1.000000 1.000000 1.000000 1.000000 1.000000 1.000000 1.000000 1.000000 1.000000 1.000000 1.000000 1.000000 1.000000 1.000000 1.000000 1.000000 1.000000 1.000000 1.000000 1.000000 1.000000 1.000000 1.000000 1.000000 1.000000 1.000000 1.000000 1.000000 1.000000 1.000000 1.000000 1.000000 1.000000 1.000000 1.000000 1.000000 1.000000 1.000000 1.000000 1.000000 1.000000 1.000000 1.000000 1.000000 1.000000 1.000000 1.000000 1.000000 1.000000 1.000000 1.000000 1.000000 1.000000 1.000000 1.000000 1.000000 1.000000 1.000000 1.000000 1.000000 1.000000 1.000000 1.000000 1.000000 1.000000 1.000000 1.000000 1.000000 1.000000 1.000000 1.000000 1.000000 1.000000 1.000000 1.000000 1.000000 1.000000 1.000000 1.000000 1.000000 1.000000 1.000000 1.000000 1.000000 1.000000 1.000000 1.000000 1.000000 1.000000 1.000000 1.000000 1.000000 1.000000 1.000000 1.000000 1.000000 1.000000 1.000000 1.000000 1.000000 1.000000 1.000000 1.000000 1.000000 1.000000 1.000000 1.000000 1.000000 1.000000 1.000000 1.000000 1.000000 1.000000 1.000000 1.000000 1.000000 1.000000 1.000000 1.000000 1.000000 1.000000 1.000000 1.000000 1.000000 1.000000 1.000000 1.000000 1.000000 1.000000 1.000000 1.000000 1.000000 1.000000 1.000000 1.000000 1.000000 1.000000 1.000000 1.000000 1.000000 1.000000 1.000000 1.000000 1.000000 1.000000 1.000000 1.000000 1.000000 1.000000 1.000000 1.000000 1.000000 
						1.000000 1.000000 1.000000 1.000000 1.000000 1.000000 1.000000 1.000000 1.000000 1.000000 1.000000 1.000000 1.000000 1.000000 1.000000 1.000000 1.000000 1.000000 1.000000 1.000000 1.000000 1.000000 1.000000 1.000000 1.000000 1.000000 1.000000 1.000000 1.000000 1.000000 1.000000 1.000000 1.000000 1.000000 1.000000 1.000000 1.000000 1.000000 1.000000 1.000000 1.000000 1.000000 1.000000 1.000000 1.000000 1.000000 1.000000 1.000000 1.000000 1.000000 1.000000 1.000000 1.000000 1.000000 1.000000 1.000000 1.000000 1.000000 1.000000 1.000000 1.000000 1.000000 1.000000 1.000000 1.000000 1.000000 1.000000 1.000000 1.000000 1.000000 1.000000 1.000000 1.000000 1.000000 1.000000 1.000000 1.000000 1.000000 1.000000 1.000000 1.000000 1.000000 1.000000 1.000000 1.000000 1.000000 1.000000 1.000000 1.000000 1.000000 1.000000 1.000000 1.000000 1.000000 1.000000 1.000000 1.000000 1.000000 1.000000 1.000000 1.000000 1.000000 1.000000 1.000000 1.000000 1.000000 1.000000 1.000000 1.000000 1.000000 1.000000 1.000000 1.000000 1.000000 1.000000 1.000000 1.000000 1.000000 1.000000 1.000000 1.000000 1.000000 1.000000 1.000000 1.000000 1.000000 1.000000 1.000000 1.000000 1.000000 1.000000 1.000000 1.000000 1.000000 1.000000 1.000000 1.000000 1.000000 1.000000 1.000000 1.000000 1.000000 1.000000 1.000000 1.000000 1.000000 1.000000 1.000000 1.000000 1.000000 1.000000 1.000000 1.000000 1.000000 1.000000 1.000000 1.000000 1.000000 1.000000 1.000000 1.000000 1.000000 1.000000 1.000000 1.000000 1.000000 1.000000 1.000000 1.000000 1.000000 1.000000 1.000000 1.000000 1.000000 1.000000 1.000000 1.000000 1.000000 1.000000 1.000000 1.000000 1.000000 1.000000 1.000000 1.000000 1.000000 1.000000 1.000000 1.000000 1.000000 1.000000 1.000000 
						1.000000 1.000000 1.000000 1.000000 1.000000 1.000000 1.000000 1.000000 1.000000 1.000000 1.000000 1.000000 1.000000 1.000000 1.000000 1.000000 1.000000 1.000000 1.000000 1.000000 1.000000 1.000000 1.000000 1.000000 1.000000 1.000000 1.000000 1.000000 1.000000 1.000000 1.000000 1.000000 1.000000 1.000000 1.000000 1.000000 1.000000 1.000000 1.000000 1.000000 1.000000 1.000000 1.000000 1.000000 1.000000 1.000000 1.000000 1.000000 1.000000 1.000000 1.000000 1.000000 1.000000 1.000000 1.000000 1.000000 1.000000 1.000000 1.000000 1.000000 1.000000 1.000000 1.000000 1.000000 1.000000 1.000000 1.000000 1.000000 1.000000 1.000000 1.000000 1.000000 1.000000 1.000000 1.000000 1.000000 1.000000 1.000000 1.000000 1.000000 1.000000 1.000000 1.000000 1.000000 1.000000 1.000000 1.000000 1.000000 1.000000 1.000000 1.000000 1.000000 1.000000 1.000000 1.000000 1.000000 1.000000 1.000000 1.000000 1.000000 1.000000 1.000000 1.000000 1.000000 1.000000 1.000000 1.000000 1.000000 1.000000 1.000000 1.000000 1.000000 1.000000 1.000000 1.000000 1.000000 1.000000 1.000000 1.000000 1.000000 1.000000 1.000000 1.000000 1.000000 1.000000 1.000000 1.000000 1.000000 1.000000 1.000000 1.000000 1.000000 1.000000 1.000000 1.000000 1.000000 1.000000 1.000000 1.000000 1.000000 1.000000 1.000000 1.000000 1.000000 1.000000 1.000000 1.000000 1.000000 1.000000 1.000000 1.000000 1.000000 1.000000 1.000000 1.000000 1.000000 1.000000 1.000000 1.000000 1.000000 1.000000 1.000000 1.000000 1.000000 1.000000 1.000000 1.000000 1.000000 1.000000 1.000000 1.000000 1.000000 1.000000 1.000000 1.000000 1.000000 1.000000 1.000000 1.000000 1.000000 1.000000 1.000000 1.000000 1.000000 1.000000 1.000000 1.000000 1.000000 1.000000 1.000000 1.000000 1.000000 
						1.000000 1.000000 1.000000 1.000000 1.000000 1.000000 1.000000 1.000000 1.000000 1.000000 1.000000 1.000000 1.000000 1.000000 1.000000 1.000000 1.000000 1.000000 1.000000 1.000000 1.000000 1.000000 1.000000 1.000000 1.000000 1.000000 1.000000 1.000000 1.000000 1.000000 1.000000 1.000000 1.000000 1.000000 1.000000 1.000000 1.000000 1.000000 1.000000 1.000000 1.000000 1.000000 1.000000 1.000000 1.000000 1.000000 1.000000 1.000000 1.000000 1.000000 1.000000 1.000000 1.000000 1.000000 1.000000 1.000000 1.000000 1.000000 1.000000 1.000000 1.000000 1.000000 1.000000 1.000000 1.000000 1.000000 1.000000 1.000000 1.000000 1.000000 1.000000 1.000000 1.000000 1.000000 1.000000 1.000000 1.000000 1.000000 1.000000 1.000000 1.000000 1.000000 1.000000 1.000000 1.000000 1.000000 1.000000 1.000000 1.000000 1.000000 1.000000 1.000000 1.000000 1.000000 1.000000 1.000000 1.000000 1.000000 1.000000 1.000000 1.000000 1.000000 1.000000 1.000000 1.000000 1.000000 1.000000 1.000000 1.000000 1.000000 1.000000 1.000000 1.000000 1.000000 1.000000 1.000000 1.000000 1.000000 1.000000 1.000000 1.000000 1.000000 1.000000 1.000000 1.000000 1.000000 1.000000 1.000000 1.000000 1.000000 1.000000 1.000000 1.000000 1.000000 1.000000 1.000000 1.000000 1.000000 1.000000 1.000000 1.000000 1.000000 1.000000 1.000000 1.000000 1.000000 1.000000 1.000000 1.000000 1.000000 1.000000 1.000000 1.000000 1.000000 1.000000 1.000000 1.000000 1.000000 1.000000 1.000000 1.000000 1.000000 1.000000 1.000000 1.000000 1.000000 1.000000 1.000000 1.000000 1.000000 1.000000 1.000000 1.000000 1.000000 1.000000 1.000000 1.000000 1.000000 1.000000 1.000000 1.000000 1.000000 1.000000 1.000000 1.000000 1.000000 1.000000 1.000000 1.000000 1.000000 1.000000 1.000000 
						1.000000 1.000000 1.000000 1.000000 1.000000 1.000000 1.000000 1.000000 1.000000 1.000000 1.000000 1.000000 1.000000 1.000000 1.000000 1.000000 1.000000 1.000000 1.000000 1.000000 1.000000 1.000000 1.000000 1.000000 1.000000 1.000000 1.000000 1.000000 1.000000 1.000000 1.000000 1.000000 1.000000 1.000000 1.000000 1.000000 1.000000 1.000000 1.000000 1.000000 1.000000 1.000000 1.000000 1.000000 1.000000 1.000000 1.000000 1.000000 1.000000 1.000000 1.000000 1.000000 1.000000 1.000000 1.000000 1.000000 1.000000 1.000000 1.000000 1.000000 1.000000 1.000000 1.000000 1.000000 1.000000 1.000000 1.000000 1.000000 1.000000 1.000000 1.000000 1.000000 1.000000 1.000000 1.000000 1.000000 1.000000 1.000000 1.000000 1.000000 1.000000 1.000000 1.000000 1.000000 1.000000 1.000000 1.000000 1.000000 1.000000 1.000000 1.000000 1.000000 1.000000 1.000000 1.000000 1.000000 1.000000 1.000000 1.000000 1.000000 1.000000 1.000000 1.000000 1.000000 1.000000 1.000000 1.000000 1.000000 1.000000 1.000000 1.000000 1.000000 1.000000 1.000000 1.000000 1.000000 1.000000 1.000000 1.000000 1.000000 1.000000 1.000000 1.000000 1.000000 1.000000 1.000000 1.000000 1.000000 1.000000 1.000000 1.000000 1.000000 1.000000 1.000000 1.000000 1.000000 1.000000 1.000000 1.000000 1.000000 1.000000 1.000000 1.000000 1.000000 1.000000 1.000000 1.000000 1.000000 1.000000 1.000000 1.000000 1.000000 1.000000 1.000000 1.000000 1.000000 1.000000 1.000000 1.000000 1.000000 1.000000 1.000000 1.000000 1.000000 1.000000 1.000000 1.000000 1.000000 1.000000 1.000000 1.000000 1.000000 1.000000 1.000000 1.000000 1.000000 1.000000 1.000000 1.000000 1.000000 1.000000 1.000000 1.000000 1.000000 1.000000 1.000000 1.000000 1.000000 1.000000 1.000000 1.000000 1.000000 
						1.000000 1.000000 1.000000 1.000000 1.000000 1.000000 1.000000 1.000000 1.000000 1.000000 1.000000 1.000000 1.000000 1.000000 1.000000 1.000000 1.000000 1.000000 1.000000 1.000000 1.000000 1.000000 1.000000 1.000000 1.000000 1.000000 1.000000 1.000000 1.000000 1.000000 1.000000 1.000000 1.000000 1.000000 1.000000 1.000000 1.000000 1.000000 1.000000 1.000000 1.000000 1.000000 1.000000 1.000000 1.000000 1.000000 1.000000 1.000000 1.000000 1.000000 1.000000 1.000000 1.000000 1.000000 1.000000 1.000000 1.000000 1.000000 1.000000 1.000000 1.000000 1.000000 1.000000 1.000000 1.000000 1.000000 1.000000 1.000000 1.000000 1.000000 1.000000 1.000000 1.000000 1.000000 1.000000 1.000000 1.000000 1.000000 1.000000 1.000000 1.000000 1.000000 1.000000 1.000000 1.000000 1.000000 1.000000 1.000000 1.000000 1.000000 1.000000 1.000000 1.000000 1.000000 1.000000 1.000000 1.000000 1.000000 1.000000 1.000000 1.000000 1.000000 1.000000 1.000000 1.000000 1.000000 1.000000 1.000000 1.000000 1.000000 1.000000 1.000000 1.000000 1.000000 1.000000 1.000000 1.000000 1.000000 1.000000 1.000000 1.000000 1.000000 1.000000 1.000000 1.000000 1.000000 1.000000 1.000000 1.000000 1.000000 1.000000 1.000000 1.000000 1.000000 1.000000 1.000000 1.000000 1.000000 1.000000 1.000000 1.000000 1.000000 1.000000 1.000000 1.000000 1.000000 1.000000 1.000000 1.000000 1.000000 1.000000 1.000000 1.000000 1.000000 1.000000 1.000000 1.000000 1.000000 1.000000 1.000000 1.000000 1.000000 1.000000 1.000000 1.000000 1.000000 1.000000 1.000000 1.000000 1.000000 1.000000 1.000000 1.000000 1.000000 1.000000 1.000000 1.000000 1.000000 1.000000 1.000000 1.000000 1.000000 1.000000 1.000000 1.000000 1.000000 1.000000 1.000000 1.000000 1.000000 1.000000 1.000000 
						1.000000 1.000000 1.000000 1.000000 1.000000 1.000000 1.000000 1.000000 1.000000 1.000000 1.000000 1.000000 1.000000 1.000000 1.000000 1.000000 1.000000 1.000000 1.000000 1.000000 1.000000 1.000000 1.000000 1.000000 1.000000 1.000000 1.000000 1.000000 1.000000 1.000000 1.000000 1.000000 1.000000 1.000000 1.000000 1.000000 1.000000 1.000000 1.000000 1.000000 1.000000 1.000000 1.000000 1.000000 1.000000 1.000000 1.000000 1.000000 1.000000 1.000000 1.000000 1.000000 1.000000 1.000000 1.000000 1.000000 1.000000 1.000000 1.000000 1.000000 1.000000 1.000000 1.000000 1.000000 1.000000 1.000000 1.000000 1.000000 1.000000 1.000000 1.000000 1.000000 1.000000 1.000000 1.000000 1.000000 1.000000 1.000000 1.000000 1.000000 1.000000 1.000000 1.000000 1.000000 1.000000 1.000000 1.000000 1.000000 1.000000 1.000000 1.000000 1.000000 1.000000 1.000000 1.000000 1.000000 1.000000 1.000000 1.000000 1.000000 1.000000 1.000000 1.000000 1.000000 1.000000 1.000000 1.000000 1.000000 1.000000 1.000000 1.000000 1.000000 1.000000 1.000000 1.000000 1.000000 1.000000 1.000000 1.000000 1.000000 1.000000 1.000000 1.000000 1.000000 1.000000 1.000000 1.000000 1.000000 1.000000 1.000000 1.000000 1.000000 1.000000 1.000000 1.000000 1.000000 1.000000 1.000000 1.000000 1.000000 1.000000 1.000000 1.000000 1.000000 1.000000 1.000000 1.000000 1.000000 1.000000 1.000000 1.000000 1.000000 1.000000 1.000000 1.000000 1.000000 1.000000 1.000000 1.000000 1.000000 1.000000 1.000000 1.000000 1.000000 1.000000 1.000000 1.000000 1.000000 1.000000 1.000000 1.000000 1.000000 1.000000 1.000000 1.000000 1.000000 1.000000 1.000000 1.000000 1.000000 1.000000 1.000000 1.000000 1.000000 1.000000 1.000000 1.000000 1.000000 1.000000 1.000000 1.000000 1.000000 
						1.000000 1.000000 1.000000 1.000000 1.000000 1.000000 1.000000 1.000000 1.000000 1.000000 1.000000 1.000000 1.000000 1.000000 1.000000 1.000000 1.000000 1.000000 1.000000 1.000000 1.000000 1.000000 1.000000 1.000000 1.000000 1.000000 1.000000 1.000000 1.000000 1.000000 1.000000 1.000000 1.000000 1.000000 1.000000 1.000000 1.000000 1.000000 1.000000 1.000000 1.000000 1.000000 1.000000 1.000000 1.000000 1.000000 1.000000 1.000000 1.000000 1.000000 1.000000 1.000000 1.000000 1.000000 1.000000 1.000000 1.000000 1.000000 1.000000 1.000000 1.000000 1.000000 1.000000 1.000000 1.000000 1.000000 1.000000 1.000000 1.000000 1.000000 1.000000 1.000000 1.000000 1.000000 1.000000 1.000000 1.000000 1.000000 1.000000 1.000000 1.000000 1.000000 1.000000 1.000000 1.000000 1.000000 1.000000 1.000000 1.000000 1.000000 1.000000 1.000000 1.000000 1.000000 1.000000 1.000000 1.000000 1.000000 1.000000 1.000000 1.000000 1.000000 1.000000 1.000000 1.000000 1.000000 1.000000 1.000000 1.000000 1.000000 1.000000 1.000000 1.000000 1.000000 1.000000 1.000000 1.000000 1.000000 1.000000 1.000000 1.000000 1.000000 1.000000 1.000000 1.000000 1.000000 1.000000 1.000000 1.000000 1.000000 1.000000 1.000000 1.000000 1.000000 1.000000 1.000000 1.000000 1.000000 1.000000 1.000000 1.000000 1.000000 1.000000 1.000000 1.000000 1.000000 1.000000 1.000000 1.000000 1.000000 1.000000 1.000000 1.000000 1.000000 1.000000 1.000000 1.000000 1.000000 1.000000 1.000000 1.000000 1.000000 1.000000 1.000000 1.000000 1.000000 1.000000 1.000000 1.000000 1.000000 1.000000 1.000000 1.000000 1.000000 1.000000 1.000000 1.000000 1.000000 1.000000 1.000000 1.000000 1.000000 1.000000 1.000000 1.000000 1.000000 1.000000 1.000000 1.000000 1.000000 1.000000 1.000000 
						1.000000 1.000000 1.000000 1.000000 1.000000 1.000000 
					</float_array>
					<technique_common>
						<accessor count="514" offset="0" source="#meshId0-color0-array" stride="3">
							<param name="R" type="float" />
							<param name="G" type="float" />
							<param name="B" type="float" />
						</accessor>
					</technique_common>
				</source>
				<vertices id="meshId0-vertices">
					<input semantic="POSITION" source="#meshId0-positions" />
				</vertices>
				<polylist count="382" material="defaultMaterial">
					<input offset="0" semantic="VERTEX" source="#meshId0-vertices" />
					<input offset="0" semantic="NORMAL" source="#meshId0-normals" />
					<input offset="0" semantic="TANGENT" source="#meshId0-tangents" />
					<input offset="0" semantic="BINORMAL" source="#meshId0-bitangents" />
					<input offset="0" semantic="TEXCOORD" source="#meshId0-tex0" set="0" />
					<input offset="0" semantic="COLOR" source="#meshId0-color0" set="0" />
					<vcount>
						3 3 3 3 3 3 3 3 3 3 3 3 3 3 3 3 3 3 3 3 3 3 3 3 3 3 3 3 3 3 3 3 3 3 3 3 3 3 3 3 3 3 3 3 3 3 3 3 3 3 3 3 3 3 3 3 3 3 3 3 3 3 3 3 
						3 3 3 3 3 3 3 3 3 3 3 3 3 3 3 3 3 3 3 3 3 3 3 3 3 3 3 3 3 3 3 3 3 3 3 3 3 3 3 3 3 3 3 3 3 3 3 3 3 3 3 3 3 3 3 3 3 3 3 3 3 3 3 3 
						3 3 3 3 3 3 3 3 3 3 3 3 3 3 3 3 3 3 3 3 3 3 3 3 3 3 3 3 3 3 3 3 3 3 3 3 3 3 3 3 3 3 3 3 3 3 3 3 3 3 3 3 3 3 3 3 3 3 3 3 3 3 3 3 
						3 3 3 3 3 3 3 3 3 3 3 3 3 3 3 3 3 3 3 3 3 3 3 3 3 3 3 3 3 3 3 3 3 3 3 3 3 3 3 3 3 3 3 3 3 3 3 3 3 3 3 3 3 3 3 3 3 3 3 3 3 3 3 3 
						3 3 3 3 3 3 3 3 3 3 3 3 3 3 3 3 3 3 3 3 3 3 3 3 3 3 3 3 3 3 3 3 3 3 3 3 3 3 3 3 3 3 3 3 3 3 3 3 3 3 3 3 3 3 3 3 3 3 3 3 3 3 3 3 
						3 3 3 3 3 3 3 3 3 3 3 3 3 3 3 3 3 3 3 3 3 3 3 3 3 3 3 3 3 3 3 3 3 3 3 3 3 3 3 3 3 3 3 3 3 3 3 3 3 3 3 3 3 3 3 3 3 3 3 3 3 3 
					</vcount>
					<p>
						3 0 1 1 2 3 7 4 5 5 6 7 11 8 9 9 10 11 15 12 13 13 14 15 19 16 17 17 18 19 23 20 21 21 22 23 27 24 25 25 26 27 29 28 20 20 23 29 33 30 31 31 32 33 35 34 16 16 19 35 39 36 37 37 38 39 12 40 41 41 13 12 45 42 43 43 44 45 4 46 47 47 5 4 46 45 44 44 47 46 40 39 38 38 41 40 32 31 34 34 35 32 26 25 28 28 29 26 51 48 49 49 50 51 55 52 53 53 54 55 59 56 57 57 58 59 63 60 61 61 62 63 67 64 65 65 66 67 71 68 69 69 70 71 75 72 73 73 74 75 79 76 77 77 78 79 83 80 81 81 82 83 87 84 85 85 86 87 86 85 88 88 89 86 89 88 80 80 83 89 93 90 91 91 92 93 95 93 92 92 94 95 
						76 95 94 94 77 76 99 96 97 97 98 99 101 99 98 98 100 101 72 101 100 100 73 72 105 102 103 103 104 105 109 106 107 107 108 109 113 110 111 111 112 113 117 114 115 115 116 117 121 118 119 119 120 121 125 122 123 123 124 125 129 126 127 127 128 129 131 129 128 128 130 131 133 131 130 130 132 133 135 133 132 132 134 135 139 136 137 137 138 139 141 139 138 138 140 141 143 141 140 140 142 143 145 143 142 142 144 145 106 145 144 144 107 106 114 135 134 134 115 114 149 146 147 147 148 149 151 149 148 148 150 151 153 151 150 150 152 153 155 153 152 152 154 155 159 156 157 157 158 159 161 159 158 158 160 161 163 161 160 160 162 163 165 163 162 162 164 165 102 165 164 164 103 102 110 155 154 154 111 110 169 166 167 167 168 169 173 170 171 171 172 173 
						177 174 175 175 176 177 181 178 179 179 180 181 185 182 183 183 184 185 184 183 186 186 187 184 187 186 178 178 181 187 191 188 189 189 190 191 190 189 192 192 193 190 193 192 174 174 177 193 197 194 195 195 196 197 199 197 196 196 198 199 170 199 198 198 171 170 203 200 201 201 202 203 205 203 202 202 204 205 166 205 204 204 167 166 209 206 207 207 208 209 213 210 211 211 212 213 217 214 215 215 216 217 221 218 219 219 220 221 225 222 223 223 224 225 224 223 226 226 227 224 227 226 218 218 221 227 231 228 229 229 230 231 230 229 232 232 233 230 233 232 214 214 217 233 237 234 235 235 236 237 239 237 236 236 238 239 210 239 238 238 211 210 243 240 241 241 242 243 245 243 242 242 244 245 206 245 244 244 207 206 249 246 247 247 248 249 253 250 251 251 252 253 
						257 254 255 255 256 257 261 258 259 259 260 261 265 262 263 263 264 265 269 266 267 267 268 269 273 270 271 271 272 273 277 274 275 275 276 277 281 278 279 279 280 281 285 282 283 283 284 285 289 286 287 287 288 289 293 290 291 291 292 293 297 294 295 295 296 297 301 298 299 299 300 301 300 299 302 302 303 300 303 302 304 304 305 303 305 304 306 306 307 305 307 306 294 294 297 307 311 308 309 309 310 311 310 309 312 312 313 310 313 312 314 314 315 313 315 314 316 316 317 315 317 316 290 290 293 317 321 318 319 319 320 321 323 321 320 320 322 323 325 323 322 322 324 325 327 325 324 324 326 327 286 327 326 326 287 286 331 328 329 329 330 331 333 331 330 330 332 333 335 333 332 332 334 335 337 335 334 334 336 337 282 337 336 336 283 282 341 338 339 339 340 341 
						345 342 343 343 344 345 349 346 347 347 348 349 353 350 351 351 352 353 357 354 355 355 356 357 361 358 359 359 360 361 365 362 363 363 364 365 369 366 367 367 368 369 366 357 356 356 367 366 373 370 371 371 372 373 370 374 375 375 371 370 376 377 378 382 379 380 380 381 382 384 382 381 381 383 384 374 361 360 360 375 374 388 385 386 386 387 388 390 388 387 387 389 390 392 369 368 368 391 392 394 392 391 391 393 394 395 384 383 380 379 396 397 398 399 403 400 401 401 402 403 355 354 404 404 405 355 400 406 407 407 401 400 362 408 409 409 363 362 398 410 399 399 386 397 386 385 397 376 378 411 389 376 390 390 376 411 383 412 395 412 413 414 395 412 414 396 415 416 415 417 416 416 380 396 421 418 419 419 420 421 425 422 423 423 424 425 429 426 427 427 428 429 
						433 430 431 431 432 433 437 434 435 435 436 437 441 438 439 439 440 441 445 442 443 443 444 445 449 446 447 447 448 449 453 450 451 451 452 453 457 454 455 455 456 457 461 458 459 459 460 461 465 462 463 463 464 465 464 463 466 466 467 464 467 466 468 468 469 467 469 468 470 470 471 469 475 472 473 473 474 475 474 473 476 476 477 474 477 476 478 478 479 477 479 478 480 480 481 479 481 480 442 442 445 481 471 470 450 450 453 471 485 482 483 483 484 485 484 483 486 486 487 484 487 486 488 488 489 487 489 488 490 490 491 489 495 492 493 493 494 495 494 493 496 496 497 494 497 496 498 498 499 497 499 498 500 500 501 499 501 500 438 438 441 501 491 490 446 446 449 491 505 502 503 503 504 505 509 506 507 507 508 509 513 510 511 511 512 513 
					</p>
				</polylist>
			</mesh>
		</geometry>
	</library_geometries>
	<library_visual_scenes>
		<visual_scene id="RootNode" name="RootNode">
			<node id="Wood_Chair_01a.006" name="Wood_Chair_01a.006">
				<matrix>100.000000 0.000000 0.000000 0.000000 0.000000 -0.000016 100.000000 0.000000 0.000000 -100.000000 -0.000016 0.000000 0.000000 0.000000 0.000000 1.000000</matrix>
				<instance_geometry url="#meshId0">
					<bind_material>
						<technique_common>
							<instance_material symbol="defaultMaterial" target="#DefaultMaterial" />
						</technique_common>
					</bind_material>
				</instance_geometry>
			</node>
		</visual_scene>
	</library_visual_scenes>
	<scene>
		<instance_visual_scene url="#RootNode" />
	</scene>
</COLLADA>
