# Blender v3.1.2 OBJ File: 'Comic.blend'
# www.blender.org
mtllib Comic.mtl
o Plane_Plane.029
v -0.079373 -0.134937 -0.001847
v 0.079092 -0.134937 -0.005330
v -0.079375 0.134937 0.001497
v 0.079445 0.134937 -0.002279
v -0.079375 0.067469 0.001497
v -0.079373 0.000000 -0.001847
v -0.079373 -0.067469 -0.001847
v 0.079092 -0.067469 -0.005330
v 0.079092 0.000000 -0.005330
v 0.079445 0.067469 -0.002279
v -0.039686 -0.134937 -0.002153
v -0.000000 -0.134937 -0.002459
v 0.039700 -0.134937 -0.000491
v 0.040018 0.134937 0.002256
v 0.000000 0.134937 0.000000
v -0.039687 0.134937 0.001497
v 0.039700 -0.067469 -0.000491
v -0.000000 -0.067469 -0.002459
v -0.039686 -0.067469 -0.002153
v 0.039700 0.000000 -0.000491
v -0.000000 0.000000 -0.002459
v -0.039686 0.000000 -0.002153
v 0.040018 0.067469 0.002256
v 0.000000 0.067469 0.000000
v -0.039687 0.067469 0.001497
v -0.079390 -0.134937 -0.004147
v 0.078811 -0.134937 -0.007613
v -0.079375 0.134937 -0.000803
v 0.079182 0.134937 -0.004564
v -0.079379 0.067528 -0.000802
v -0.079386 0.000060 -0.004146
v -0.079390 -0.067469 -0.004147
v 0.078811 -0.067469 -0.007613
v 0.078816 0.000050 -0.007613
v 0.079178 0.067518 -0.004563
v -0.039704 -0.134937 -0.004453
v 0.000048 -0.134937 -0.004759
v 0.039617 -0.134937 -0.002789
v 0.039951 0.134937 -0.000043
v 0.000021 0.134937 -0.002300
v -0.039731 0.134937 -0.000803
v 0.039617 -0.067469 -0.002789
v 0.000048 -0.067469 -0.004759
v -0.039704 -0.067469 -0.004453
v 0.039621 0.000047 -0.002789
v 0.000041 0.000048 -0.004758
v -0.039710 0.000056 -0.004452
v 0.039946 0.067516 -0.000042
v 0.000028 0.067517 -0.002299
v -0.039724 0.067525 -0.000802
v -0.080200 -0.134937 -0.002997
v 0.078951 -0.134937 -0.006472
v -0.080194 0.134937 0.000347
v -0.080196 0.067499 0.000347
v -0.080198 0.000030 -0.002996
v -0.080200 -0.067469 -0.002997
v 0.078951 -0.067469 -0.006472
v 0.078954 0.000025 -0.006472
v -0.039695 -0.134937 -0.003303
v 0.000024 -0.134937 -0.003609
v 0.039659 -0.134937 -0.001640
v 0.039984 0.134937 0.001107
v 0.000011 0.134937 -0.001150
v -0.039709 0.134937 0.000347
v 0.079315 0.134937 -0.002441
v 0.079153 0.134937 -0.004513
v 0.076755 0.134937 -0.003214
v 0.079187 0.134937 -0.002811
v 0.079057 0.134937 -0.003134
v 0.078958 0.134937 -0.003461
v 0.078923 0.134937 -0.003848
v 0.078949 0.134937 -0.004040
v 0.079007 0.134937 -0.004194
v 0.079080 0.134937 -0.004341
v 0.079149 0.067517 -0.004513
v 0.079314 0.067472 -0.002442
v 0.078533 0.065714 -0.003502
v 0.079077 0.067514 -0.004341
v 0.079004 0.067510 -0.004194
v 0.078946 0.067507 -0.004040
v 0.078921 0.067503 -0.003848
v 0.078956 0.067494 -0.003461
v 0.079056 0.067487 -0.003134
v 0.079186 0.067480 -0.002812
vt 0.754359 0.749120
vt 1.003112 0.749120
vt 1.003112 0.997347
vt 0.754359 0.997347
vt 0.752358 0.004438
vt 1.000883 0.004438
vt 1.000883 0.252665
vt 0.752358 0.252665
vt 1.000883 0.500893
vt 0.752358 0.500893
vt 0.001112 0.500893
vt 0.251498 0.500893
vt 0.251490 0.749120
vt 0.001097 0.749120
vt 0.501884 0.500893
vt 0.501884 0.749120
vt 0.001112 0.252665
vt 0.251498 0.252665
vt 0.501884 0.252665
vt 0.001112 0.004438
vt 0.251498 0.004438
vt 0.501884 0.004438
vt 0.251490 0.997347
vt 0.001097 0.997347
vt 0.501884 0.997347
vt 0.752788 0.509324
vt 0.607191 0.497680
vt 0.607036 0.500450
vt 0.752268 0.512074
vt 0.005293 0.505751
vt 0.009702 0.444624
vt 0.172067 0.570724
vt 0.172097 0.650212
vt 0.005293 0.508701
vt -1.634442 0.485456
vt -0.588274 0.485448
vt -0.588846 0.530936
vt -1.634442 0.530952
vt 0.338688 0.500008
vt 0.505247 0.429283
vt 0.505339 0.508779
vt 0.338780 0.579503
vt 0.005232 0.349788
vt 0.172036 0.491236
vt 0.005243 0.362802
vt 0.313152 0.501687
vt 0.166098 0.500949
vt 0.166065 0.503720
vt 0.313119 0.504458
vt 0.460329 0.502424
vt 0.460418 0.505195
vt -0.161327 0.420512
vt -0.161308 0.433472
vt 0.459320 0.489670
vt 1.513602 0.485957
vt 1.512719 0.531433
vt 0.459603 0.535164
vt -0.587702 0.439960
vt 0.459038 0.444176
vt 1.514484 0.440480
vt 0.507078 0.791785
vt 0.507079 0.629313
vt 0.507264 0.629316
vt 0.507268 0.791785
vt 0.607346 0.494911
vt 0.460240 0.499654
vt 0.313185 0.498916
vt 0.166131 0.498178
vt 0.338596 0.420512
vt 0.505156 0.349788
vt -1.634442 0.439960
vt 2.554367 0.458454
vt 2.550922 0.464863
vt 2.483422 0.495429
vt 0.753308 0.506573
vt 2.547568 0.479503
vt 2.544137 0.492248
vt 2.541521 0.505210
vt 2.540609 0.520503
vt 2.541291 0.528122
vt 2.542808 0.534211
vt 2.544738 0.540027
vt 2.546657 0.546823
vt 0.005294 0.495194
vt 0.005295 0.486327
vt 0.005295 0.476755
vt 0.005292 0.464081
vt 0.005282 0.437343
vt 0.005270 0.413627
vt 0.005257 0.389817
vt -0.161146 0.576354
vt -0.161155 0.565810
vt -0.161162 0.556955
vt -0.161171 0.547395
vt -0.161183 0.534730
vt -0.161214 0.508004
vt -0.161243 0.484291
vt -0.161274 0.460484
vt 2.547434 0.548849
vt 0.246154 0.750826
vt 0.246126 0.998062
vt -0.002290 0.998062
vt -0.002263 0.750836
vt 0.248240 0.008428
vt 0.248240 0.255837
vt 0.000059 0.255837
vt 0.000059 0.008428
vt 0.248212 0.503418
vt 0.000031 0.503427
vt 1.001771 0.503464
vt 1.001729 0.750872
vt 0.750632 0.750858
vt 0.750544 0.503450
vt 0.498918 0.750831
vt 0.498833 0.503422
vt 1.001799 0.255837
vt 0.750503 0.255837
vt 0.498791 0.255837
vt 1.001799 0.008428
vt 0.750503 0.008428
vt 0.498791 0.008428
vt 1.001701 0.998062
vt 0.750673 0.998062
vt 0.498960 0.998062
vt -0.290145 0.502943
vt 0.669977 0.502939
vt 0.669977 0.612844
vt -0.290145 0.612847
vt 2.590645 0.502162
vt 3.550344 0.502163
vt 3.550344 0.612067
vt 2.591069 0.612031
vt 1.630523 0.502901
vt 1.630947 0.612773
vt 0.669977 0.393034
vt 1.630099 0.393034
vt 2.590221 0.392292
vt 3.550344 0.392254
vt -0.290145 0.393038
vn 0.0310 -0.0205 0.9993
vn 0.1162 -0.0216 0.9930
vn 0.1143 -0.0000 0.9934
vn 0.0291 -0.0000 0.9996
vn 0.0363 -0.0000 0.9993
vn 0.1219 -0.0000 0.9925
vn 0.1200 -0.0216 0.9925
vn 0.0344 -0.0205 0.9992
vn 0.0058 -0.0259 0.9996
vn 0.0105 -0.0243 0.9997
vn 0.0161 -0.0242 0.9996
vn 0.0019 -0.0259 0.9997
vn -0.0180 -0.0209 0.9996
vn -0.0122 -0.0209 0.9997
vn 0.0077 -0.0000 1.0000
vn -0.0209 -0.0000 0.9998
vn 0.0188 -0.0000 0.9998
vn 0.0000 -0.0000 1.0000
vn -0.0093 -0.0000 1.0000
vn 0.0000 -1.0000 0.0000
vn 0.9565 -0.0336 0.2900
vn 0.9943 -0.0285 -0.1029
vn 0.9938 0.0024 -0.1114
vn 0.9988 -0.0048 0.0485
vn 0.9322 -0.0048 0.3620
vn 0.0000 1.0000 0.0000
vn 0.9926 -0.0000 -0.1215
vn 0.9925 0.0000 -0.1219
vn 0.8496 0.0097 -0.5273
vn 0.9620 0.0098 -0.2729
vn 0.9143 -0.0234 -0.4043
vn 0.7781 -0.0000 -0.6282
vn 0.8750 -0.0000 -0.4842
vn 0.8956 -0.0000 0.4448
vn 0.8668 -0.0000 0.4987
vn 0.9793 -0.0981 0.1769
vn 0.9811 -0.0972 0.1674
vn 0.9918 -0.0938 0.0867
vn 0.9953 -0.0927 -0.0294
vn 0.9858 -0.0930 -0.1397
vn 0.9726 -0.0953 -0.2121
vn 0.9707 -0.0959 -0.2201
vn 0.9087 -0.0000 0.4174
vn 0.9174 -0.0000 0.3979
vn 0.9702 -0.0000 0.2425
vn 0.9998 -0.0000 0.0214
vn 0.9816 -0.0000 -0.1911
vn 0.9429 -0.0000 -0.3330
vn 0.9366 -0.0000 -0.3504
vn -0.0310 0.0205 -0.9993
vn -0.0291 -0.0000 -0.9996
vn -0.1145 -0.0000 -0.9934
vn -0.1164 0.0216 -0.9930
vn -0.0364 0.0000 -0.9993
vn -0.1222 0.0000 -0.9925
vn -0.0345 0.0205 -0.9992
vn -0.1202 0.0216 -0.9925
vn -0.0058 0.0259 -0.9996
vn -0.0019 0.0259 -0.9997
vn -0.0160 0.0242 -0.9996
vn -0.0105 0.0243 -0.9997
vn 0.0123 0.0209 -0.9997
vn 0.0181 0.0209 -0.9996
vn -0.0077 0.0000 -1.0000
vn 0.0210 0.0000 -0.9998
vn 0.0000 -0.0000 -1.0000
vn -0.0188 -0.0000 -0.9998
vn 0.0094 -0.0000 -1.0000
vn -0.8177 0.0000 -0.5757
vn -0.8174 0.0000 -0.5760
vn -0.8156 0.0144 -0.5784
vn -0.8150 0.0000 -0.5794
vn -0.8156 0.0143 -0.5784
vn -0.8168 0.0143 -0.5768
vn -0.8168 0.0144 -0.5768
vn -0.8119 0.0000 0.5838
vn -0.8127 -0.0144 0.5825
vn -0.8138 -0.0144 0.5810
vn -0.8143 0.0000 0.5805
vn -0.8117 -0.0000 0.5841
usemtl Front_Cover
s 1
f 23/1/1 10/2/2 4/3/3 14/4/4
f 13/5/5 2/6/6 8/7/6 17/8/5
f 17/8/5 8/7/6 9/9/7 20/10/8
f 20/10/8 9/9/7 10/2/2 23/1/1
f 6/11/9 22/12/10 25/13/11 5/14/12
f 22/12/10 21/15/13 24/16/14 25/13/11
f 21/15/13 20/10/8 23/1/1 24/16/14
f 7/17/15 19/18/15 22/12/10 6/11/9
f 19/18/15 18/19/16 21/15/13 22/12/10
f 18/19/16 17/8/5 20/10/8 21/15/13
f 1/20/15 11/21/15 19/18/15 7/17/15
f 11/21/15 12/22/16 18/19/16 19/18/15
f 12/22/16 13/5/5 17/8/5 18/19/16
f 5/14/12 25/13/11 16/23/17 3/24/18
f 25/13/11 24/16/14 15/25/19 16/23/17
f 24/16/14 23/1/1 14/4/4 15/25/19
usemtl Sides
f 52/26/20 61/27/20 38/28/20 27/29/20
f 75/30/21 77/31/22 58/32/23 34/33/24 35/34/25
f 53/35/26 64/36/26 41/37/26 28/38/26
f 57/39/27 52/40/28 27/41/28 33/42/27
f 58/32/23 57/39/27 33/42/27 34/33/24
f 10/43/29 9/44/30 58/32/23 77/31/22 76/45/31
f 59/46/20 51/47/20 26/48/20 36/49/20
f 60/50/20 59/46/20 36/49/20 37/51/20
f 61/27/20 60/50/20 37/51/20 38/28/20
f 4/52/32 10/43/29 76/45/31 65/53/33
f 63/54/26 62/55/26 39/56/26 40/57/26
f 64/36/26 63/54/26 40/57/26 41/37/26
f 16/58/26 15/59/26 63/54/26 64/36/26
f 15/59/26 14/60/26 62/55/26 63/54/26
f 66/61/34 75/62/21 35/63/25 29/64/35
f 13/65/20 12/66/20 60/50/20 61/27/20
f 12/66/20 11/67/20 59/46/20 60/50/20
f 11/67/20 1/68/20 51/47/20 59/46/20
f 9/44/30 8/69/27 57/39/27 58/32/23
f 8/69/27 2/70/28 52/40/28 57/39/27
f 3/71/26 16/58/26 64/36/26 53/35/26
f 14/60/26 4/72/26 65/73/26 67/74/26 62/55/26
f 2/75/20 13/65/20 61/27/20 52/26/20
f 65/73/26 68/76/26 69/77/26 70/78/26 71/79/26 72/80/26 73/81/26 74/82/26 66/83/26 67/74/26
f 75/30/21 78/84/36 79/85/37 80/86/38 81/87/39 82/88/40 83/89/41 84/90/42 76/45/31 77/31/22
f 75/30/21 66/91/34 74/92/43 78/84/36
f 78/84/36 74/92/43 73/93/44 79/85/37
f 79/85/37 73/93/44 72/94/45 80/86/38
f 80/86/38 72/94/45 71/95/46 81/87/39
f 81/87/39 71/95/46 70/96/47 82/88/40
f 82/88/40 70/96/47 69/97/48 83/89/41
f 83/89/41 69/97/48 68/98/49 84/90/42
f 84/90/42 68/98/49 65/53/33 76/45/31
f 62/55/26 67/74/26 66/83/26 29/99/26 39/56/26
usemtl Back_Cover
f 48/100/50 39/101/51 29/102/52 35/103/53
f 38/104/54 42/105/54 33/106/55 27/107/55
f 42/105/54 45/108/56 34/109/57 33/106/55
f 45/108/56 48/100/50 35/103/53 34/109/57
f 31/110/58 30/111/59 50/112/60 47/113/61
f 47/113/61 50/112/60 49/114/62 46/115/63
f 46/115/63 49/114/62 48/100/50 45/108/56
f 32/116/64 31/110/58 47/113/61 44/117/64
f 44/117/64 47/113/61 46/115/63 43/118/65
f 43/118/65 46/115/63 45/108/56 42/105/54
f 26/119/64 32/116/64 44/117/64 36/120/64
f 36/120/64 44/117/64 43/118/65 37/121/65
f 37/121/65 43/118/65 42/105/54 38/104/54
f 30/111/59 28/122/66 41/123/67 50/112/60
f 50/112/60 41/123/67 40/124/68 49/114/62
f 49/114/62 40/124/68 39/101/51 48/100/50
usemtl Spine
f 51/125/69 56/126/70 32/127/70 26/128/69
f 54/129/71 53/130/72 28/131/72 30/132/73
f 55/133/74 54/129/71 30/132/73 31/134/75
f 56/126/70 55/133/74 31/134/75 32/127/70
f 7/135/76 6/136/77 55/133/77 56/126/76
f 6/136/77 5/137/78 54/129/78 55/133/77
f 5/137/78 3/138/79 53/130/79 54/129/78
f 1/139/80 7/135/76 56/126/76 51/125/80
