<?xml version="1.0"?>
<COLLADA xmlns="http://www.collada.org/2005/11/COLLADASchema" version="1.4.1">
	<asset>
		<contributor>
			<author>Assimp</author>
			<authoring_tool>Assimp Exporter</authoring_tool>
		</contributor>
		<created>2023-05-22T21:02:18</created>
		<modified>2023-05-22T21:02:18</modified>
		<unit name="meter" meter="0.010000" />
		<up_axis>Y_UP</up_axis>
	</asset>
	<library_effects>
		<effect id="lambert1-fx" name="lambert1">
			<profile_COMMON>
				<technique sid="standard">
					<phong>
						<diffuse>
							<color sid="diffuse">0.500000   0.500000   0.500000   1.000000</color>
						</diffuse>
					</phong>
				</technique>
			</profile_COMMON>
		</effect>
	</library_effects>
	<library_materials>
		<material id="lambert1" name="lambert1">
			<instance_effect url="#lambert1-fx"/>
		</material>
	</library_materials>
	<library_geometries>
		<geometry id="meshId0" name="meshId0_name" >
			<mesh>
				<source id="meshId0-positions" name="meshId0-positions">
					<float_array id="meshId0-positions-array" count="363"> 
						-0.500000 0.000000 0.500000 -0.400000 0.000000 0.500000 -0.400000 0.000000 0.400000 -0.500000 0.000000 0.400000 -0.300000 0.000000 0.500000 -0.300000 0.000000 0.400000 -0.200000 0.000000 0.500000 -0.200000 0.000000 0.400000 -0.100000 0.000000 0.500000 -0.100000 0.000000 0.400000 0.000000 0.000000 0.500000 0.000000 0.000000 0.400000 0.100000 0.000000 0.500000 0.100000 0.000000 0.400000 0.200000 0.000000 0.500000 0.200000 0.000000 0.400000 0.300000 0.000000 0.500000 0.300000 0.000000 0.400000 0.400000 0.000000 0.500000 0.400000 0.000000 0.400000 0.500000 0.000000 0.500000 0.500000 0.000000 0.400000 -0.400000 0.000000 0.300000 -0.500000 0.000000 0.300000 -0.300000 0.000000 0.300000 -0.200000 0.000000 0.300000 -0.100000 0.000000 0.300000 0.000000 0.000000 0.300000 0.100000 0.000000 0.300000 0.200000 0.000000 0.300000 0.300000 0.000000 0.300000 0.400000 0.000000 0.300000 0.500000 0.000000 0.300000 -0.400000 0.000000 0.200000 -0.500000 0.000000 0.200000 -0.300000 0.000000 0.200000 -0.200000 0.000000 0.200000 -0.100000 0.000000 0.200000 0.000000 0.000000 0.200000 0.100000 0.000000 0.200000 0.200000 0.000000 0.200000 0.300000 0.000000 0.200000 0.400000 0.000000 0.200000 0.500000 0.000000 0.200000 -0.400000 -0.000000 0.100000 -0.500000 -0.000000 0.100000 -0.300000 -0.000000 0.100000 -0.200000 -0.000000 0.100000 -0.100000 -0.000000 0.100000 0.000000 -0.000000 0.100000 0.100000 -0.000000 0.100000 0.200000 -0.000000 0.100000 0.300000 -0.000000 0.100000 0.400000 -0.000000 0.100000 0.500000 -0.000000 0.100000 -0.400000 0.000000 0.000000 -0.500000 0.000000 0.000000 -0.300000 0.000000 0.000000 -0.200000 0.000000 0.000000 -0.100000 0.000000 0.000000 0.000000 0.000000 0.000000 0.100000 0.000000 0.000000 0.200000 0.000000 0.000000 0.300000 0.000000 0.000000 
						0.400000 0.000000 0.000000 0.500000 0.000000 0.000000 -0.400000 0.000000 -0.100000 -0.500000 0.000000 -0.100000 -0.300000 0.000000 -0.100000 -0.200000 0.000000 -0.100000 -0.100000 0.000000 -0.100000 0.000000 0.000000 -0.100000 0.100000 0.000000 -0.100000 0.200000 0.000000 -0.100000 0.300000 0.000000 -0.100000 0.400000 0.000000 -0.100000 0.500000 0.000000 -0.100000 -0.400000 0.000000 -0.200000 -0.500000 0.000000 -0.200000 -0.300000 0.000000 -0.200000 -0.200000 0.000000 -0.200000 -0.100000 0.000000 -0.200000 0.000000 0.000000 -0.200000 0.100000 0.000000 -0.200000 0.200000 0.000000 -0.200000 0.300000 0.000000 -0.200000 0.400000 0.000000 -0.200000 0.500000 0.000000 -0.200000 -0.400000 0.000000 -0.300000 -0.500000 0.000000 -0.300000 -0.300000 0.000000 -0.300000 -0.200000 0.000000 -0.300000 -0.100000 0.000000 -0.300000 0.000000 0.000000 -0.300000 0.100000 0.000000 -0.300000 0.200000 0.000000 -0.300000 0.300000 0.000000 -0.300000 0.400000 0.000000 -0.300000 0.500000 0.000000 -0.300000 -0.400000 -0.000000 -0.400000 -0.500000 -0.000000 -0.400000 -0.300000 -0.000000 -0.400000 -0.200000 -0.000000 -0.400000 -0.100000 -0.000000 -0.400000 0.000000 -0.000000 -0.400000 0.100000 -0.000000 -0.400000 0.200000 -0.000000 -0.400000 0.300000 -0.000000 -0.400000 0.400000 -0.000000 -0.400000 0.500000 -0.000000 -0.400000 -0.400000 0.000000 -0.500000 -0.500000 0.000000 -0.500000 -0.300000 0.000000 -0.500000 -0.200000 0.000000 -0.500000 -0.100000 0.000000 -0.500000 0.000000 0.000000 -0.500000 0.100000 0.000000 -0.500000 0.200000 0.000000 -0.500000 0.300000 0.000000 -0.500000 0.400000 0.000000 -0.500000 0.500000 0.000000 -0.500000 
					</float_array>
					<technique_common>
						<accessor count="121" offset="0" source="#meshId0-positions-array" stride="3">
							<param name="X" type="float" />
							<param name="Y" type="float" />
							<param name="Z" type="float" />
						</accessor>
					</technique_common>
				</source>
				<source id="meshId0-normals" name="meshId0-normals">
					<float_array id="meshId0-normals-array" count="363"> 
						0.000000 1.000000 -0.000000 0.000000 1.000000 -0.000000 0.000000 1.000000 -0.000000 0.000000 1.000000 -0.000000 0.000000 1.000000 -0.000000 0.000000 1.000000 -0.000000 0.000000 1.000000 -0.000000 0.000000 1.000000 -0.000000 0.000000 1.000000 -0.000000 0.000000 1.000000 -0.000000 0.000000 1.000000 -0.000000 0.000000 1.000000 -0.000000 0.000000 1.000000 -0.000000 0.000000 1.000000 -0.000000 0.000000 1.000000 -0.000000 0.000000 1.000000 -0.000000 0.000000 1.000000 -0.000000 0.000000 1.000000 -0.000000 0.000000 1.000000 -0.000000 0.000000 1.000000 -0.000000 0.000000 1.000000 -0.000000 0.000000 1.000000 -0.000000 0.000000 1.000000 -0.000000 0.000000 1.000000 -0.000000 0.000000 1.000000 -0.000000 0.000000 1.000000 -0.000000 0.000000 1.000000 -0.000000 0.000000 1.000000 -0.000000 0.000000 1.000000 -0.000000 0.000000 1.000000 -0.000000 0.000000 1.000000 -0.000000 0.000000 1.000000 -0.000000 0.000000 1.000000 -0.000000 0.000000 1.000000 -0.000000 0.000000 1.000000 -0.000000 0.000000 1.000000 -0.000000 0.000000 1.000000 -0.000000 0.000000 1.000000 -0.000000 0.000000 1.000000 -0.000000 0.000000 1.000000 -0.000000 0.000000 1.000000 -0.000000 0.000000 1.000000 -0.000000 0.000000 1.000000 -0.000000 0.000000 1.000000 -0.000000 0.000000 1.000000 -0.000000 0.000000 1.000000 -0.000000 0.000000 1.000000 -0.000000 0.000000 1.000000 -0.000000 0.000000 1.000000 -0.000000 0.000000 1.000000 -0.000000 0.000000 1.000000 -0.000000 0.000000 1.000000 -0.000000 0.000000 1.000000 -0.000000 0.000000 1.000000 -0.000000 0.000000 1.000000 -0.000000 0.000000 1.000000 -0.000000 0.000000 1.000000 -0.000000 0.000000 1.000000 -0.000000 0.000000 1.000000 -0.000000 0.000000 1.000000 -0.000000 0.000000 1.000000 -0.000000 0.000000 1.000000 -0.000000 0.000000 1.000000 -0.000000 0.000000 1.000000 -0.000000 
						0.000000 1.000000 -0.000000 0.000000 1.000000 -0.000000 0.000000 1.000000 -0.000000 0.000000 1.000000 -0.000000 0.000000 1.000000 -0.000000 0.000000 1.000000 -0.000000 0.000000 1.000000 -0.000000 0.000000 1.000000 -0.000000 0.000000 1.000000 -0.000000 0.000000 1.000000 -0.000000 0.000000 1.000000 -0.000000 0.000000 1.000000 -0.000000 0.000000 1.000000 -0.000000 0.000000 1.000000 -0.000000 0.000000 1.000000 -0.000000 0.000000 1.000000 -0.000000 0.000000 1.000000 -0.000000 0.000000 1.000000 -0.000000 0.000000 1.000000 -0.000000 0.000000 1.000000 -0.000000 0.000000 1.000000 -0.000000 0.000000 1.000000 -0.000000 0.000000 1.000000 -0.000000 0.000000 1.000000 -0.000000 0.000000 1.000000 -0.000000 0.000000 1.000000 -0.000000 0.000000 1.000000 -0.000000 0.000000 1.000000 -0.000000 0.000000 1.000000 -0.000000 0.000000 1.000000 -0.000000 0.000000 1.000000 -0.000000 0.000000 1.000000 -0.000000 0.000000 1.000000 -0.000000 0.000000 1.000000 -0.000000 0.000000 1.000000 -0.000000 0.000000 1.000000 -0.000000 0.000000 1.000000 -0.000000 0.000000 1.000000 -0.000000 0.000000 1.000000 -0.000000 0.000000 1.000000 -0.000000 0.000000 1.000000 -0.000000 0.000000 1.000000 -0.000000 0.000000 1.000000 -0.000000 0.000000 1.000000 -0.000000 0.000000 1.000000 -0.000000 0.000000 1.000000 -0.000000 0.000000 1.000000 -0.000000 0.000000 1.000000 -0.000000 0.000000 1.000000 -0.000000 0.000000 1.000000 -0.000000 0.000000 1.000000 -0.000000 0.000000 1.000000 -0.000000 0.000000 1.000000 -0.000000 0.000000 1.000000 -0.000000 0.000000 1.000000 -0.000000 0.000000 1.000000 -0.000000 0.000000 1.000000 -0.000000 
					</float_array>
					<technique_common>
						<accessor count="121" offset="0" source="#meshId0-normals-array" stride="3">
							<param name="X" type="float" />
							<param name="Y" type="float" />
							<param name="Z" type="float" />
						</accessor>
					</technique_common>
				</source>
				<source id="meshId0-tangents" name="meshId0-tangents">
					<float_array id="meshId0-tangents-array" count="363"> 
						1.000000 0.000000 0.000000 1.000000 0.000000 0.000000 1.000000 0.000000 0.000000 1.000000 0.000000 0.000000 1.000000 0.000000 0.000000 1.000000 0.000000 0.000000 1.000000 0.000000 0.000000 1.000000 0.000000 0.000000 1.000000 0.000000 0.000000 1.000000 0.000000 0.000000 1.000000 0.000000 0.000000 1.000000 0.000000 0.000000 1.000000 0.000000 0.000000 1.000000 0.000000 0.000000 1.000000 0.000000 0.000000 1.000000 0.000000 0.000000 1.000000 0.000000 0.000000 1.000000 0.000000 0.000000 1.000000 0.000000 0.000000 1.000000 0.000000 0.000000 1.000000 0.000000 0.000000 1.000000 0.000000 0.000000 1.000000 0.000000 0.000000 1.000000 0.000000 0.000000 1.000000 0.000000 0.000000 1.000000 0.000000 0.000000 1.000000 0.000000 0.000000 1.000000 0.000000 0.000000 1.000000 0.000000 0.000000 1.000000 0.000000 0.000000 1.000000 0.000000 0.000000 1.000000 0.000000 0.000000 1.000000 0.000000 0.000000 1.000000 0.000000 0.000000 1.000000 0.000000 0.000000 1.000000 0.000000 0.000000 1.000000 0.000000 0.000000 1.000000 0.000000 0.000000 1.000000 0.000000 0.000000 1.000000 0.000000 0.000000 1.000000 0.000000 0.000000 1.000000 0.000000 0.000000 1.000000 0.000000 0.000000 1.000000 0.000000 0.000000 1.000000 0.000000 0.000000 1.000000 0.000000 0.000000 1.000000 0.000000 0.000000 1.000000 0.000000 0.000000 1.000000 0.000000 0.000000 1.000000 0.000000 0.000000 1.000000 0.000000 0.000000 1.000000 0.000000 0.000000 1.000000 0.000000 0.000000 1.000000 0.000000 0.000000 1.000000 0.000000 0.000000 1.000000 0.000000 0.000000 1.000000 0.000000 0.000000 1.000000 0.000000 0.000000 1.000000 0.000000 0.000000 1.000000 0.000000 0.000000 1.000000 0.000000 0.000000 1.000000 0.000000 0.000000 1.000000 0.000000 0.000000 1.000000 0.000000 0.000000 
						1.000000 0.000000 0.000000 1.000000 0.000000 0.000000 1.000000 0.000000 0.000000 1.000000 0.000000 0.000000 1.000000 0.000000 0.000000 1.000000 0.000000 0.000000 1.000000 0.000000 0.000000 1.000000 0.000000 0.000000 1.000000 0.000000 0.000000 1.000000 0.000000 0.000000 1.000000 0.000000 0.000000 1.000000 0.000000 0.000000 1.000000 0.000000 0.000000 1.000000 0.000000 0.000000 1.000000 0.000000 0.000000 1.000000 0.000000 0.000000 1.000000 0.000000 0.000000 1.000000 0.000000 0.000000 1.000000 0.000000 0.000000 1.000000 0.000000 0.000000 1.000000 0.000000 0.000000 1.000000 0.000000 0.000000 1.000000 0.000000 0.000000 1.000000 0.000000 0.000000 1.000000 0.000000 0.000000 1.000000 0.000000 0.000000 1.000000 0.000000 0.000000 1.000000 0.000000 0.000000 1.000000 0.000000 0.000000 1.000000 0.000000 0.000000 1.000000 0.000000 0.000000 1.000000 0.000000 0.000000 1.000000 0.000000 0.000000 1.000000 0.000000 0.000000 1.000000 0.000000 0.000000 1.000000 0.000000 0.000000 1.000000 0.000000 0.000000 1.000000 0.000000 0.000000 1.000000 0.000000 0.000000 1.000000 0.000000 0.000000 1.000000 0.000000 0.000000 1.000000 0.000000 0.000000 1.000000 0.000000 0.000000 1.000000 0.000000 0.000000 1.000000 0.000000 0.000000 1.000000 0.000000 0.000000 1.000000 0.000000 0.000000 1.000000 0.000000 0.000000 1.000000 0.000000 0.000000 1.000000 0.000000 0.000000 1.000000 0.000000 0.000000 1.000000 0.000000 0.000000 1.000000 0.000000 0.000000 1.000000 0.000000 0.000000 1.000000 0.000000 0.000000 1.000000 0.000000 0.000000 1.000000 0.000000 0.000000 
					</float_array>
					<technique_common>
						<accessor count="121" offset="0" source="#meshId0-tangents-array" stride="3">
							<param name="X" type="float" />
							<param name="Y" type="float" />
							<param name="Z" type="float" />
						</accessor>
					</technique_common>
				</source>
				<source id="meshId0-bitangents" name="meshId0-bitangents">
					<float_array id="meshId0-bitangents-array" count="363"> 
						0.000000 0.000000 -1.000000 0.000000 0.000000 -1.000000 0.000000 0.000000 -1.000000 0.000000 0.000000 -1.000000 0.000000 0.000000 -1.000000 0.000000 0.000000 -1.000000 0.000000 0.000000 -1.000000 0.000000 0.000000 -1.000000 0.000000 0.000000 -1.000000 0.000000 0.000000 -1.000000 0.000000 0.000000 -1.000000 0.000000 0.000000 -1.000000 0.000000 0.000000 -1.000000 0.000000 0.000000 -1.000000 0.000000 0.000000 -1.000000 0.000000 0.000000 -1.000000 0.000000 0.000000 -1.000000 0.000000 0.000000 -1.000000 0.000000 0.000000 -1.000000 0.000000 0.000000 -1.000000 0.000000 0.000000 -1.000000 0.000000 0.000000 -1.000000 0.000000 0.000000 -1.000000 0.000000 0.000000 -1.000000 0.000000 0.000000 -1.000000 0.000000 0.000000 -1.000000 0.000000 0.000000 -1.000000 0.000000 0.000000 -1.000000 0.000000 0.000000 -1.000000 0.000000 0.000000 -1.000000 0.000000 0.000000 -1.000000 0.000000 0.000000 -1.000000 0.000000 0.000000 -1.000000 0.000000 0.000000 -1.000000 0.000000 0.000000 -1.000000 0.000000 0.000000 -1.000000 0.000000 0.000000 -1.000000 0.000000 0.000000 -1.000000 0.000000 0.000000 -1.000000 0.000000 0.000000 -1.000000 0.000000 0.000000 -1.000000 0.000000 0.000000 -1.000000 0.000000 0.000000 -1.000000 0.000000 0.000000 -1.000000 0.000000 0.000000 -1.000000 0.000000 0.000000 -1.000000 0.000000 0.000000 -1.000000 0.000000 0.000000 -1.000000 0.000000 0.000000 -1.000000 0.000000 0.000000 -1.000000 0.000000 0.000000 -1.000000 0.000000 0.000000 -1.000000 0.000000 0.000000 -1.000000 0.000000 0.000000 -1.000000 0.000000 0.000000 -1.000000 0.000000 0.000000 -1.000000 0.000000 0.000000 -1.000000 0.000000 0.000000 -1.000000 0.000000 0.000000 -1.000000 0.000000 0.000000 -1.000000 0.000000 0.000000 -1.000000 0.000000 0.000000 -1.000000 0.000000 0.000000 -1.000000 0.000000 0.000000 -1.000000 
						0.000000 0.000000 -1.000000 0.000000 0.000000 -1.000000 0.000000 0.000000 -1.000000 0.000000 0.000000 -1.000000 0.000000 0.000000 -1.000000 0.000000 0.000000 -1.000000 0.000000 0.000000 -1.000000 0.000000 0.000000 -1.000000 0.000000 0.000000 -1.000000 0.000000 0.000000 -1.000000 0.000000 0.000000 -1.000000 0.000000 0.000000 -1.000000 0.000000 0.000000 -1.000000 0.000000 0.000000 -1.000000 0.000000 0.000000 -1.000000 0.000000 0.000000 -1.000000 0.000000 0.000000 -1.000000 0.000000 0.000000 -1.000000 0.000000 0.000000 -1.000000 0.000000 0.000000 -1.000000 0.000000 0.000000 -1.000000 0.000000 0.000000 -1.000000 0.000000 0.000000 -1.000000 0.000000 0.000000 -1.000000 0.000000 0.000000 -1.000000 0.000000 0.000000 -1.000000 0.000000 0.000000 -1.000000 0.000000 0.000000 -1.000000 0.000000 0.000000 -1.000000 0.000000 0.000000 -1.000000 0.000000 0.000000 -1.000000 0.000000 0.000000 -1.000000 0.000000 0.000000 -1.000000 0.000000 0.000000 -1.000000 0.000000 0.000000 -1.000000 0.000000 0.000000 -1.000000 0.000000 0.000000 -1.000000 0.000000 0.000000 -1.000000 0.000000 0.000000 -1.000000 0.000000 0.000000 -1.000000 0.000000 0.000000 -1.000000 0.000000 0.000000 -1.000000 0.000000 0.000000 -1.000000 0.000000 0.000000 -1.000000 0.000000 0.000000 -1.000000 0.000000 0.000000 -1.000000 0.000000 0.000000 -1.000000 0.000000 0.000000 -1.000000 0.000000 0.000000 -1.000000 0.000000 0.000000 -1.000000 0.000000 0.000000 -1.000000 0.000000 0.000000 -1.000000 0.000000 0.000000 -1.000000 0.000000 0.000000 -1.000000 0.000000 0.000000 -1.000000 0.000000 0.000000 -1.000000 0.000000 0.000000 -1.000000 
					</float_array>
					<technique_common>
						<accessor count="121" offset="0" source="#meshId0-bitangents-array" stride="3">
							<param name="X" type="float" />
							<param name="Y" type="float" />
							<param name="Z" type="float" />
						</accessor>
					</technique_common>
				</source>
				<source id="meshId0-tex0" name="meshId0-tex0">
					<float_array id="meshId0-tex0-array" count="242"> 
						0.000000 0.000000 0.100000 0.000000 0.100000 0.100000 0.000000 0.100000 0.200000 0.000000 0.200000 0.100000 0.300000 0.000000 0.300000 0.100000 0.400000 0.000000 0.400000 0.100000 0.500000 0.000000 0.500000 0.100000 0.600000 0.000000 0.600000 0.100000 0.700000 0.000000 0.700000 0.100000 0.800000 0.000000 0.800000 0.100000 0.900000 0.000000 0.900000 0.100000 1.000000 0.000000 1.000000 0.100000 0.100000 0.200000 0.000000 0.200000 0.200000 0.200000 0.300000 0.200000 0.400000 0.200000 0.500000 0.200000 0.600000 0.200000 0.700000 0.200000 0.800000 0.200000 0.900000 0.200000 1.000000 0.200000 0.100000 0.300000 0.000000 0.300000 0.200000 0.300000 0.300000 0.300000 0.400000 0.300000 0.500000 0.300000 0.600000 0.300000 0.700000 0.300000 0.800000 0.300000 0.900000 0.300000 1.000000 0.300000 0.100000 0.400000 0.000000 0.400000 0.200000 0.400000 0.300000 0.400000 0.400000 0.400000 0.500000 0.400000 0.600000 0.400000 0.700000 0.400000 0.800000 0.400000 0.900000 0.400000 1.000000 0.400000 0.100000 0.500000 0.000000 0.500000 0.200000 0.500000 0.300000 0.500000 0.400000 0.500000 0.500000 0.500000 0.600000 0.500000 0.700000 0.500000 0.800000 0.500000 
						0.900000 0.500000 1.000000 0.500000 0.100000 0.600000 0.000000 0.600000 0.200000 0.600000 0.300000 0.600000 0.400000 0.600000 0.500000 0.600000 0.600000 0.600000 0.700000 0.600000 0.800000 0.600000 0.900000 0.600000 1.000000 0.600000 0.100000 0.700000 0.000000 0.700000 0.200000 0.700000 0.300000 0.700000 0.400000 0.700000 0.500000 0.700000 0.600000 0.700000 0.700000 0.700000 0.800000 0.700000 0.900000 0.700000 1.000000 0.700000 0.100000 0.800000 0.000000 0.800000 0.200000 0.800000 0.300000 0.800000 0.400000 0.800000 0.500000 0.800000 0.600000 0.800000 0.700000 0.800000 0.800000 0.800000 0.900000 0.800000 1.000000 0.800000 0.100000 0.900000 0.000000 0.900000 0.200000 0.900000 0.300000 0.900000 0.400000 0.900000 0.500000 0.900000 0.600000 0.900000 0.700000 0.900000 0.800000 0.900000 0.900000 0.900000 1.000000 0.900000 0.100000 1.000000 0.000000 1.000000 0.200000 1.000000 0.300000 1.000000 0.400000 1.000000 0.500000 1.000000 0.600000 1.000000 0.700000 1.000000 0.800000 1.000000 0.900000 1.000000 1.000000 1.000000 
					</float_array>
					<technique_common>
						<accessor count="121" offset="0" source="#meshId0-tex0-array" stride="2">
							<param name="S" type="float" />
							<param name="T" type="float" />
						</accessor>
					</technique_common>
				</source>
				<vertices id="meshId0-vertices">
					<input semantic="POSITION" source="#meshId0-positions" />
				</vertices>
				<polylist count="200" material="defaultMaterial">
					<input offset="0" semantic="VERTEX" source="#meshId0-vertices" />
					<input offset="0" semantic="NORMAL" source="#meshId0-normals" />
					<input offset="0" semantic="TANGENT" source="#meshId0-tangents" />
					<input offset="0" semantic="BINORMAL" source="#meshId0-bitangents" />
					<input offset="0" semantic="TEXCOORD" source="#meshId0-tex0" set="0" />
					<vcount>
						3 3 3 3 3 3 3 3 3 3 3 3 3 3 3 3 3 3 3 3 3 3 3 3 3 3 3 3 3 3 3 3 3 3 3 3 3 3 3 3 3 3 3 3 3 3 3 3 3 3 3 3 3 3 3 3 3 3 3 3 3 3 3 3 
						3 3 3 3 3 3 3 3 3 3 3 3 3 3 3 3 3 3 3 3 3 3 3 3 3 3 3 3 3 3 3 3 3 3 3 3 3 3 3 3 3 3 3 3 3 3 3 3 3 3 3 3 3 3 3 3 3 3 3 3 3 3 3 3 
						3 3 3 3 3 3 3 3 3 3 3 3 3 3 3 3 3 3 3 3 3 3 3 3 3 3 3 3 3 3 3 3 3 3 3 3 3 3 3 3 3 3 3 3 3 3 3 3 3 3 3 3 3 3 3 3 3 3 3 3 3 3 3 3 
						3 3 3 3 3 3 3 3 
					</vcount>
					<p>
						3 0 1 1 2 3 2 1 4 4 5 2 5 4 6 6 7 5 7 6 8 8 9 7 9 8 10 10 11 9 11 10 12 12 13 11 13 12 14 14 15 13 15 14 16 16 17 15 17 16 18 18 19 17 19 18 20 20 21 19 23 3 2 2 22 23 22 2 5 5 24 22 24 5 7 7 25 24 25 7 9 9 26 25 26 9 11 11 27 26 27 11 13 13 28 27 28 13 15 15 29 28 29 15 17 17 30 29 30 17 19 19 31 30 31 19 21 21 32 31 34 23 22 22 33 34 33 22 24 24 35 33 35 24 25 25 36 35 36 25 26 26 37 36 37 26 27 27 38 37 38 27 28 28 39 38 39 28 29 29 40 39 40 29 30 30 41 40 41 30 31 31 42 41 42 31 32 32 43 42 45 34 33 33 44 45 44 33 35 35 46 44 
						46 35 36 36 47 46 47 36 37 37 48 47 48 37 38 38 49 48 49 38 39 39 50 49 50 39 40 40 51 50 51 40 41 41 52 51 52 41 42 42 53 52 53 42 43 43 54 53 56 45 44 44 55 56 55 44 46 46 57 55 57 46 47 47 58 57 58 47 48 48 59 58 59 48 49 49 60 59 60 49 50 50 61 60 61 50 51 51 62 61 62 51 52 52 63 62 63 52 53 53 64 63 64 53 54 54 65 64 67 56 55 55 66 67 66 55 57 57 68 66 68 57 58 58 69 68 69 58 59 59 70 69 70 59 60 60 71 70 71 60 61 61 72 71 72 61 62 62 73 72 73 62 63 63 74 73 74 63 64 64 75 74 75 64 65 65 76 75 78 67 66 66 77 78 77 66 68 68 79 77 79 68 69 69 80 79 80 69 70 70 81 80 
						81 70 71 71 82 81 82 71 72 72 83 82 83 72 73 73 84 83 84 73 74 74 85 84 85 74 75 75 86 85 86 75 76 76 87 86 89 78 77 77 88 89 88 77 79 79 90 88 90 79 80 80 91 90 91 80 81 81 92 91 92 81 82 82 93 92 93 82 83 83 94 93 94 83 84 84 95 94 95 84 85 85 96 95 96 85 86 86 97 96 97 86 87 87 98 97 100 89 88 88 99 100 99 88 90 90 101 99 101 90 91 91 102 101 102 91 92 92 103 102 103 92 93 93 104 103 104 93 94 94 105 104 105 94 95 95 106 105 106 95 96 96 107 106 107 96 97 97 108 107 108 97 98 98 109 108 111 100 99 99 110 111 110 99 101 101 112 110 112 101 102 102 113 112 113 102 103 103 114 113 114 103 104 104 115 114 115 104 105 105 116 115 
						116 105 106 106 117 116 117 106 107 107 118 117 118 107 108 108 119 118 119 108 109 109 120 119 
					</p>
				</polylist>
			</mesh>
		</geometry>
	</library_geometries>
	<library_visual_scenes>
		<visual_scene id="RootNode" name="RootNode">
			<node id="pPlane1" name="pPlane1">
				<matrix>100.000000 0.000000 0.000000 -0.000000 0.000000 0.000000 -140.000000 0.000000 0.000000 102.250893 0.000000 0.000000 0.000000 0.000000 0.000000 1.000000</matrix>
				<instance_geometry url="#meshId0">
					<bind_material>
						<technique_common>
							<instance_material symbol="defaultMaterial" target="#lambert1" />
						</technique_common>
					</bind_material>
				</instance_geometry>
			</node>
		</visual_scene>
	</library_visual_scenes>
	<scene>
		<instance_visual_scene url="#RootNode" />
	</scene>
</COLLADA>
