<?xml version="1.0"?>
<COLLADA xmlns="http://www.collada.org/2005/11/COLLADASchema" version="1.4.1">
	<asset>
		<contributor>
			<author>Assimp</author>
			<authoring_tool>Assimp Exporter</authoring_tool>
		</contributor>
		<created>2025-05-23T23:09:36</created>
		<modified>2025-05-23T23:09:36</modified>
		<unit name="meter" meter="0.010000" />
		<up_axis>Y_UP</up_axis>
	</asset>
	<library_effects>
		<effect id="Material_001-fx" name="Material_001">
			<profile_COMMON>
				<technique sid="standard">
					<phong>
						<diffuse>
							<color sid="diffuse">0.800000   0.800000   0.800000   1.000000</color>
						</diffuse>
					</phong>
				</technique>
			</profile_COMMON>
		</effect>
	</library_effects>
	<library_materials>
		<material id="Material_001" name="Material_001">
			<instance_effect url="#Material_001-fx"/>
		</material>
	</library_materials>
	<library_geometries>
		<geometry id="meshId0" name="meshId0_name" >
			<mesh>
				<source id="meshId0-positions" name="meshId0-positions">
					<float_array id="meshId0-positions-array" count="1467"> 
						1.417060 5.898990 11.246199 2.246010 3.946070 10.489799 3.714020 5.005080 9.320938 2.824170 6.524260 10.037399 0.344890 4.363050 12.516100 0.864479 2.848229 11.731798 3.190370 2.182020 9.645079 4.683070 3.285970 8.673119 5.138820 6.135720 8.165209 4.206439 7.931550 9.038450 2.605490 9.126090 9.279020 1.635770 7.355789 10.106499 -0.872340 6.355549 11.402899 -0.145966 7.885429 9.822319 -1.323160 4.451610 11.768700 -1.320000 2.375870 11.765198 1.425800 1.139730 10.778400 4.421529 0.473772 9.375849 6.072519 1.699140 8.544380 5.742400 4.338490 7.249630 5.670259 7.117869 6.267330 4.853310 9.050029 7.104050 3.281929 10.625198 7.732610 0.576843 9.931299 9.218239 -2.114740 8.256979 9.318069 -2.901309 6.726149 10.910000 -3.258860 4.459160 11.187099 -3.403520 2.103970 11.060299 -0.762242 -0.035441 10.882799 2.878070 -0.872271 10.285799 6.049480 -1.037650 9.426880 7.521769 -0.068241 8.795769 6.981500 2.740330 6.855200 6.407869 5.288000 5.511310 5.501110 7.655169 4.153320 4.542759 9.561960 4.910510 3.168940 11.236699 5.612081 1.242240 11.654397 7.997470 -1.471230 10.317200 8.693260 -4.101130 8.669529 9.080790 -4.781420 6.792880 10.048800 -4.996920 4.447790 10.078699 -5.166090 2.054200 9.257780 -3.066530 -0.130571 10.709099 0.396661 -1.414060 10.916800 4.178790 -1.977170 9.566860 7.165669 -2.907150 9.110210 8.794519 -1.983029 8.454279 7.027810 3.442770 5.027110 5.609290 5.690400 3.239810 5.108550 7.962490 2.195880 3.825830 9.741399 2.916910 2.465410 11.338199 3.619620 1.443150 12.674199 6.159719 -1.016640 12.323299 7.900380 -3.439850 10.421599 7.865349 -6.062930 8.824610 8.427549 -6.426179 6.692790 8.917158 -6.927760 4.731420 9.463959 -6.964729 2.522050 9.272280 -4.744299 -0.483948 9.467699 -1.051450 -1.834780 10.925901 -3.066110 -2.310900 10.979200 1.179130 -3.351500 10.706200 
						2.911700 -2.674960 9.982309 5.399390 -3.769090 9.417030 8.069519 -4.864349 8.932190 10.006899 -4.021110 8.332460 9.812030 -1.044900 7.240960 8.984279 0.214452 7.636600 8.801419 1.484350 6.252110 8.542679 1.910480 4.414460 5.867459 3.849730 3.321040 5.408420 6.257760 1.782990 3.825830 9.741399 2.916910 5.108550 7.962490 2.195880 3.312380 7.745239 0.810875 2.469540 9.507630 1.300710 2.465410 11.338199 3.619620 1.499130 11.382999 1.873540 0.813089 12.513500 4.242559 -0.818604 13.500599 6.693099 -2.767650 12.745999 6.882319 -5.287299 10.148297 6.961900 -8.032959 8.587539 7.229139 -8.076409 6.634520 7.707150 -8.580440 4.683259 8.148029 -8.833790 2.680310 8.252729 -6.820930 1.118510 8.915730 -6.648769 -0.986228 8.849979 -4.646410 -2.686410 9.858490 -2.647000 -4.367509 10.737600 -0.718774 -3.871580 10.781898 1.698340 -5.301980 9.959530 4.098259 -4.877129 9.689421 5.976980 -5.227539 9.557608 8.566390 -7.021430 8.446289 10.403600 -6.154469 7.260310 10.762699 -3.072670 6.525370 10.523799 -0.041126 5.730380 10.387299 0.521365 3.293670 4.193620 3.691490 1.892800 4.229829 5.613020 1.619130 5.408420 6.257760 1.782990 4.229829 5.613020 1.619130 1.207400 7.513790 0.647575 1.283880 9.530459 -0.451546 0.510168 11.682400 0.003187 0.813089 12.513500 4.242559 -0.045014 12.745200 2.336790 -0.916671 13.462000 4.613620 -4.672500 11.599899 5.551180 -7.125799 9.875440 5.457610 -8.901210 8.077190 6.201999 -9.204659 6.288390 5.916110 -9.557070 4.515790 6.196300 -9.482969 2.564810 6.189200 -8.658610 0.682803 8.016489 -8.317639 -1.343090 7.758170 -6.415939 -3.059120 8.981169 -4.293760 -4.719080 10.068201 -2.069420 -6.136149 9.973270 -0.334675 -5.720310 9.816629 1.970100 -7.258881 9.072428 4.046840 -7.109559 9.021509 6.313829 -7.295990 8.829340 8.384229 -8.930290 6.926070 9.996099 -7.798349 5.634610 
						11.562899 -5.092220 5.675119 11.494800 -1.978780 4.899700 11.892900 -0.795911 3.238330 8.757949 0.383970 1.721550 7.400430 1.183230 2.708010 5.883049 2.192370 2.900050 4.847290 1.909430 2.027100 4.193620 3.691490 1.892800 2.420210 3.344530 0.944622 1.782340 5.416100 0.529067 -0.362398 7.056789 -1.008040 1.037330 8.203309 -1.978940 0.532074 10.535499 -2.100680 -0.453971 11.921899 -1.062640 -1.101390 12.621799 0.476644 -0.916671 13.462000 4.613620 -1.542510 13.351399 3.395640 -2.498580 13.385999 4.694830 -4.001800 12.604100 3.788290 -6.174660 10.995699 4.477010 -8.744010 8.892809 4.639060 -9.570429 4.345950 4.037260 -10.031499 2.457720 4.071119 -9.655489 0.549533 6.145360 -9.507799 -1.569750 6.071149 -7.809939 -3.387770 7.596159 -6.078679 -5.188879 9.151009 -3.517370 -6.606140 9.732290 -2.432220 -7.644740 8.953119 0.235680 -7.926660 8.838900 1.847590 -8.269520 8.050800 3.905660 -8.613190 7.621660 6.090400 -8.736930 7.304319 -9.679669 6.200870 4.024850 7.518279 -9.693358 4.802730 9.077960 -8.822219 3.749130 11.501198 -6.966660 4.279700 12.407700 -3.917290 3.995640 12.787899 -2.722410 2.158260 11.282099 -0.200980 1.861880 10.054500 0.282444 0.219738 7.400159 -0.204219 0.089637 5.880819 0.218021 1.540490 4.847290 1.909430 2.027100 3.175800 1.350980 0.919014 0.631488 2.838060 0.220450 -0.282494 4.996339 0.116300 -0.087513 5.921350 -2.867339 1.632010 6.987170 -3.362870 1.441230 9.404189 -3.273710 -0.651831 10.986300 -3.662859 -1.928410 11.911499 -2.349510 -2.877789 12.668299 2.111160 -2.498580 13.385999 4.694830 -4.001800 12.604100 3.788290 -5.380720 11.833099 2.769730 -7.219649 10.493100 3.769390 -8.405070 9.390920 2.845130 -9.785968 4.367430 1.882900 -10.152599 2.412880 1.905790 -9.969230 0.452129 4.051899 -9.730669 -1.609990 3.989180 -8.841269 -3.594620 5.857830 -7.107920 -5.372460 7.389939 
						-4.970819 -6.847170 8.551069 -2.522790 -9.028080 7.606569 -0.701644 -9.328411 7.213429 1.277930 -9.486598 6.423409 3.327569 -9.596019 5.977479 5.403379 -9.753989 5.489130 -9.856669 6.335499 1.954770 6.413070 -9.597929 2.787010 8.118749 -9.561049 1.922030 10.469400 -8.151389 2.604330 12.245099 -5.868159 2.689590 12.198700 -4.620830 1.063800 11.842399 -1.808760 0.527096 10.731400 -1.039230 -0.997055 8.692939 0.412219 -1.158580 5.880819 0.218021 1.540490 7.400159 -0.204219 0.089637 6.020330 -0.313926 -1.624040 4.347589 -0.274466 0.058184 1.819830 1.190580 -0.337373 -0.412803 2.660380 -1.500940 -0.974503 4.215300 -1.871650 0.657533 4.618060 -4.590190 2.563119 5.698300 -4.472040 2.562340 8.213179 -4.343910 0.399430 9.624469 -4.693009 -2.281970 10.482700 -4.726759 -3.564300 11.469300 -3.469110 -3.167610 12.275299 -0.724324 -4.370689 12.292000 0.986144 -5.380720 11.833099 2.769730 -6.920350 11.375699 1.839530 -8.372719 10.309799 0.950186 -9.482229 8.148910 2.213550 -9.660900 7.834610 3.722780 -9.953659 4.470900 -0.235034 -9.919849 2.397150 -0.214722 -10.123899 0.383698 1.932830 -10.009000 -1.646370 1.934740 -9.419309 -3.681040 3.919300 -8.312059 -5.663239 5.754660 -6.516719 -7.396919 7.316050 -3.689369 -8.128650 7.935639 -3.408570 -9.151059 5.806089 -1.499070 -9.457699 5.148989 0.487027 -9.784558 4.583010 2.495630 -9.885159 4.078639 4.478280 -9.550200 3.493150 -10.431999 6.677120 -0.040205 5.361540 -9.672429 0.844155 7.329279 -9.879070 0.716112 10.015300 -8.951309 0.907417 11.015098 -7.324759 1.485070 11.784700 -6.449560 -0.074279 11.964999 -3.532530 -0.662479 11.008699 -2.528910 -2.257110 9.752079 -0.115653 -2.453619 8.692939 0.412219 -1.158580 7.497489 0.951323 -2.539850 4.389630 1.127720 -2.585240 3.168660 0.043969 -1.393520 1.062100 1.303180 -1.746510 -0.052368 3.322700 -2.860359 2.317710 3.063990 -4.627000 
						3.829619 4.341760 -4.866960 3.780540 6.996879 -5.248700 1.627400 8.499349 -5.880240 -0.990125 9.633700 -6.008950 -3.869680 10.059800 -5.858920 -5.146379 10.493599 -4.367100 -4.816520 11.776700 -1.817740 -5.988580 11.791299 -0.052022 -6.920350 11.375699 1.839530 -7.595889 10.834299 -0.983698 -8.372719 10.309799 0.950186 -9.031719 8.456509 0.334459 -9.919849 2.397150 -0.214722 -9.953659 4.470900 -0.235034 -9.960799 4.492199 -2.376820 -9.734909 2.391490 -2.360140 -10.087999 0.378932 -0.179033 -10.101299 -1.663760 -0.170524 -9.588219 -3.673410 1.879530 -8.945489 -5.751180 3.812540 -7.438729 -7.568289 5.443670 -5.041959 -8.754359 6.595819 -4.277560 -9.634868 4.056459 -2.336980 -9.406029 3.278180 -0.354872 -9.891079 2.659630 1.637370 -10.488799 2.199430 3.560030 -10.025199 1.533830 -10.431999 6.677120 -0.040205 -9.933879 6.972011 -2.657540 8.381489 -10.219099 -0.828072 10.865499 -8.242069 -1.080470 12.051999 -5.318850 -1.939230 10.938199 -4.166430 -3.539590 9.844080 -1.559260 -3.644330 9.752079 -0.115653 -2.453619 8.810669 0.974010 -3.806640 6.344520 2.148990 -3.611800 3.020150 1.408600 -2.919610 2.235640 0.720431 -2.055530 1.382750 2.126300 -3.221710 3.731230 2.201460 -3.674320 4.985420 2.983580 -4.791870 5.119420 5.578120 -6.142500 2.923210 7.257820 -7.033969 0.236222 8.503809 -7.198359 -2.541900 9.251650 -7.108179 -5.408319 9.089349 -6.770410 -6.379860 9.010349 -5.036340 -6.232060 10.543200 -2.628870 -8.805679 8.990329 -1.698520 -9.031719 8.456509 0.334459 -9.734909 2.391490 -2.360140 -9.960799 4.492199 -2.376820 -9.778019 4.320680 -4.547450 -9.665270 2.332170 -4.561500 -9.831190 0.380824 -2.291540 -10.087999 0.378932 -0.179033 -9.709499 -1.620700 -2.223570 -10.101299 -1.663760 -0.170524 -9.677729 -3.642889 -0.174633 -9.121989 -5.692659 1.801210 -8.305269 -7.780359 3.588570 -6.107309 -9.096120 4.880349 -5.098390 -10.018499 1.994250 
						-3.107580 -9.679579 1.361650 -1.238700 -10.528699 0.820870 0.785928 -10.953399 0.193501 2.750979 -10.390800 -0.499879 4.592840 -9.545009 -1.237820 -9.206859 6.172400 -4.252950 9.843239 -9.633879 -2.315470 11.029399 -7.041070 -2.898440 9.807230 -5.865260 -4.097950 9.462790 -3.149559 -4.616130 9.844080 -1.559260 -3.644330 9.106529 -0.352339 -5.189680 7.824600 2.410330 -5.168700 6.139910 3.422420 -6.773499 3.540560 5.313190 -7.547890 1.269630 7.157800 -8.367199 -1.348750 8.180329 -8.175959 -3.927430 8.471039 -8.023270 -6.423960 7.438429 -7.301730 -7.721930 7.701779 -5.769370 -7.422150 8.968609 -3.239920 -9.525089 4.304760 -6.857380 -9.423699 2.218570 -6.759830 -9.358559 0.383972 -4.368879 -9.831190 0.380824 -2.291540 -9.709499 -1.620700 -2.223570 -9.069440 -1.572760 -4.183469 -9.677729 -3.642889 -0.174633 -9.489438 -3.597370 -2.223290 -9.320089 -5.593490 -0.229016 -8.925260 -7.765960 1.671880 -7.025420 -9.414420 3.103350 -6.103000 -9.834628 -0.047970 -3.658010 -9.504238 -0.751306 -1.930720 -10.518300 -1.261160 0.049092 -11.163799 -1.937780 2.120970 -10.938500 -2.616850 3.777530 -9.780270 -3.222700 -8.797829 7.549410 -3.986450 -8.717659 6.157449 -6.346799 6.717100 -9.875539 -2.309429 8.298919 -9.575380 -3.550640 9.890500 -8.301069 -3.780710 8.809669 -7.538980 -4.798279 8.517459 -4.816239 -5.250559 9.462790 -3.149559 -4.616130 8.958329 -2.154220 -6.376010 7.794990 0.642062 -6.531189 4.148759 3.420780 -8.290440 1.823080 5.207089 -8.817509 -0.927701 6.586150 -9.405300 -2.826420 7.845290 -8.486849 -4.954969 7.032800 -8.573990 -7.155649 5.601220 -7.573430 -7.985539 4.012020 -8.636869 -7.785339 2.401450 -8.315750 -8.737689 0.327499 -6.366910 -8.099209 -1.517530 -5.984000 -8.865069 -3.524420 -4.165289 -9.489438 -3.597370 -2.223290 -9.320089 -5.593490 -0.229016 -9.338068 -5.566629 -2.288600 -8.851449 -7.520510 -0.349411 -7.774680 -9.659638 0.891833 
						-5.997789 -9.872860 -2.426750 -4.070050 -9.407439 -2.703830 -2.186510 -9.573060 -3.072640 -0.532935 -10.415900 -3.958339 1.444810 -10.508999 -4.701710 3.264160 -9.790680 -5.257870 5.672210 -9.482850 -4.008250 7.502259 -9.132479 -4.858590 9.177289 -9.043119 -4.026390 7.619959 -6.626410 -5.968470 8.517459 -4.816239 -5.250559 7.976419 -3.901380 -6.901989 7.451880 -1.327910 -7.394060 6.037910 1.191360 -7.617600 4.119150 1.281820 -8.774050 2.111050 3.260060 -9.309889 -0.008456 5.096240 -9.722460 -2.968200 6.608871 -9.040949 -5.378620 5.062049 -8.452381 -7.250239 0.491056 -7.764760 -6.703749 -1.393800 -7.408810 -7.657410 -3.429590 -5.749860 -8.864879 -5.490560 -4.312480 -9.338068 -5.566629 -2.288600 -9.252200 -7.572629 -2.374680 -8.851449 -7.520510 -0.349411 -7.740270 -9.088249 -0.508074 -7.740270 -9.088249 -0.508074 -7.640389 -8.882329 -2.379780 -5.997789 -9.872860 -2.426750 -6.242729 -9.848051 -4.365290 -4.388800 -9.143901 -4.469980 -4.070050 -9.407439 -2.703830 -2.186510 -9.573060 -3.072640 -2.589150 -8.635040 -4.766730 -0.837301 -9.070280 -5.548370 -0.532935 -10.415900 -3.958339 1.444810 -10.508999 -4.701710 0.913187 -9.421568 -6.458640 2.722430 -9.317919 -7.182539 3.264160 -9.790680 -5.257870 4.919479 -8.762679 -5.744289 -6.251320 3.028719 -9.205099 6.838550 -8.504069 -6.585830 7.619959 -6.626410 -5.968470 7.051720 -5.619009 -7.566280 7.317570 -3.061700 -8.437170 6.083920 -0.724256 -8.711010 4.509359 -0.387381 -9.942150 2.261000 1.286370 -9.726809 0.251846 3.215539 -10.310198 -1.552020 4.998800 -9.793129 -3.500340 4.817810 -9.039230 -5.504710 0.791802 -8.846310 -5.000010 -1.221490 -8.543310 -6.180240 -3.289160 -7.133140 -7.560209 -5.392220 -5.941630 -8.740450 -7.541560 -4.476140 -9.252200 -7.572629 -2.374680 -7.640389 -8.882329 -2.379780 -7.649440 -9.188279 -4.292710 -6.818009 -9.407919 -5.822869 -4.913620 -8.517789 -6.124559 -3.107409 -7.807169 -6.338699 
						-1.269230 -7.841350 -7.066150 0.434434 -8.226208 -8.057270 2.207700 -8.649069 -9.043209 4.516870 -8.493748 -7.604339 4.919479 -8.762679 -5.744289 -3.761620 2.870430 -9.482538 6.838550 -8.504069 -6.585830 5.713610 -7.448090 -8.324869 6.864799 -4.766859 -9.253839 6.404190 -2.350980 -9.830898 4.844669 -2.231960 -10.969099 2.535260 -0.545410 -10.554800 0.336957 1.192440 -10.505001 -1.783820 2.994800 -10.127199 -3.731130 0.871536 -9.858339 -3.476870 -1.148030 -9.920059 -4.661840 -3.204060 -8.496040 -5.894149 -5.221920 -7.077529 -7.443950 -7.404339 -6.161929 -5.524089 -7.060239 -6.899879 -3.746449 -6.811169 -7.732289 -1.900060 -6.620520 -8.472260 -0.117884 -6.789319 -9.447660 1.608870 -7.165050 -10.688799 4.138220 -7.885509 -8.939339 5.604780 -5.929969 -10.040699 6.298570 -3.799970 -10.333500 4.974430 -4.213990 -10.764799 2.794800 -2.502340 -11.202299 0.519195 -0.773198 -10.824299 -1.754290 1.044550 -10.592800 -1.518110 -0.993159 -10.638298 -3.085970 -3.167490 -9.847078 -4.318480 -5.143030 -8.358278 -2.621740 -5.133870 -9.548779 -0.766468 -5.064459 -10.454000 1.110190 -4.983550 -11.357798 3.633500 -6.500070 -10.367800 3.129200 -4.575769 -11.027199 0.796704 -2.838259 -11.050798 -1.201260 -3.036150 -10.697899 
					</float_array>
					<technique_common>
						<accessor count="489" offset="0" source="#meshId0-positions-array" stride="3">
							<param name="X" type="float" />
							<param name="Y" type="float" />
							<param name="Z" type="float" />
						</accessor>
					</technique_common>
				</source>
				<source id="meshId0-normals" name="meshId0-normals">
					<float_array id="meshId0-normals-array" count="1467"> 
						0.413552 0.329170 0.848895 0.657037 -0.039836 0.752805 0.643192 -0.010887 0.765628 0.523326 0.165485 0.835909 0.211505 0.053141 0.975931 0.396965 -0.192777 0.897360 0.521930 0.056649 0.851105 0.590662 0.153893 0.792108 0.808821 0.099786 0.579526 0.649423 0.266362 0.712250 0.329245 0.436660 0.837213 0.215609 0.455823 0.863561 -0.051203 0.518093 0.853790 -0.014241 0.521271 0.853272 -0.202865 0.081013 0.975850 -0.107647 -0.222611 0.968946 0.369163 -0.097277 0.924260 0.340754 0.171182 0.924437 0.452999 0.391282 0.801056 0.802682 0.249227 0.541837 0.943314 0.286904 0.166869 0.830437 0.473598 0.293394 0.587289 0.649902 0.482410 0.041258 0.434619 0.899669 -0.131987 0.550372 0.824421 -0.231196 0.443930 0.865722 -0.421517 0.041327 0.905878 -0.454701 -0.136644 0.880100 0.031830 -0.120432 0.992211 0.332534 0.018218 0.942915 0.251589 0.105862 0.962027 0.437562 0.324170 0.838721 0.683566 0.545960 0.484423 0.956477 0.288610 0.043088 0.921621 0.371352 -0.112750 0.809873 0.582811 -0.066613 0.668342 0.743800 0.008992 0.305374 0.666419 0.680170 -0.177818 0.430536 0.884884 -0.252153 0.564124 0.786246 -0.368040 0.343930 0.863863 -0.454117 -0.016460 0.890790 -0.395156 -0.135706 0.908535 -0.376596 -0.065149 0.924084 0.145096 -0.031032 0.988931 0.249143 -0.001058 0.968466 0.256448 0.050559 0.965235 0.527974 0.165499 0.832979 0.818140 0.558533 -0.136701 0.919440 0.068101 -0.387287 0.779569 0.384897 -0.494092 0.694958 0.611593 -0.378137 0.625839 0.728644 -0.278214 0.484355 0.859952 0.160882 -0.064886 0.613461 0.787055 -0.361813 0.549834 0.752844 -0.430353 0.563589 0.705099 -0.487926 0.292293 0.822492 -0.457328 0.089034 0.884830 -0.322772 -0.160045 0.932847 -0.482268 0.014087 0.875910 0.004547 -0.010490 0.999935 -0.293514 0.003974 0.955946 0.191365 -0.166731 0.967254 
						0.292518 -0.065767 0.953996 0.179061 0.048203 0.982656 0.329354 -0.075123 0.941213 0.636456 0.046745 0.769895 0.730838 0.309836 0.608176 0.617081 0.438274 0.653549 0.654246 0.664772 0.360610 0.589898 0.782836 -0.197962 0.732395 0.270997 -0.624626 0.782984 -0.186935 -0.593288 0.694958 0.611593 -0.378137 0.779569 0.384897 -0.494092 0.439383 0.177445 -0.880599 0.663913 0.411353 -0.624507 0.625839 0.728644 -0.278214 0.647094 0.677444 -0.349770 0.479100 0.862084 -0.165151 0.081337 0.934342 0.346973 -0.430663 0.738213 0.519202 -0.452862 0.707227 0.542906 -0.651245 0.510453 0.561531 -0.708468 0.251750 0.659314 -0.757103 0.175049 0.629407 -0.751917 -0.037332 0.658200 -0.325915 -0.135520 0.935635 -0.438961 -0.040671 0.897585 -0.477205 0.025364 0.878426 -0.129637 -0.237866 0.962608 0.069166 -0.241613 0.967905 0.131318 -0.314660 0.940077 0.149778 -0.141773 0.978502 0.153356 -0.105887 0.982482 0.422303 -0.442683 0.791007 0.740750 -0.309646 0.596162 0.828124 0.161500 0.536776 0.768560 0.521810 0.370175 0.545451 0.837641 -0.029000 0.563019 0.055420 -0.824584 0.530967 -0.134010 -0.836729 0.782984 -0.186935 -0.593288 0.530967 -0.134010 -0.836729 0.578736 -0.168790 -0.797856 0.921404 0.147629 -0.359473 0.681662 0.670768 -0.292247 0.479100 0.862084 -0.165151 0.370732 0.904209 -0.212045 0.156200 0.986859 -0.041357 -0.568092 0.730790 0.378441 -0.563899 0.753148 0.338801 -0.852502 0.355630 0.383103 -0.923133 0.182530 0.338390 -0.954238 0.125922 0.271243 -0.960801 0.036769 0.274790 -0.704968 -0.123813 0.698349 -0.698137 -0.168239 0.695917 -0.567158 -0.058639 0.821519 -0.388377 -0.219204 0.895049 0.025126 -0.437391 0.898920 0.073663 -0.411974 0.908213 0.086703 -0.532265 0.842126 0.059227 -0.513358 0.856128 0.125012 -0.500537 0.856641 0.401000 -0.790215 0.463422 0.675167 -0.667488 0.314022 
						0.886769 -0.145182 0.438820 0.856601 0.283384 0.431193 0.848421 0.511951 0.134491 0.082862 0.959406 -0.269583 0.314094 0.752594 -0.578747 0.512576 0.457383 -0.726682 0.474578 0.371284 -0.798075 0.563019 0.055420 -0.824584 0.423304 0.108778 -0.899434 0.382507 -0.068618 -0.921401 0.906381 -0.394602 -0.150873 0.932727 -0.227245 0.279964 0.761872 0.611481 -0.213640 0.472931 0.836749 -0.276020 0.180106 0.958329 -0.221738 0.156200 0.986859 -0.041357 0.013267 0.985152 -0.171171 -0.339454 0.939908 0.036657 -0.455815 0.889188 0.039714 -0.532227 0.786838 0.312442 -0.782595 0.587511 0.205854 -0.990967 0.085579 0.103254 -0.989962 0.078689 0.117401 -0.945899 -0.061018 0.318673 -0.913591 -0.192828 0.358006 -0.742531 -0.220783 0.632379 -0.587567 -0.265078 0.764525 -0.236405 -0.528802 0.815157 -0.097369 -0.645693 0.757364 0.074467 -0.629657 0.773296 0.097550 -0.767855 0.633153 0.035694 -0.785275 0.618117 0.072375 -0.806633 0.586605 -0.988733 0.081439 0.125594 0.249083 -0.960629 0.123083 0.485529 -0.864674 0.128844 0.806351 -0.549647 0.218373 0.956620 -0.010596 0.291146 0.985891 0.164566 -0.030616 0.641498 0.749337 -0.164240 0.371184 0.915485 -0.155272 -0.144057 0.987897 -0.057514 0.195407 0.803735 -0.561985 0.474578 0.371284 -0.798075 0.474120 0.485861 -0.734268 0.590663 0.352850 -0.725682 0.761628 -0.022308 -0.647630 0.805060 -0.336903 0.488236 0.666419 -0.281532 0.690381 0.850215 0.525824 0.025356 0.378613 0.822105 -0.425201 0.153499 0.921151 -0.357657 -0.187506 0.970207 -0.153429 -0.339454 0.939908 0.036657 -0.455815 0.889188 0.039714 -0.421434 0.899138 0.118082 -0.611521 0.753090 0.242690 -0.765439 0.628553 0.137931 -0.996394 0.027273 0.080343 -0.996982 0.075914 0.016260 -0.991141 -0.045916 0.124620 -0.979084 -0.151084 0.136262 -0.875159 -0.263380 0.405867 -0.744950 -0.309626 0.590915 
						-0.432260 -0.561773 0.705381 -0.153488 -0.870956 0.466772 -0.017132 -0.910068 0.414104 0.020141 -0.933727 0.357418 0.025634 -0.950513 0.309625 0.033111 -0.976225 0.214214 -0.991669 0.075787 0.104157 0.093359 -0.995060 0.033746 0.273621 -0.947330 0.166426 0.671661 -0.734731 0.095085 0.930578 -0.364034 0.038770 0.984433 -0.141724 -0.103948 0.872240 0.389551 -0.295714 0.772619 0.555009 -0.308262 0.131390 0.982984 0.128371 0.195407 0.803735 -0.561985 -0.144057 0.987897 -0.057514 -0.055394 0.910884 0.408929 0.299493 0.923229 -0.240732 0.558343 0.686567 -0.465704 0.834897 0.548910 -0.040543 0.990014 0.105193 0.093843 0.545466 -0.029958 0.837597 0.436149 -0.126968 0.890872 0.822167 0.503166 0.266206 0.461090 0.810131 -0.362056 0.103617 0.858485 -0.502262 -0.115501 0.898281 -0.423971 -0.080047 0.976674 -0.199249 -0.241184 0.967911 -0.070563 -0.421434 0.899138 0.118082 -0.527636 0.838880 0.133717 -0.774824 0.630818 0.041429 -0.905418 0.419434 0.065528 -0.933891 0.338380 0.115523 -0.998515 -0.054416 0.002503 -0.998053 0.029169 -0.055129 -0.999206 -0.025705 0.030430 -0.989934 -0.124390 0.067508 -0.959686 -0.221862 0.172569 -0.842201 -0.311896 0.439793 -0.598768 -0.552584 0.579765 -0.296580 -0.744384 0.598275 -0.110466 -0.966767 0.230562 -0.091935 -0.989067 0.115304 -0.092828 -0.983037 0.158179 0.050310 -0.988550 0.142257 0.094291 -0.994678 0.041523 -0.982823 0.182558 0.027045 0.063627 -0.997263 0.037648 0.025862 -0.988470 0.149189 0.623440 -0.762095 0.174740 0.849306 -0.527581 0.018397 0.933496 -0.357091 -0.032743 0.948246 0.170575 -0.267833 0.840979 0.344906 -0.416886 0.737804 0.657549 -0.152563 0.131390 0.982984 0.128371 0.145003 0.847679 0.510308 0.032004 0.747701 0.663264 0.340989 0.919234 0.196811 0.591168 0.795065 0.135620 0.748467 0.386078 0.539205 0.229371 0.433074 0.871686 
						0.366163 0.244734 0.897792 0.813073 0.502270 0.294341 0.487308 0.807550 -0.332257 0.239533 0.838182 -0.489975 -0.137542 0.853251 -0.503036 -0.403411 0.809946 -0.425731 -0.278181 0.915138 -0.291784 -0.371888 0.919128 -0.130014 -0.527636 0.838880 0.133717 -0.621036 0.732916 -0.277757 -0.774824 0.630818 0.041429 -0.873944 0.485748 0.016484 -0.998053 0.029169 -0.055129 -0.998515 -0.054416 0.002503 -0.992108 -0.042181 -0.118080 -0.996129 -0.036625 -0.079913 -0.996992 0.010224 -0.076831 -0.992602 -0.105763 -0.059621 -0.976237 -0.204103 0.072826 -0.933896 -0.267470 0.237273 -0.722812 -0.536440 0.435632 -0.318526 -0.827760 0.461903 -0.022715 -0.981713 0.189005 -0.049527 -0.985925 0.159684 -0.164017 -0.955777 0.244109 0.068315 -0.976698 0.203458 0.238006 -0.969013 0.066083 -0.982823 0.182558 0.027045 -0.907795 0.327419 -0.262116 0.218028 -0.974987 0.043176 0.825319 -0.563658 -0.033743 0.938682 -0.080526 -0.335250 0.766209 0.094067 -0.635670 0.879218 0.284179 -0.382385 0.737804 0.657549 -0.152563 0.733386 0.679346 0.025177 0.175442 0.791901 0.584903 0.094791 0.727158 0.679894 0.365672 0.841227 0.398273 0.417755 0.661959 0.622327 0.049354 0.689721 0.722391 0.270191 0.687790 0.673753 0.838626 0.541168 0.062003 0.571690 0.644814 -0.507332 0.300623 0.785350 -0.541157 0.054183 0.807700 -0.587098 -0.418225 0.718586 -0.555628 -0.573737 0.720165 -0.390113 -0.508063 0.750568 -0.422515 -0.756156 0.597695 -0.266437 -0.873944 0.485748 0.016484 -0.996129 -0.036625 -0.079913 -0.992108 -0.042181 -0.118080 -0.985686 0.087614 -0.144035 -0.986021 -0.118952 -0.116677 -0.986153 -0.035657 -0.161957 -0.996992 0.010224 -0.076831 -0.970803 -0.101802 -0.217204 -0.992602 -0.105763 -0.059621 -0.984306 -0.175390 -0.019513 -0.975204 -0.202730 0.088752 -0.817030 -0.478978 0.321001 -0.387361 -0.850829 0.355023 -0.005338 -0.997871 0.065007 
						-0.091081 -0.991236 0.095681 -0.258830 -0.940989 0.218050 0.030646 -0.985412 0.167401 0.327541 -0.944357 0.030105 0.151835 -0.988313 -0.013569 -0.899393 0.311557 -0.306634 0.593587 -0.783032 -0.185782 0.825228 -0.288281 -0.485688 0.653818 -0.084331 -0.751938 0.826278 -0.012101 -0.563132 0.879218 0.284179 -0.382385 0.871928 0.277552 -0.403368 0.660522 0.748801 -0.054849 0.720167 0.610331 -0.329933 0.558033 0.448938 -0.697893 0.394735 0.567611 -0.722497 0.104354 0.697890 -0.708562 -0.175654 0.637808 -0.749898 -0.536562 0.475772 -0.696952 -0.647461 0.613063 -0.452711 -0.602818 0.678985 -0.419034 -0.865630 0.201144 -0.458503 -0.870757 -0.217574 -0.440959 -0.954634 -0.181545 -0.236042 -0.986153 -0.035657 -0.161957 -0.970803 -0.101802 -0.217204 -0.912994 -0.166587 -0.372413 -0.984306 -0.175390 -0.019513 -0.976089 -0.104264 -0.190736 -0.986348 -0.160990 0.034631 -0.913129 -0.393135 0.107887 -0.459748 -0.843325 0.278272 -0.118972 -0.989877 -0.077395 -0.125001 -0.990273 -0.061115 -0.371022 -0.926564 -0.061812 -0.134703 -0.987891 -0.076977 0.271122 -0.957651 -0.096938 0.300339 -0.945966 -0.122249 -0.715980 0.581282 -0.386631 -0.737953 0.475261 -0.479117 -0.030422 -0.992078 -0.121881 0.285592 -0.863752 -0.415173 0.705622 -0.394804 -0.588412 0.639284 -0.226403 -0.734886 0.757354 -0.185785 -0.626018 0.826278 -0.012101 -0.563132 0.850391 0.011322 -0.526029 0.728970 0.335907 -0.596464 0.507801 0.318893 -0.800278 0.455646 0.346802 -0.819826 0.064578 0.436533 -0.897368 -0.058253 0.566045 -0.822314 -0.354476 0.303580 -0.884413 -0.443264 0.437327 -0.782472 -0.484123 0.212208 -0.848877 -0.560386 -0.265299 -0.784591 -0.801933 -0.325850 -0.500724 -0.766375 -0.266837 -0.584352 -0.896361 -0.067507 -0.438154 -0.976089 -0.104264 -0.190736 -0.986348 -0.160990 0.034631 -0.990305 -0.083759 -0.110819 -0.920783 -0.390038 0.005373 -0.560844 -0.827712 -0.018627 
						-0.104726 -0.994044 -0.030162 0.039170 -0.985395 -0.165716 -0.327882 -0.891891 -0.311487 -0.335932 -0.867510 -0.366847 0.028523 -0.932522 -0.359986 0.279416 -0.915463 -0.289576 0.054790 -0.971921 -0.228841 0.322205 -0.773928 -0.545178 0.543600 -0.575761 -0.610736 0.768323 -0.226174 -0.598770 0.757354 -0.185785 -0.626018 0.858880 -0.192508 -0.474621 0.738346 0.248131 -0.627117 0.606612 0.341422 -0.717951 0.465969 0.368472 -0.804426 0.437143 0.260395 -0.860872 0.216016 0.294571 -0.930895 -0.187288 0.307141 -0.933053 -0.270034 0.275739 -0.922523 -0.549549 -0.328021 -0.768374 -0.599358 -0.269761 -0.753657 -0.736496 -0.109948 -0.667446 -0.897884 -0.003693 -0.440217 -0.990305 -0.083759 -0.110819 -0.918352 -0.392913 -0.047426 -0.920783 -0.390038 0.005373 -0.631358 -0.766331 -0.118840 -0.631358 -0.766331 -0.118840 -0.606434 -0.795129 0.002787 -0.104726 -0.994044 -0.030162 -0.048701 -0.986619 -0.155596 0.216237 -0.919234 -0.329014 0.039170 -0.985395 -0.165716 -0.327882 -0.891891 -0.311487 -0.144137 -0.885940 -0.440834 -0.384495 -0.796737 -0.466233 -0.335932 -0.867510 -0.366847 0.028523 -0.932522 -0.359986 -0.234444 -0.858893 -0.455345 0.128489 -0.914219 -0.384309 0.279416 -0.915463 -0.289576 0.203073 -0.926945 -0.315491 -0.302251 0.071675 -0.950530 0.488342 -0.683887 -0.542053 0.768323 -0.226174 -0.598770 0.845281 -0.299609 -0.442420 0.865233 0.061543 -0.497578 0.640733 0.427383 -0.637813 0.395080 0.497404 -0.772335 0.350687 0.303260 -0.886032 0.197788 0.223298 -0.954473 -0.176541 0.220864 -0.959194 -0.257483 0.198090 -0.945761 -0.451427 -0.198291 -0.869997 -0.579666 -0.192119 -0.791882 -0.630862 -0.158816 -0.759467 -0.677209 -0.009472 -0.735730 -0.880383 -0.302883 -0.364949 -0.918352 -0.392913 -0.047426 -0.606434 -0.795129 0.002787 -0.650959 -0.741459 -0.162760 -0.270193 -0.734469 -0.622535 0.096043 -0.728058 -0.678755 -0.077567 -0.818184 -0.569700 
						-0.337439 -0.793306 -0.506754 -0.398142 -0.782099 -0.479378 -0.032290 -0.830465 -0.556134 0.315257 -0.868303 -0.382966 0.203073 -0.926945 -0.315491 -0.290766 0.171355 -0.941325 0.488342 -0.683887 -0.542053 0.554842 -0.643064 -0.527843 0.822710 -0.241841 -0.514452 0.707013 0.290924 -0.644589 0.341026 0.260786 -0.903157 0.169327 0.368365 -0.914131 0.142024 0.184734 -0.972472 -0.198853 0.205442 -0.958254 -0.401952 -0.009734 -0.915609 -0.494640 -0.096469 -0.863727 -0.621663 -0.171100 -0.764369 -0.558654 -0.135136 -0.818318 -0.587309 -0.222217 -0.778259 -0.291838 -0.367669 -0.882978 -0.280429 -0.609950 -0.741161 -0.343195 -0.689390 -0.637933 -0.444946 -0.638045 -0.628428 -0.118946 -0.571360 -0.812034 0.350100 -0.734387 -0.581469 0.524112 -0.453249 -0.721021 0.661249 -0.025803 -0.749723 0.334144 -0.132193 -0.933205 0.080418 0.152236 -0.985067 0.010823 0.165136 -0.986211 -0.193636 0.107038 -0.975217 -0.226215 0.012033 -0.974003 -0.511018 -0.158299 -0.844868 -0.536024 -0.309082 -0.785587 -0.446784 -0.405775 -0.797327 -0.400747 -0.340868 -0.850418 -0.146311 -0.202494 -0.968292 0.282123 -0.469548 -0.836619 0.153494 -0.144013 -0.977599 -0.105349 0.065359 -0.992285 -0.308219 -0.069790 -0.948752 
					</float_array>
					<technique_common>
						<accessor count="489" offset="0" source="#meshId0-normals-array" stride="3">
							<param name="X" type="float" />
							<param name="Y" type="float" />
							<param name="Z" type="float" />
						</accessor>
					</technique_common>
				</source>
				<source id="meshId0-tangents" name="meshId0-tangents">
					<float_array id="meshId0-tangents-array" count="1467"> 
						-0.859839 0.447813 0.245238 -0.677906 0.405603 0.613131 -0.675866 0.461872 0.574352 -0.783843 0.478263 0.396048 -0.888022 0.427548 0.169173 -0.815258 0.375071 0.441221 -0.813483 0.333197 0.476681 -0.781394 0.354031 0.513891 -0.522112 0.575291 0.629634 -0.707582 0.554742 0.437708 -0.894201 0.429005 0.127903 -0.921731 0.386966 0.025876 -0.915772 0.316705 -0.247102 -0.926895 0.313203 -0.206809 -0.894363 0.390439 -0.218338 -0.921571 0.387985 -0.013246 -0.863762 0.331105 0.379847 -0.928775 0.213805 0.302762 -0.891202 0.222413 0.395338 -0.590755 0.457028 0.664932 -0.325796 0.704422 0.630592 -0.556347 0.677375 0.481291 -0.802377 0.545714 0.241635 -0.934044 0.336494 -0.119722 -0.883181 0.312340 -0.349908 -0.863943 0.315503 -0.392506 -0.824950 0.397321 -0.401987 -0.824546 0.438154 -0.357972 -0.927210 0.367098 0.074302 -0.910953 0.264987 0.316143 -0.962852 0.128102 0.237708 -0.894842 0.065392 0.441567 -0.696681 0.290130 0.656095 -0.236638 0.680739 0.693251 -0.259064 0.804997 0.533728 -0.497180 0.742237 0.449330 -0.715900 0.639895 0.279324 -0.913285 0.407170 0.011097 -0.904081 0.283630 -0.319674 -0.814175 0.315458 -0.487448 -0.811907 0.333928 -0.478851 -0.826640 0.380730 -0.414379 -0.853382 0.420278 -0.308392 -0.843400 0.436755 -0.312923 -0.931930 0.331447 0.147134 -0.947064 0.208807 0.243865 -0.962669 0.102854 0.250379 -0.847726 0.043753 0.528627 -0.234963 0.541702 0.807063 0.168484 0.821681 0.544475 -0.176855 0.892060 0.415875 -0.464568 0.783291 0.413076 -0.675340 0.684697 0.274054 -0.874401 0.481871 0.056779 -0.921540 0.265739 -0.283101 -0.814478 0.206457 -0.542219 -0.724213 0.250687 -0.642395 -0.742579 0.356281 -0.567133 -0.800343 0.392551 -0.453160 -0.886456 0.396511 -0.238692 -0.772459 0.464764 -0.432784 -0.931001 0.364927 0.008062 -0.860584 0.434303 -0.266039 -0.923651 0.302781 0.234930 
						-0.920548 0.250724 0.299547 -0.967910 0.187631 0.167170 -0.936192 0.103624 0.335867 -0.771127 0.016633 0.636464 -0.640813 0.004659 0.767683 -0.744823 0.057367 0.664791 -0.566420 0.114758 0.816088 -0.177703 0.365008 0.913888 0.226334 0.768314 0.598721 0.467860 0.805524 0.363646 0.592272 -0.188682 0.783334 0.570354 -0.110318 0.813957 0.891254 0.036429 0.452040 0.697197 -0.038475 0.715847 0.550222 -0.159642 0.819616 0.566339 -0.119971 0.815394 -0.868806 0.492549 0.050702 -0.951356 0.176576 -0.252475 -0.805464 -0.054866 -0.590100 -0.664845 0.137851 -0.734151 -0.558086 0.179246 -0.810192 -0.582995 0.317722 -0.747777 -0.541036 0.371987 -0.754259 -0.593074 0.474302 -0.650616 -0.876534 0.414119 -0.245345 -0.797221 0.478400 -0.368201 -0.765360 0.479220 -0.429619 -0.916039 0.400345 -0.024438 -0.932407 0.329337 0.148840 -0.929605 0.290327 0.227032 -0.953399 0.241452 0.180919 -0.962316 0.209942 0.172835 -0.851413 0.105737 0.513728 -0.643382 -0.071706 0.762179 -0.532693 -0.071360 0.843295 -0.434471 0.000968 0.900685 -0.088371 0.091883 0.991841 0.445569 0.819965 0.359340 0.619949 0.734591 0.275752 0.620844 0.175700 0.763991 0.833153 0.262815 0.486605 0.810429 0.009941 0.585753 0.374228 -0.087785 0.923172 0.490660 -0.122778 0.862658 0.544868 -0.144577 0.825964 0.581925 -0.048216 0.811812 -0.955084 0.140231 -0.261053 -0.595962 -0.048188 -0.801565 -0.436430 0.076513 -0.896479 -0.373786 0.097594 -0.922366 -0.290460 0.245567 -0.924840 -0.215853 0.337723 -0.916161 -0.233399 0.427637 -0.873299 -0.647059 0.515451 -0.561805 -0.658158 0.533431 -0.531299 -0.710050 0.540232 -0.451641 -0.841910 0.479285 -0.247939 -0.931596 0.315933 0.179764 -0.929217 0.302323 0.212503 -0.933985 0.250691 0.254610 -0.935813 0.269987 0.226631 -0.932566 0.235438 0.273659 -0.749023 0.008420 0.662490 -0.572912 -0.206330 0.793221 
						-0.459187 -0.168258 0.872260 -0.415324 -0.117189 0.902093 -0.095743 -0.101465 0.990221 0.197486 0.249340 0.948066 0.137856 0.566983 0.812112 0.233671 0.740069 0.630632 0.264692 0.804520 0.531682 0.703545 0.491370 0.513399 0.758805 0.499850 0.417571 0.907378 0.215940 0.360604 0.182039 0.042530 0.982371 -0.304357 -0.079815 0.949208 0.288684 -0.025295 0.957090 0.516057 -0.009138 0.856506 0.612013 0.067302 0.787979 0.606417 -0.062765 0.792665 0.629832 0.124725 0.766652 -0.722530 -0.235597 -0.649957 -0.457857 -0.195976 -0.867157 -0.479693 0.023818 -0.877113 -0.210280 0.061761 -0.975688 -0.068270 0.340783 -0.937660 -0.068877 0.456744 -0.886928 -0.297397 0.555756 -0.776331 -0.397872 0.605680 -0.689093 -0.615935 0.596045 -0.515125 -0.739542 0.559360 -0.374424 -0.913840 0.406070 -0.001602 -0.930158 0.329722 0.161521 -0.932904 0.229997 0.277112 -0.914097 0.182467 0.362122 -0.903943 0.238383 0.355049 -0.877555 0.228003 0.421796 -0.104540 0.224828 -0.968774 -0.699689 -0.090622 0.708677 -0.587566 -0.213631 0.780466 -0.406299 -0.246486 0.879867 -0.286873 -0.208551 0.934992 0.064691 -0.205897 0.976433 0.229048 0.017235 0.973262 0.372389 0.006418 0.928054 0.295566 0.098422 0.950239 0.187307 0.531898 0.825833 0.476811 0.653695 0.587652 0.364058 0.651147 0.665935 0.638188 0.346066 0.687716 0.645260 0.118160 0.754770 -0.555803 -0.140820 0.819300 -0.743419 -0.180500 0.644010 -0.013306 -0.026685 0.999555 0.482829 0.216506 0.848529 0.598523 0.201327 0.775395 0.662676 0.240245 0.709326 0.656230 0.208721 0.725119 0.670254 0.313543 0.672644 -0.373707 -0.053551 -0.926000 -0.325549 0.040079 -0.944675 -0.148285 0.036292 -0.988279 -0.065407 0.356253 -0.932097 0.022414 0.481973 -0.875899 -0.128869 0.559364 -0.818843 -0.202350 0.653412 -0.729457 -0.469885 0.662649 -0.583185 -0.624017 0.636634 -0.453100 
						-0.863163 0.484143 -0.143373 -0.936925 0.278387 0.211357 -0.933312 0.163122 0.319876 -0.908387 0.132244 0.396667 -0.875158 0.128359 0.466500 -0.827870 0.093290 0.553108 -0.085292 0.219611 -0.971852 -0.711809 -0.043009 0.701055 -0.630478 -0.045979 0.774844 -0.415497 -0.267314 0.869428 -0.160596 -0.310756 0.936824 0.052633 -0.326563 0.943709 0.375849 -0.147011 0.914945 0.461650 -0.157826 0.872909 0.424520 -0.172811 0.888774 0.119151 0.549330 0.827067 -0.288763 0.013625 0.957304 -0.383707 -0.397528 0.833511 -0.079962 0.275714 0.957908 0.215346 0.422169 0.880568 -0.003423 0.078836 0.996882 -0.094906 0.005126 0.995473 -0.804252 -0.299979 0.513022 -0.878888 -0.272662 0.391422 -0.261217 -0.082020 0.961789 0.373146 0.193167 0.907441 0.584674 0.355944 0.729013 0.637696 0.394311 0.661712 0.671193 0.200595 0.713626 0.709920 0.225538 0.667193 0.708309 0.245052 0.662003 -0.262001 -0.010971 -0.965005 -0.058512 -0.006308 -0.998267 -0.028506 0.093939 -0.995170 -0.078880 0.120155 -0.989616 -0.022125 0.363129 -0.931476 0.062325 0.432763 -0.899351 -0.039761 0.597684 -0.800745 -0.133751 0.666311 -0.733581 -0.280907 0.735915 -0.616052 -0.515200 0.706020 -0.485906 -0.776652 0.577442 -0.251739 -0.918072 0.394769 0.036067 -0.967174 0.157981 0.199039 -0.941687 0.123998 0.312810 -0.903124 0.150019 0.402320 -0.861338 0.029152 0.507196 -0.790172 -0.049403 0.610891 0.020707 0.254706 -0.966797 -0.711922 -0.018920 0.702004 -0.621663 0.100969 0.776750 -0.472285 -0.188950 0.860956 -0.234250 -0.345410 0.908746 -0.118338 -0.392971 0.911904 0.311382 -0.334230 0.889568 0.527566 -0.351666 0.773308 0.448384 -0.308463 0.838929 -0.373183 -0.070923 0.925043 -0.470785 -0.394524 0.789121 -0.489506 -0.566844 0.662625 -0.214237 -0.127862 0.968377 -0.210657 -0.010107 0.977508 -0.493903 -0.218074 0.841727 -0.764214 -0.474501 0.436835 
						-0.803414 -0.403658 0.437706 -0.313798 -0.047742 0.948289 0.269256 0.222995 0.936896 0.498560 0.326857 0.802871 0.623016 0.469343 0.625754 0.618356 0.584264 0.525616 0.662440 0.402758 0.631632 0.704256 0.370604 0.605538 0.722576 0.360457 0.589877 0.578271 0.667676 0.468841 0.573567 0.673921 0.465674 0.039226 0.104300 -0.993772 0.018459 0.982445 0.185635 -0.053044 0.981740 0.182684 -0.063635 0.980809 0.184294 -0.050548 0.982397 0.179837 0.068273 0.585092 -0.808088 -0.031430 0.698170 -0.715242 -0.203809 0.750532 -0.628620 -0.353596 0.789267 -0.502023 -0.679834 0.665088 -0.309006 -0.931721 0.363083 0.008158 -0.982993 0.056392 0.174768 -0.948645 0.096451 0.301279 -0.890636 0.249869 0.379912 -0.851923 0.049019 0.521367 -0.763978 -0.144765 0.628793 0.183268 0.948210 0.259442 0.303421 0.944149 0.128524 -0.553010 -0.086970 0.828623 -0.239608 -0.403696 0.882959 0.253772 -0.496867 0.829893 0.579480 -0.528675 0.620246 0.474956 -0.459974 0.750227 -0.100446 0.330446 0.938465 -0.218425 0.200405 0.955054 -0.571774 -0.401687 0.715348 -0.546136 -0.533032 0.646229 -0.399583 -0.244577 0.883468 -0.545290 -0.365208 0.754508 -0.615951 -0.548339 0.565623 -0.648568 -0.387172 0.655329 -0.174229 0.158648 0.971841 0.333945 0.381937 0.861745 0.441612 0.388293 0.808831 0.576324 0.454847 0.678944 0.609857 0.675461 0.414520 0.611884 0.693500 0.380337 0.587235 0.660708 0.467568 0.518866 0.795710 0.312449 0.465430 0.826658 0.316246 0.001943 0.899677 -0.436551 -0.007512 0.960022 -0.279822 0.125190 0.952598 -0.277280 -0.054562 0.892145 -0.448443 -0.063770 0.983054 0.171865 -0.004051 0.983033 0.183386 -0.137469 0.978149 0.155972 -0.114179 0.980121 0.162254 -0.122434 0.758341 -0.640257 -0.219905 0.842622 -0.491560 -0.570992 0.749539 -0.334903 -0.916117 0.398403 -0.044774 -0.991065 0.013943 0.132647 
						-0.953428 0.114540 0.279027 -0.861030 0.327075 0.389421 -0.844382 0.064097 0.531893 -0.738144 -0.235868 0.632068 -0.657782 -0.111283 0.744943 0.344350 0.937053 -0.057921 -0.293853 -0.425798 0.855772 0.212319 -0.638516 0.739742 0.494916 -0.704044 0.509295 0.452649 -0.580740 0.676646 0.169536 0.563459 0.808562 0.173177 0.595756 0.784273 -0.183255 0.231632 0.955387 0.081935 0.397400 0.913980 0.451877 0.540987 0.709324 0.493356 0.532430 0.687835 0.540951 0.558014 0.629279 0.583181 0.681113 0.442702 0.538947 0.828730 0.150811 0.587648 0.779854 0.215635 0.585824 0.733202 0.345289 0.315293 0.930366 -0.187109 0.011247 0.887731 -0.460226 -0.023291 0.835758 -0.548604 0.056411 0.846247 -0.529796 0.052773 0.792655 -0.607383 0.095004 0.800928 -0.591176 -0.176336 0.973176 0.147764 -0.134055 0.979461 0.150613 -0.154991 0.836556 -0.525502 -0.406246 0.855395 -0.321346 -0.886777 0.452733 -0.093053 -0.987257 0.109639 0.115341 -0.947206 0.100780 0.304375 -0.852382 0.313392 0.418605 -0.839949 0.072626 0.537783 -0.733120 -0.270709 0.623900 -0.627696 -0.292519 0.721409 0.546537 0.811287 0.207633 0.521351 0.852287 0.042425 -0.561699 -0.083894 0.823077 -0.302416 -0.492307 0.816198 0.135998 -0.739505 0.659270 0.274737 -0.825352 0.493269 0.332370 -0.715529 0.614450 0.407532 0.702987 0.582862 0.355585 0.724526 0.590442 0.289813 0.637947 0.713465 0.505789 0.641633 0.576615 0.524345 0.639684 0.562021 0.567307 0.723738 0.392895 0.569298 0.695482 0.438410 0.508335 0.856420 0.090229 0.570072 0.811176 0.130428 0.468300 0.882345 -0.046501 0.219555 0.865834 -0.449585 0.011511 0.829570 -0.558284 0.148152 0.811710 -0.564958 0.223985 0.783953 -0.579006 0.043804 0.765109 -0.642409 -0.153990 0.976248 0.152404 -0.100221 0.983214 0.152467 -0.371712 0.873177 -0.315265 -0.818310 0.557611 -0.139427 
						-0.965416 0.094335 0.243047 -0.951089 -0.087624 0.296230 -0.887747 0.178113 0.424478 -0.815108 0.072597 0.574742 -0.703673 -0.274512 0.655353 -0.590690 -0.401656 0.699826 -0.526789 -0.222831 0.820268 -0.216664 -0.620891 0.753360 -0.021743 -0.737049 0.675489 0.206490 -0.797881 0.566346 0.500886 0.780354 0.374381 0.421815 0.791486 0.442292 0.310443 0.700446 0.642650 0.387262 0.661790 0.641920 0.452487 0.682043 0.574520 0.532669 0.696284 0.481095 0.557514 0.745489 0.365274 0.541530 0.824768 0.162796 0.527532 0.843885 0.097819 0.195267 0.843797 -0.499877 0.259983 0.824864 -0.502004 0.335134 0.797785 -0.501223 0.289055 0.749270 -0.595853 0.017409 0.716643 -0.697223 -0.393402 0.893219 0.217701 -0.379828 0.899646 0.215330 -0.746070 0.642041 -0.176529 -0.763919 0.588216 0.265384 -0.768488 0.587008 0.254653 -0.038331 0.034341 -0.998675 0.056877 0.152789 -0.986621 0.262998 0.379372 -0.887079 0.179294 0.170083 -0.968982 0.246639 0.237465 -0.939563 0.319307 0.380017 -0.868119 0.400577 0.311027 -0.861859 0.354486 0.244397 -0.902557 0.492566 0.326485 -0.806713 0.493531 0.298389 -0.816940 0.609608 0.378472 -0.696518 0.579923 0.401270 -0.708994 -0.454733 -0.374631 0.808003 0.473198 0.876909 -0.084344 -0.103034 -0.661997 0.742391 0.458387 0.847345 0.268120 0.446184 0.851337 0.275943 0.270941 0.777650 0.567319 0.256740 0.663646 0.702608 0.362643 0.688006 0.628600 0.512112 0.730024 0.452555 0.560464 0.773090 0.297004 0.548975 0.830947 0.090294 0.517095 0.855070 0.038316 0.350496 0.857226 -0.377248 0.344060 0.823225 -0.451579 0.366783 0.801511 -0.472281 0.450795 0.784934 -0.425044 0.095252 0.640905 -0.761688 -0.155617 0.468680 -0.869553 -0.148603 0.109893 -0.982772 -0.002802 0.216754 -0.976222 0.213423 0.584810 -0.782591 0.348934 0.663261 -0.662065 0.347521 0.513395 -0.784637 
						0.391628 0.371222 -0.841915 0.468644 0.275820 -0.839224 0.560563 0.445623 -0.697989 0.715906 0.482501 -0.504650 0.718987 0.359887 -0.594592 0.528152 0.849107 -0.008572 0.717736 0.668081 -0.196273 0.676808 0.717858 -0.163130 0.444578 0.837709 0.317165 0.266120 0.735025 0.623633 0.476929 0.779924 0.405287 0.514294 0.758199 0.400794 0.563144 0.792872 0.232860 0.561385 0.825344 0.060451 0.474889 0.852735 -0.217541 0.439005 0.829978 -0.344109 0.379538 0.787842 -0.485032 0.439711 0.788314 -0.430365 0.351277 0.796298 -0.492457 0.403672 0.789572 -0.462196 0.386310 0.635132 -0.668858 0.385994 0.515665 -0.764917 0.449105 0.448131 -0.772970 0.547150 0.644740 -0.533795 0.665416 0.631886 -0.397419 0.639661 0.768444 -0.018089 0.442823 0.820133 0.362339 0.583416 0.806641 0.094634 0.569857 0.803809 0.170746 0.569983 0.809333 0.141774 0.552016 0.833637 -0.018108 0.546371 0.829380 -0.116650 0.447002 0.790599 -0.418500 0.388050 0.736220 -0.554435 0.426933 0.686494 -0.588603 0.491090 0.703687 -0.513473 0.568758 0.783648 -0.249821 0.659381 0.728331 -0.186417 0.608656 0.793149 -0.021275 0.577678 0.816229 -0.007568 0.540502 0.807852 -0.235017 
					</float_array>
					<technique_common>
						<accessor count="489" offset="0" source="#meshId0-tangents-array" stride="3">
							<param name="X" type="float" />
							<param name="Y" type="float" />
							<param name="Z" type="float" />
						</accessor>
					</technique_common>
				</source>
				<source id="meshId0-bitangents" name="meshId0-bitangents">
					<float_array id="meshId0-bitangents-array" count="1467"> 
						-0.299421 -0.831331 0.468227 -0.329765 -0.913181 0.239491 -0.359875 -0.886880 0.289714 -0.334244 -0.862484 0.380002 -0.408267 -0.902430 0.137619 -0.421631 -0.906730 -0.008273 -0.256582 -0.941154 0.219988 -0.201347 -0.922485 0.329364 -0.270568 -0.811839 0.517407 -0.278526 -0.788233 0.548736 -0.303318 -0.790748 0.531710 -0.322374 -0.801550 0.503580 -0.398421 -0.794530 0.458239 -0.375051 -0.793839 0.478703 -0.398698 -0.917057 -0.006751 -0.372987 -0.894378 -0.246917 -0.342978 -0.938566 0.038208 -0.145822 -0.961761 0.231844 -0.023476 -0.892990 0.449464 -0.081916 -0.853821 0.514080 0.063373 -0.649212 0.757963 0.029201 -0.562910 0.826002 -0.106219 -0.528984 0.841958 -0.354767 -0.835391 0.419836 -0.450079 -0.774296 0.444853 -0.447383 -0.838680 0.310587 -0.376538 -0.916748 -0.133385 -0.336705 -0.888453 -0.311899 -0.373187 -0.922353 -0.099981 -0.244101 -0.964080 0.104713 -0.098073 -0.986095 0.134159 0.088297 -0.943736 0.318694 0.217656 -0.785972 0.578683 0.170747 -0.673275 0.719407 0.288964 -0.462686 0.838106 0.311317 -0.330781 0.890879 0.202008 -0.193121 0.960155 -0.269550 -0.624578 0.732970 -0.388611 -0.856850 0.338805 -0.523009 -0.763053 0.379751 -0.453159 -0.877613 0.156340 -0.332330 -0.924540 -0.186503 -0.339987 -0.897190 -0.281884 -0.383212 -0.897218 -0.219427 -0.332345 -0.942963 0.019172 -0.202481 -0.977956 0.051020 -0.086620 -0.993411 0.075048 0.051041 -0.985239 0.163398 0.524823 -0.628171 0.574423 0.355306 -0.565864 0.744013 0.600828 -0.236821 0.763493 0.548826 -0.111400 0.828481 0.390180 0.016376 0.920593 -0.028697 -0.168177 0.985339 -0.382823 -0.743672 0.548086 -0.453560 -0.809356 0.373129 -0.538806 -0.787098 0.300275 -0.458807 -0.887484 0.043212 -0.387688 -0.915411 -0.108267 -0.331682 -0.903972 -0.269856 -0.413188 -0.885323 -0.213259 -0.364988 -0.930977 -0.008107 -0.416228 -0.900758 -0.124054 -0.332036 -0.938363 -0.096059 
						-0.258890 -0.965822 0.012800 -0.176319 -0.981056 0.080253 -0.122763 -0.991776 -0.036200 0.016945 -0.998768 0.046632 0.235022 -0.950779 0.201952 0.253869 -0.897009 0.361837 0.501130 -0.738179 0.451620 0.787682 -0.503922 0.354430 0.642161 -0.579874 0.501374 0.409930 -0.562305 0.718172 0.407734 -0.768345 -0.493355 0.258782 -0.916343 -0.305528 0.112291 -0.983456 -0.142142 0.270437 -0.910664 -0.312338 0.552793 -0.666028 -0.500826 0.510422 -0.725725 -0.461295 0.125054 0.119193 0.984964 -0.297165 -0.309559 0.903253 -0.407133 -0.672332 0.618233 -0.594051 -0.693417 0.407769 -0.514217 -0.841016 0.168143 -0.397731 -0.914153 -0.078327 -0.366163 -0.911583 -0.186924 -0.287896 -0.879570 -0.378776 -0.354215 -0.900078 -0.253756 -0.414430 -0.877200 -0.242422 -0.431856 -0.877328 -0.209274 -0.379562 -0.884954 -0.269794 -0.354729 -0.912776 -0.202503 -0.344368 -0.903714 -0.254385 -0.261911 -0.960001 -0.099002 -0.224565 -0.971963 -0.069700 -0.311058 -0.890422 -0.332253 -0.193258 -0.948144 -0.252337 0.174497 -0.984289 0.026935 0.469628 -0.853061 0.227455 0.833471 -0.538438 0.124141 0.696044 -0.569725 0.436963 0.577700 -0.665144 0.473123 -0.038576 -0.966532 0.253628 0.154695 -0.955494 0.251197 -0.090938 -0.985602 0.142545 0.104731 -0.985139 -0.136132 0.542761 -0.731434 -0.412812 0.688173 -0.485705 -0.538989 0.723824 -0.424359 -0.544057 -0.251823 0.080276 0.964438 -0.567540 -0.680899 0.462898 -0.701104 -0.653387 0.285551 -0.365410 -0.929517 0.049730 -0.251908 -0.952040 -0.173674 -0.206970 -0.932784 -0.295088 -0.149620 -0.903203 -0.402292 -0.290406 -0.847927 -0.443491 -0.281839 -0.828943 -0.483136 -0.417327 -0.839471 -0.348033 -0.374634 -0.849845 -0.370693 -0.362625 -0.841947 -0.399534 -0.362119 -0.859580 -0.360543 -0.346634 -0.808608 -0.475392 -0.347486 -0.814598 -0.464417 -0.338663 -0.833085 -0.437352 -0.527412 -0.612772 -0.588513 -0.464673 -0.715464 -0.521719 
						-0.052801 -0.974993 -0.215872 0.306170 -0.951819 0.017312 0.520591 -0.853001 -0.037069 0.976797 -0.131797 -0.168808 0.939330 -0.334863 0.074336 0.826234 -0.493051 0.272465 0.839472 -0.463569 0.283532 0.433628 -0.869186 0.237661 0.495004 -0.859254 0.129047 0.174223 -0.973993 0.144861 -0.381229 -0.917867 0.110382 -0.193357 -0.970561 -0.143609 0.579838 -0.790855 -0.195796 0.714158 -0.547510 -0.436131 0.770066 -0.277626 -0.574388 0.779653 -0.148894 -0.608252 0.776618 -0.117980 -0.618826 -0.602263 -0.247116 0.759087 -0.763283 -0.413446 0.496450 -0.697588 -0.616700 0.364764 -0.585942 -0.806856 0.075209 -0.115431 -0.936239 -0.331862 -0.123413 -0.886111 -0.446740 -0.129734 -0.829103 -0.543836 -0.083961 -0.771990 -0.630065 -0.263196 -0.772000 -0.578570 -0.328393 -0.785398 -0.524698 -0.330164 -0.745302 -0.579238 -0.354012 -0.688741 -0.632701 -0.352341 -0.742047 -0.570283 -0.393587 -0.614088 -0.684094 -0.426160 -0.571416 -0.701335 -0.473982 -0.545305 -0.691363 -0.107133 -0.970989 -0.213781 -0.669621 -0.262639 -0.694714 -0.647324 -0.454643 -0.611777 -0.429790 -0.798206 -0.422075 0.050812 -0.977954 -0.202544 0.154384 -0.964637 -0.213638 0.732132 -0.661964 -0.160578 0.850617 -0.402301 -0.338535 0.944398 0.119889 -0.306167 0.962669 -0.266637 -0.046609 0.739883 -0.659418 0.133197 0.801668 -0.583049 0.131840 0.493794 -0.869330 -0.020777 0.059687 -0.992744 0.104389 -0.207272 -0.930949 -0.300620 -0.056696 -0.942422 -0.329585 0.526267 -0.850174 -0.015692 0.789639 -0.526563 -0.314964 0.786262 -0.333088 -0.520427 0.725053 0.031329 -0.687980 0.673894 0.270200 -0.687647 0.585655 0.333219 -0.738900 -0.826279 -0.434376 0.358582 -0.721152 -0.656696 0.220658 -0.626191 -0.776920 0.065425 -0.054043 -0.933991 -0.353185 -0.074330 -0.872891 -0.482219 -0.032110 -0.827649 -0.560326 0.021174 -0.741773 -0.670317 -0.115348 -0.701090 -0.703682 -0.235905 -0.706278 -0.667473 
						-0.260962 -0.670833 -0.694177 -0.314026 -0.404890 -0.858750 -0.358659 -0.381008 -0.852172 -0.417645 -0.332663 -0.845522 -0.483157 -0.282929 -0.828559 -0.559942 -0.195655 -0.805099 -0.096527 -0.972639 -0.211317 -0.696141 -0.089471 -0.712308 -0.726381 -0.316942 -0.609851 -0.613378 -0.623469 -0.484823 -0.328988 -0.878015 -0.347645 -0.167692 -0.934489 -0.314020 0.312945 -0.909196 -0.274641 0.435820 -0.816735 -0.378159 0.895834 -0.062280 -0.440002 0.973457 -0.228575 0.011577 0.946501 0.154514 0.283306 0.921792 -0.110738 0.371533 0.950742 -0.267637 0.156397 0.801174 -0.591946 0.087866 0.550395 -0.832155 0.067699 0.104236 -0.994439 0.015059 0.235892 -0.953475 -0.187722 0.193209 -0.953695 -0.230512 0.505774 -0.860289 0.064001 0.805082 -0.553512 -0.213230 0.804624 -0.369198 -0.465052 0.761579 -0.193936 -0.618374 0.736948 -0.076611 -0.671594 0.661698 0.110822 -0.741535 0.566296 0.362629 -0.740142 -0.808057 -0.544205 0.225577 -0.629463 -0.775905 0.041798 -0.423564 -0.902912 -0.073098 -0.348748 -0.933307 -0.085520 0.049778 -0.930148 -0.363794 -0.002376 -0.901036 -0.433738 0.002396 -0.801319 -0.598232 0.046268 -0.735226 -0.676241 0.009682 -0.639692 -0.768570 -0.158950 -0.635812 -0.755300 -0.195674 -0.601009 -0.774919 -0.263029 -0.538563 -0.800479 -0.228849 -0.201006 -0.952483 -0.323687 -0.079822 -0.942791 -0.419225 -0.105508 -0.901731 -0.505536 -0.148049 -0.850009 -0.605588 -0.090412 -0.790625 -0.183385 -0.949630 -0.254112 -0.699370 -0.071469 -0.711178 -0.782858 -0.112834 -0.611884 -0.623113 -0.619281 -0.477725 -0.473082 -0.776112 -0.416944 -0.338500 -0.847384 -0.409094 0.062220 -0.926927 -0.370046 0.120114 -0.870270 -0.477705 0.504577 -0.687372 -0.522420 0.918407 -0.169447 0.357514 0.870251 -0.354670 0.341867 0.871413 -0.345878 0.347863 0.915330 -0.372370 0.153334 0.778553 -0.606440 0.161511 0.442558 -0.896319 0.027464 0.602798 -0.766352 0.222124 
						0.469522 -0.881570 0.048818 0.490349 -0.863392 0.118793 0.830682 -0.546019 -0.108770 0.833104 -0.436596 -0.339591 0.770022 -0.227332 -0.596143 0.674459 -0.051214 -0.736534 0.695549 -0.017581 -0.718264 0.604750 0.133629 -0.785125 0.446636 0.407861 -0.796345 0.529073 0.130548 -0.838474 0.265835 0.384578 -0.883986 -0.484442 -0.867854 -0.110206 0.059576 0.184256 -0.981071 -0.012398 0.182280 -0.983168 0.108040 0.190353 -0.975752 0.071920 0.183180 -0.980445 0.036691 -0.810902 -0.584030 0.117272 -0.708077 -0.696329 0.073645 -0.628525 -0.774295 -0.052996 -0.552736 -0.831669 -0.123970 -0.519511 -0.845423 -0.174462 -0.427766 -0.886893 -0.182230 -0.181820 -0.966299 -0.312441 -0.136562 -0.940070 -0.424106 -0.155100 -0.892232 -0.519191 -0.208948 -0.828723 -0.599742 -0.200143 -0.774760 0.021719 0.259942 -0.965380 0.289558 0.037142 -0.956439 -0.804142 -0.204540 -0.558139 -0.511309 -0.720638 -0.468235 -0.233403 -0.864082 -0.445965 -0.277718 -0.843596 -0.459585 0.037312 -0.841229 -0.539390 0.667500 -0.677078 0.309853 0.643767 -0.705922 0.295361 0.801433 -0.459935 0.382316 0.832316 -0.432571 0.346600 0.840605 -0.482202 0.246705 0.726733 -0.654548 0.208392 0.786237 -0.472873 0.397771 0.711587 -0.614039 0.341468 0.516092 -0.825814 0.227333 0.749434 -0.662072 0.003017 0.845343 -0.482135 -0.230090 0.815423 -0.375146 -0.440852 0.673173 -0.165491 -0.720729 0.544449 -0.020491 -0.838544 0.630100 -0.010561 -0.776442 0.398756 0.098015 -0.911804 0.139989 0.284054 -0.948534 0.087885 -0.435017 -0.896123 0.125162 -0.276726 -0.952763 0.112914 -0.291343 -0.949931 0.157436 -0.435808 -0.886163 0.153084 0.179814 -0.971716 0.077402 0.183145 -0.980034 0.196579 0.181277 -0.963585 0.041275 0.167861 -0.984946 0.127092 -0.627819 -0.767913 0.024869 -0.498888 -0.866309 -0.080192 -0.456915 -0.885888 -0.103347 -0.342586 -0.933785 -0.133270 -0.063718 -0.989029 
						-0.287541 -0.065811 -0.955505 -0.437760 -0.086954 -0.894877 -0.534864 -0.157651 -0.830100 -0.589797 -0.229250 -0.774328 -0.737746 -0.104183 -0.666991 0.269287 -0.157683 -0.950064 -0.749203 -0.453383 -0.482845 -0.523373 -0.713576 -0.465714 -0.572346 -0.705132 -0.418579 -0.335221 -0.813999 -0.474375 0.445234 -0.775730 0.447225 0.457985 -0.753684 0.471391 0.728099 -0.621003 0.290219 0.688946 -0.685251 0.236186 0.695993 -0.711188 0.099024 0.775102 -0.627961 -0.069866 0.834555 -0.448965 -0.319294 0.793124 -0.359564 -0.491598 0.649336 -0.294701 -0.701080 0.485246 -0.126420 -0.865190 0.541683 -0.037334 -0.839754 0.388940 -0.306530 -0.868772 0.491586 -0.405704 -0.770550 0.296870 -0.518218 -0.802071 0.155946 -0.531596 -0.832518 0.234000 -0.601112 -0.764139 0.396758 -0.575121 -0.715415 -0.006927 0.148886 -0.988830 0.171114 0.172581 -0.970018 0.055630 -0.523695 -0.850087 0.034046 -0.337259 -0.940796 -0.047509 -0.289546 -0.955984 -0.105688 0.090131 -0.990306 -0.295256 0.095936 -0.950589 -0.368493 0.208000 -0.906062 -0.525681 0.137098 -0.839562 -0.623720 -0.098086 -0.775469 -0.718188 -0.139932 -0.681634 0.434362 -0.062647 -0.898557 0.428508 -0.218481 -0.876725 -0.826782 0.093500 -0.554697 -0.909385 -0.107544 -0.401811 -0.695415 -0.545218 -0.468118 -0.718217 -0.517239 -0.465433 -0.562090 -0.673426 -0.480159 0.388821 -0.711100 0.585794 0.387807 -0.689155 0.612104 0.620170 -0.692958 0.367694 0.697363 -0.697578 0.164529 0.719340 -0.685954 0.109626 0.820971 -0.534455 -0.200911 0.820065 -0.442603 -0.362762 0.784820 -0.417594 -0.457900 0.691762 -0.388251 -0.608873 0.739135 -0.420042 -0.526541 0.798601 -0.424202 -0.426954 0.597302 -0.453470 -0.661509 0.625076 -0.519543 -0.582542 0.382579 -0.617139 -0.687585 0.212914 -0.635403 -0.742247 -0.058344 0.144990 -0.987711 0.096188 0.162095 -0.982076 0.118274 -0.292288 -0.948988 0.125792 -0.062954 -0.990057 
						-0.238754 0.054573 -0.969545 -0.306425 0.146007 -0.940630 -0.323109 0.415700 -0.850173 -0.471963 0.492094 -0.731502 -0.709951 0.234620 -0.664020 -0.756975 -0.024493 -0.652985 -0.848229 0.075608 -0.524206 -0.921543 -0.124616 -0.367737 -0.839063 -0.353917 -0.413179 -0.605840 -0.558776 -0.566328 0.418961 -0.597103 0.684061 0.290511 -0.580078 0.760994 0.598724 -0.669183 0.440141 0.694298 -0.667432 0.269230 0.760348 -0.631700 0.151082 0.724686 -0.668867 0.165671 0.801571 -0.597892 -0.003190 0.819554 -0.474787 -0.320795 0.805476 -0.460246 -0.373339 0.812322 -0.424745 -0.399656 0.757086 -0.496818 -0.424256 0.587587 -0.592833 -0.550718 0.332042 -0.662254 -0.671690 0.137816 -0.692392 -0.708237 -0.043176 0.218584 -0.974863 -0.088821 0.196231 -0.976526 0.211580 -0.022790 -0.977095 -0.133469 0.258337 -0.956791 -0.204118 0.152289 -0.967028 0.993762 -0.103431 -0.041699 0.997193 -0.056899 0.048675 0.940252 0.105290 0.323791 0.983015 0.008243 0.183337 0.911955 -0.384891 0.142115 0.936626 -0.265890 0.228112 0.831686 -0.518143 0.199567 0.872634 -0.433240 0.225419 0.869807 -0.154307 0.468641 0.837534 -0.416253 0.353935 0.782220 -0.144783 0.605945 0.765256 0.030173 0.643019 -0.867167 -0.020619 -0.497590 0.827483 -0.475282 -0.298964 -0.866548 -0.306691 -0.393745 0.446723 -0.480471 0.754709 0.293974 -0.430650 0.853299 0.421856 -0.625678 0.656174 0.723565 -0.613936 0.315494 0.844039 -0.528429 0.091437 0.784066 -0.612453 0.100707 0.804214 -0.593691 0.027758 0.816982 -0.510633 -0.267945 0.816282 -0.479182 -0.322597 0.820589 -0.475230 -0.317475 0.738654 -0.534220 -0.411095 0.683728 -0.576504 -0.447392 0.581526 -0.619507 -0.527294 0.464599 -0.705339 -0.535391 0.363886 -0.791176 -0.491557 0.781124 -0.596401 -0.184802 0.759108 -0.635025 -0.143175 0.938854 -0.344314 -0.001259 0.932213 -0.173254 0.317746 0.934458 -0.258844 0.244514 
						0.856015 -0.482554 0.185416 0.788578 -0.558788 0.256710 0.827482 -0.334286 0.451139 0.622970 -0.115073 0.773735 0.664695 -0.106088 0.739544 0.797817 -0.499655 -0.337393 0.496363 -0.293202 0.817102 0.483819 -0.266737 0.833529 0.354257 -0.489649 0.796709 0.655219 -0.612455 0.442252 0.810087 -0.568955 0.141598 0.840732 -0.537997 -0.061064 0.814063 -0.580714 0.008575 0.803309 -0.525928 -0.279454 0.782889 -0.522254 -0.338136 0.750070 -0.549391 -0.368191 0.685191 -0.591634 -0.424833 0.703250 -0.600249 -0.380974 0.729159 -0.562609 -0.389613 0.867110 -0.491319 -0.082010 0.878706 -0.473886 0.057520 0.856286 -0.508755 0.089127 0.774808 -0.626160 0.087155 0.828540 -0.507797 0.235930 0.659281 -0.247782 0.709896 0.562263 -0.451728 0.692677 0.605523 -0.571591 0.553738 0.740252 -0.576069 0.346658 0.817800 -0.575078 -0.022112 0.821585 -0.563658 -0.085365 0.811038 -0.541842 -0.220509 0.806415 -0.558555 -0.194193 0.734200 -0.591519 -0.333250 0.749730 -0.602037 -0.274692 0.786201 -0.603384 -0.133476 0.773455 -0.623404 -0.114604 0.809387 -0.587275 0.000514 0.696867 -0.499058 0.515090 0.778446 -0.591756 0.209398 0.809438 -0.574019 -0.123745 0.782853 -0.585239 -0.211274 
					</float_array>
					<technique_common>
						<accessor count="489" offset="0" source="#meshId0-bitangents-array" stride="3">
							<param name="X" type="float" />
							<param name="Y" type="float" />
							<param name="Z" type="float" />
						</accessor>
					</technique_common>
				</source>
				<source id="meshId0-tex0" name="meshId0-tex0">
					<float_array id="meshId0-tex0-array" count="978"> 
						0.321518 0.174771 0.299036 0.188810 0.283492 0.166009 0.306833 0.156111 0.327081 0.196526 0.314446 0.207981 0.276402 0.203670 0.258202 0.181162 0.268996 0.139200 0.297314 0.129708 0.322319 0.124844 0.325291 0.152667 0.347026 0.180716 0.349124 0.153184 0.343518 0.201989 0.333912 0.222311 0.297311 0.224433 0.255539 0.220982 0.234391 0.200093 0.239550 0.154163 0.255819 0.107976 0.289033 0.099650 0.320353 0.095878 0.350054 0.124718 0.375064 0.156697 0.370630 0.185036 0.363833 0.210505 0.354669 0.235336 0.317069 0.246705 0.272851 0.242129 0.234009 0.236649 0.216465 0.223883 0.211981 0.174947 0.221584 0.121887 0.242223 0.072382 0.281302 0.065378 0.318603 0.062860 0.351171 0.095388 0.378279 0.127301 0.400837 0.164352 0.394200 0.192332 0.386097 0.219848 0.379492 0.248899 0.341745 0.258317 0.299044 0.256858 0.253363 0.250640 0.219258 0.255634 0.201366 0.244943 0.189232 0.145099 0.199124 0.077956 0.230836 0.035965 0.275044 0.027288 0.318892 0.024751 0.354883 0.065095 0.382938 0.097887 0.408475 0.133444 0.426507 0.174477 0.417402 0.201862 0.409869 0.226427 0.400783 0.250905 0.361920 0.272649 0.312584 0.266890 0.330535 0.280316 0.284085 0.274380 
						0.266125 0.261733 0.236444 0.267216 0.208624 0.274016 0.191149 0.265550 0.184336 0.234452 0.194280 0.219382 0.183366 0.196894 0.159792 0.177101 0.169845 0.105184 0.196905 0.044830 0.958436 0.710231 0.970961 0.755911 0.926931 0.758392 0.915034 0.719803 0.947913 0.668340 0.908968 0.674443 0.361431 0.029064 0.389164 0.075320 0.412123 0.094800 0.437736 0.145599 0.453724 0.187744 0.442491 0.211787 0.433238 0.237023 0.424442 0.260383 0.393262 0.266882 0.380139 0.289016 0.347491 0.293809 0.318215 0.298736 0.301209 0.286374 0.270778 0.293194 0.247351 0.281747 0.228248 0.280576 0.200696 0.292205 0.182844 0.284157 0.172949 0.256541 0.164842 0.222639 0.133746 0.210183 0.141203 0.070141 0.169884 0.044248 0.968241 0.792136 0.942915 0.803087 0.889991 0.760161 0.870393 0.721969 0.866808 0.675633 0.936683 0.628417 0.896416 0.634732 0.401871 0.039528 0.451100 0.112974 0.473265 0.159306 0.470126 0.198393 0.469873 0.224757 0.459572 0.248996 0.449205 0.274169 0.413736 0.282913 0.399590 0.305135 0.365006 0.308832 0.332764 0.310903 0.305188 0.315054 0.289235 0.305308 0.260097 0.313653 0.240435 0.304731 0.219238 0.299113 0.193961 0.310407 0.175284 0.303337 
						0.164340 0.277340 0.153424 0.246975 0.132318 0.236466 0.104027 0.185677 0.124038 0.155746 0.137526 0.120552 0.117467 0.100172 0.928229 0.837090 0.896717 0.824293 0.897739 0.793511 0.860194 0.775408 0.842509 0.749603 0.832176 0.706017 0.840425 0.669699 0.856527 0.641188 0.921358 0.592181 0.895394 0.597705 0.433481 0.055936 0.471069 0.075106 0.481981 0.129876 0.492993 0.185692 0.489725 0.261914 0.477593 0.290480 0.436444 0.299254 0.420065 0.323083 0.382231 0.325525 0.348004 0.325841 0.317090 0.325312 0.302083 0.334219 0.274804 0.326970 0.255394 0.328366 0.233355 0.324470 0.212840 0.317422 0.498937 0.232922 0.187485 0.330282 0.168321 0.324241 0.156741 0.297177 0.144752 0.269508 0.124209 0.261420 0.113777 0.227579 0.083158 0.214866 0.064489 0.167069 0.088844 0.130546 0.914178 0.869627 0.886325 0.851318 0.874197 0.817409 0.872177 0.795412 0.841805 0.787727 0.821152 0.772758 0.814425 0.734789 0.799696 0.693583 0.807549 0.661550 0.857777 0.595837 0.902154 0.567309 0.865403 0.557150 0.505500 0.096426 0.501631 0.145669 0.523013 0.172777 0.525604 0.275178 0.509828 0.308200 0.461712 0.317692 0.442361 0.343536 0.400759 0.344724 0.363306 0.343127 
						0.330823 0.339847 0.295860 0.353836 0.275672 0.352055 0.251916 0.351321 0.229148 0.345403 0.207672 0.338169 0.535983 0.239123 0.180513 0.353350 0.160489 0.346026 0.149796 0.318160 0.138055 0.291449 0.117164 0.285167 0.099820 0.253643 0.069999 0.244622 0.048671 0.202754 0.891084 0.897490 0.859929 0.919496 0.841973 0.888768 0.868845 0.873592 0.868341 0.837908 0.857177 0.813516 0.854277 0.801124 0.828965 0.803011 0.807310 0.795160 0.797413 0.761327 0.788324 0.722699 0.770539 0.683543 0.776735 0.653509 0.815920 0.627680 0.822180 0.590962 0.828774 0.551475 0.536512 0.121320 0.561144 0.156052 0.534861 0.203309 0.508412 0.207805 0.564681 0.288813 0.546335 0.327572 0.490177 0.338850 0.467553 0.366823 0.420170 0.366507 0.379230 0.363415 0.344260 0.358107 0.311931 0.350080 0.301834 0.376061 0.276631 0.377857 0.250919 0.375426 0.226198 0.369521 0.202700 0.361616 0.577491 0.244174 0.173411 0.379091 0.155653 0.362257 0.138829 0.335135 0.134724 0.314357 0.113672 0.309967 0.092446 0.280567 0.061851 0.276177 0.033978 0.235028 0.826157 0.932053 0.811197 0.901075 0.830903 0.860240 0.854389 0.855896 0.854502 0.830106 0.845377 0.809845 0.821491 0.821097 
						0.798623 0.818392 0.783615 0.785338 0.774348 0.749193 0.762786 0.711244 0.743216 0.676091 0.746287 0.647483 0.782204 0.620957 0.786758 0.585664 0.792530 0.545462 0.751430 0.580530 0.753056 0.541823 0.572778 0.197309 0.588655 0.522069 0.627674 0.529667 0.620839 0.570103 0.581034 0.562671 0.523686 0.363053 0.496070 0.394695 0.441784 0.391868 0.395586 0.386453 0.357050 0.379456 0.323168 0.369932 0.307895 0.401291 0.279766 0.404286 0.250781 0.402562 0.223000 0.396598 0.196944 0.388352 0.670824 0.533680 0.666277 0.584716 0.133866 0.363746 0.113832 0.335342 0.088492 0.307595 0.058330 0.308182 0.024720 0.271732 0.795468 0.943095 0.782045 0.910927 0.800596 0.872229 0.835057 0.843656 0.849672 0.842238 0.839197 0.825491 0.819531 0.842701 0.794460 0.843664 0.770970 0.810557 0.760357 0.773344 0.752141 0.736669 0.738425 0.702101 0.716636 0.672050 0.716324 0.644928 0.749435 0.615869 0.711667 0.578155 0.713950 0.539568 0.581956 0.603648 0.619707 0.590296 0.627036 0.627421 0.597576 0.639206 0.543289 0.554233 0.550606 0.513986 0.505499 0.546337 0.511999 0.506597 0.465558 0.421007 0.413376 0.412789 0.370227 0.403581 0.333681 0.392341 0.314217 0.432484 
						0.281799 0.434873 0.249346 0.432728 0.218293 0.426929 0.188530 0.417615 0.160066 0.405699 0.657422 0.617828 0.111623 0.358135 0.088321 0.334473 0.060027 0.339759 0.022071 0.309504 0.763010 0.955530 0.751712 0.920718 0.770886 0.878368 0.757927 0.842921 0.747164 0.796371 0.739209 0.758674 0.731302 0.725281 0.716218 0.697145 0.690892 0.672824 0.687335 0.645414 0.716033 0.613102 0.635445 0.659170 0.611156 0.668817 0.568264 0.653265 0.548131 0.620949 0.516825 0.641568 0.539179 0.671157 0.473367 0.501068 0.467616 0.540371 0.434143 0.444013 0.383850 0.429634 0.344023 0.417296 0.328279 0.468507 0.280515 0.471789 0.245498 0.466628 0.210861 0.460281 0.177828 0.450277 0.146377 0.436422 0.681386 0.613828 0.660954 0.650356 0.130059 0.391292 0.104849 0.380466 0.088905 0.358042 0.068984 0.370556 0.025900 0.348489 0.728624 0.965829 0.719355 0.930550 0.740821 0.889715 0.729599 0.819197 0.724715 0.780021 0.713883 0.743016 0.716284 0.713549 0.694040 0.697345 0.665385 0.677299 0.642516 0.685646 0.624829 0.693300 0.585881 0.681845 0.559646 0.698718 0.512509 0.692623 0.488508 0.665182 0.435328 0.496312 0.429707 0.535761 0.399732 0.463271 0.354370 0.449464 
						0.315745 0.513151 0.277297 0.508887 0.240176 0.504068 0.200094 0.498401 0.161053 0.485691 0.126020 0.468284 0.115677 0.420033 0.088427 0.398421 0.093434 0.370869 0.040334 0.387149 0.690944 0.971943 0.686930 0.937167 0.710335 0.901851 0.726472 0.861912 0.705547 0.837564 0.706595 0.798859 0.705656 0.762955 0.701461 0.721399 0.670161 0.703209 0.601223 0.707005 0.577870 0.723927 0.534181 0.718385 0.488212 0.715736 0.462140 0.690362 0.390953 0.532168 0.397034 0.492596 0.363462 0.473261 0.360368 0.485137 0.352270 0.520872 0.420978 0.795285 0.454724 0.789721 0.464756 0.818630 0.434715 0.831666 0.451314 0.864671 0.482897 0.846153 0.503890 0.874182 0.472847 0.897694 0.501576 0.926342 0.529070 0.898772 0.556292 0.917277 0.534807 0.946962 0.092668 0.448295 0.641726 0.709172 0.062058 0.421477 0.650445 0.973264 0.653169 0.939115 0.681593 0.908952 0.698102 0.875675 0.682821 0.853267 0.686419 0.816469 0.687606 0.779688 0.693386 0.748136 0.678847 0.726513 0.618664 0.730052 0.595649 0.748118 0.554814 0.743458 0.511355 0.740358 0.467500 0.740844 0.437813 0.718929 0.423664 0.756601 0.455044 0.766852 0.472172 0.780161 0.489775 0.802103 0.508747 0.827295 
						0.529980 0.852441 0.552566 0.874802 0.575454 0.893025 0.586419 0.932077 0.569982 0.963169 0.655511 0.737774 0.610085 0.972036 0.615420 0.930790 0.655278 0.910888 0.674269 0.885921 0.661290 0.867552 0.665406 0.832877 0.667564 0.796253 0.670594 0.760095 0.633542 0.753306 0.612722 0.770939 0.574059 0.767479 0.532396 0.764039 0.490109 0.761723 0.510899 0.784609 0.531987 0.808009 0.552470 0.831319 0.572631 0.852647 0.593120 0.871134 0.597501 0.911253 0.632712 0.903452 0.657407 0.892447 0.643868 0.882347 0.645264 0.849431 0.647545 0.813143 0.650085 0.775379 0.630016 0.792809 0.592602 0.790364 0.552809 0.787778 0.572726 0.810705 0.591711 0.831632 0.609198 0.850503 0.612135 0.887753 0.627544 0.867238 0.627640 0.831431 0.610476 0.811637 
					</float_array>
					<technique_common>
						<accessor count="489" offset="0" source="#meshId0-tex0-array" stride="2">
							<param name="S" type="float" />
							<param name="T" type="float" />
						</accessor>
					</technique_common>
				</source>
				<vertices id="meshId0-vertices">
					<input semantic="POSITION" source="#meshId0-positions" />
				</vertices>
				<polylist count="878" material="defaultMaterial">
					<input offset="0" semantic="VERTEX" source="#meshId0-vertices" />
					<input offset="0" semantic="NORMAL" source="#meshId0-normals" />
					<input offset="0" semantic="TANGENT" source="#meshId0-tangents" />
					<input offset="0" semantic="BINORMAL" source="#meshId0-bitangents" />
					<input offset="0" semantic="TEXCOORD" source="#meshId0-tex0" set="0" />
					<vcount>
						3 3 3 3 3 3 3 3 3 3 3 3 3 3 3 3 3 3 3 3 3 3 3 3 3 3 3 3 3 3 3 3 3 3 3 3 3 3 3 3 3 3 3 3 3 3 3 3 3 3 3 3 3 3 3 3 3 3 3 3 3 3 3 3 
						3 3 3 3 3 3 3 3 3 3 3 3 3 3 3 3 3 3 3 3 3 3 3 3 3 3 3 3 3 3 3 3 3 3 3 3 3 3 3 3 3 3 3 3 3 3 3 3 3 3 3 3 3 3 3 3 3 3 3 3 3 3 3 3 
						3 3 3 3 3 3 3 3 3 3 3 3 3 3 3 3 3 3 3 3 3 3 3 3 3 3 3 3 3 3 3 3 3 3 3 3 3 3 3 3 3 3 3 3 3 3 3 3 3 3 3 3 3 3 3 3 3 3 3 3 3 3 3 3 
						3 3 3 3 3 3 3 3 3 3 3 3 3 3 3 3 3 3 3 3 3 3 3 3 3 3 3 3 3 3 3 3 3 3 3 3 3 3 3 3 3 3 3 3 3 3 3 3 3 3 3 3 3 3 3 3 3 3 3 3 3 3 3 3 
						3 3 3 3 3 3 3 3 3 3 3 3 3 3 3 3 3 3 3 3 3 3 3 3 3 3 3 3 3 3 3 3 3 3 3 3 3 3 3 3 3 3 3 3 3 3 3 3 3 3 3 3 3 3 3 3 3 3 3 3 3 3 3 3 
						3 3 3 3 3 3 3 3 3 3 3 3 3 3 3 3 3 3 3 3 3 3 3 3 3 3 3 3 3 3 3 3 3 3 3 3 3 3 3 3 3 3 3 3 3 3 3 3 3 3 3 3 3 3 3 3 3 3 3 3 3 3 3 3 
						3 3 3 3 3 3 3 3 3 3 3 3 3 3 3 3 3 3 3 3 3 3 3 3 3 3 3 3 3 3 3 3 3 3 3 3 3 3 3 3 3 3 3 3 3 3 3 3 3 3 3 3 3 3 3 3 3 3 3 3 3 3 3 3 
						3 3 3 3 3 3 3 3 3 3 3 3 3 3 3 3 3 3 3 3 3 3 3 3 3 3 3 3 3 3 3 3 3 3 3 3 3 3 3 3 3 3 3 3 3 3 3 3 3 3 3 3 3 3 3 3 3 3 3 3 3 3 3 3 
						3 3 3 3 3 3 3 3 3 3 3 3 3 3 3 3 3 3 3 3 3 3 3 3 3 3 3 3 3 3 3 3 3 3 3 3 3 3 3 3 3 3 3 3 3 3 3 3 3 3 3 3 3 3 3 3 3 3 3 3 3 3 3 3 
						3 3 3 3 3 3 3 3 3 3 3 3 3 3 3 3 3 3 3 3 3 3 3 3 3 3 3 3 3 3 3 3 3 3 3 3 3 3 3 3 3 3 3 3 3 3 3 3 3 3 3 3 3 3 3 3 3 3 3 3 3 3 3 3 
						3 3 3 3 3 3 3 3 3 3 3 3 3 3 3 3 3 3 3 3 3 3 3 3 3 3 3 3 3 3 3 3 3 3 3 3 3 3 3 3 3 3 3 3 3 3 3 3 3 3 3 3 3 3 3 3 3 3 3 3 3 3 3 3 
						3 3 3 3 3 3 3 3 3 3 3 3 3 3 3 3 3 3 3 3 3 3 3 3 3 3 3 3 3 3 3 3 3 3 3 3 3 3 3 3 3 3 3 3 3 3 3 3 3 3 3 3 3 3 3 3 3 3 3 3 3 3 3 3 
						3 3 3 3 3 3 3 3 3 3 3 3 3 3 3 3 3 3 3 3 3 3 3 3 3 3 3 3 3 3 3 3 3 3 3 3 3 3 3 3 3 3 3 3 3 3 3 3 3 3 3 3 3 3 3 3 3 3 3 3 3 3 3 3 
						3 3 3 3 3 3 3 3 3 3 3 3 3 3 3 3 3 3 3 3 3 3 3 3 3 3 3 3 3 3 3 3 3 3 3 3 3 3 3 3 3 3 3 3 3 3 
					</vcount>
					<p>
						3 0 1 1 2 3 0 4 5 5 1 0 2 1 6 6 7 2 9 3 2 2 8 9 11 3 9 9 10 11 13 12 0 0 11 13 5 4 14 14 15 5 1 5 16 16 6 1 14 4 0 0 12 14 7 6 17 17 18 7 8 2 7 7 19 8 21 9 8 8 20 21 22 10 9 9 21 22 13 11 10 10 23 13 25 12 13 13 24 25 15 14 26 26 27 15 5 15 28 28 16 5 6 16 29 29 17 6 26 14 12 12 25 26 18 17 30 30 31 18 7 18 32 32 19 7 20 8 19 19 33 20 35 21 20 20 34 35 36 22 21 21 35 36 37 23 10 10 22 37 24 13 23 23 38 24 40 25 24 24 39 40 42 27 26 26 41 42 28 15 27 27 43 28 16 28 44 44 29 16 17 29 45 45 30 17 41 26 25 25 40 41 
						31 30 46 46 47 31 33 19 32 32 48 33 34 20 33 33 49 34 51 35 34 34 50 51 52 36 35 35 51 52 53 37 22 22 36 53 38 23 37 37 54 38 39 24 38 38 55 39 57 40 39 39 56 57 59 42 41 41 58 59 43 27 42 42 60 43 62 61 28 28 43 62 29 44 63 63 64 29 30 45 65 65 46 30 58 41 40 40 57 58 47 46 66 66 67 47 69 31 47 47 68 69 48 32 70 70 71 48 49 33 48 48 72 49 34 49 73 73 50 34 77 74 75 75 76 77 79 78 74 74 77 79 53 36 52 52 80 53 54 37 53 53 81 54 55 38 54 54 82 55 56 39 55 55 83 56 85 57 56 56 84 85 59 58 86 86 87 59 89 60 42 42 88 89 90 62 43 43 60 90 92 61 62 62 91 92 44 61 92 92 63 44 
						64 63 93 93 94 64 45 64 94 94 65 45 46 65 95 95 66 46 86 58 57 57 85 86 67 66 96 96 97 67 68 47 67 67 98 68 70 69 68 68 99 70 71 70 99 99 100 71 102 49 72 72 101 102 76 75 103 103 104 76 106 77 76 76 105 106 107 79 77 77 106 107 109 108 78 78 79 109 110 81 53 53 80 110 83 55 82 82 111 83 84 56 83 83 112 84 114 85 84 84 113 114 116 87 86 86 115 116 88 59 87 87 117 88 89 88 117 117 118 89 90 60 89 89 119 90 91 62 90 90 120 91 122 92 91 91 121 122 63 92 122 122 93 63 124 94 93 93 123 124 66 95 125 125 96 66 86 85 114 114 115 86 97 96 126 126 127 97 98 67 97 97 128 98 99 68 98 98 129 99 100 99 129 129 130 100 132 71 100 100 131 132 
						101 72 133 133 134 101 104 135 136 136 137 104 105 76 104 104 137 105 106 105 138 138 139 106 141 107 106 106 140 141 142 109 79 79 107 142 144 143 108 108 109 144 145 82 81 81 110 145 111 82 145 145 146 111 112 83 111 111 147 112 113 84 112 112 148 113 116 115 149 149 150 116 151 117 87 87 116 151 118 117 151 151 152 118 153 119 89 89 118 153 120 90 119 119 154 120 121 91 120 120 155 121 122 121 156 156 157 122 123 93 122 122 157 123 124 123 158 158 159 124 95 94 124 124 125 95 96 125 160 160 126 96 149 115 114 114 161 149 127 126 162 162 163 127 128 97 127 127 164 128 129 98 128 128 165 129 130 129 165 165 166 130 131 100 167 167 168 131 170 132 131 131 169 170 134 133 132 132 170 134 136 135 171 171 172 136 137 136 173 173 174 137 
						138 105 137 137 174 138 139 138 175 175 176 139 140 106 139 139 177 140 179 141 140 140 178 179 180 144 109 109 142 180 182 181 144 144 180 182 147 111 146 146 183 147 148 112 184 184 185 148 187 150 149 149 186 187 188 151 116 116 150 188 152 151 188 188 189 152 190 153 118 118 152 190 154 119 153 153 191 154 155 120 154 154 192 155 194 157 156 156 193 194 159 158 195 195 196 159 125 124 159 159 160 125 126 160 197 197 162 126 149 161 198 198 186 149 163 162 199 199 200 163 164 127 163 163 201 164 165 128 164 164 202 165 166 165 202 202 203 166 167 130 166 166 204 167 168 167 204 204 205 168 169 131 168 168 206 169 210 207 208 208 209 210 172 171 207 207 210 172 173 136 172 172 211 173 213 174 173 173 212 213 138 174 213 213 175 138 215 176 175 175 214 215 
						177 139 176 176 216 177 140 177 217 217 178 140 219 179 178 178 218 219 220 142 141 141 179 220 220 221 180 180 142 220 222 182 180 180 221 222 184 147 183 183 223 184 224 185 184 184 223 224 226 148 185 185 225 226 228 187 186 186 227 228 188 150 187 187 229 188 189 188 229 229 230 189 190 152 189 189 231 190 191 153 190 190 232 191 192 154 191 191 233 192 156 155 192 192 234 156 194 193 235 235 236 194 158 157 194 194 195 158 196 195 237 237 238 196 160 159 196 196 197 160 162 197 239 239 199 162 198 161 226 226 225 198 186 198 240 240 227 186 200 199 241 241 242 200 201 163 200 200 243 201 202 164 201 201 244 202 203 202 244 244 245 203 204 166 203 203 246 204 205 204 246 246 247 205 206 168 205 205 248 206 209 208 249 249 250 209 252 210 209 209 251 252 
						172 210 252 252 211 172 212 173 211 211 253 212 175 213 254 254 214 175 214 255 256 256 215 214 216 176 215 215 257 216 217 177 216 216 258 217 218 178 217 217 259 218 261 219 218 218 260 261 262 220 179 179 219 262 263 221 220 220 262 263 264 222 221 221 263 264 266 264 263 263 265 266 225 185 224 224 267 225 271 268 269 269 270 271 272 229 187 187 228 272 230 229 272 272 273 230 274 231 189 189 230 274 232 190 231 231 275 232 233 191 232 232 276 233 234 192 233 233 277 234 235 193 234 234 277 235 236 235 278 278 279 236 195 194 236 236 237 195 238 237 280 280 281 238 197 196 238 238 239 197 199 239 282 282 241 199 198 225 267 267 240 198 269 283 284 284 270 269 243 200 242 242 285 243 245 244 243 243 286 245 246 203 245 245 287 246 247 246 287 287 288 247 
						248 205 247 247 289 248 250 249 290 290 291 250 251 209 250 250 292 251 294 252 251 251 293 294 253 211 252 252 294 253 254 212 253 253 295 254 254 295 255 255 214 254 255 296 297 297 256 255 215 256 298 298 257 215 258 216 257 257 299 258 259 217 258 258 300 259 260 218 259 259 301 260 303 261 260 260 302 303 304 262 219 219 261 304 265 263 262 262 304 265 306 266 265 265 305 306 310 307 308 308 309 310 312 268 271 271 311 312 314 312 311 311 313 314 274 230 273 273 315 274 316 275 231 231 274 316 276 232 275 275 317 276 277 233 276 276 318 277 235 277 318 318 278 235 279 278 319 319 320 279 237 236 279 279 280 237 281 280 321 321 322 281 239 238 281 281 282 239 241 282 323 323 324 241 284 283 306 306 305 284 308 284 325 325 309 308 286 243 285 285 326 286 
						287 245 286 286 327 287 288 287 327 327 328 288 289 247 288 288 329 289 291 290 330 330 331 291 292 250 291 291 332 292 296 251 292 292 297 296 295 253 294 294 293 295 295 293 296 296 255 295 256 297 333 333 298 256 299 257 298 298 334 299 300 258 299 299 335 300 301 259 300 300 336 301 302 260 301 301 337 302 339 303 302 302 338 339 340 304 261 261 303 340 305 265 304 304 340 305 310 309 341 341 342 310 344 307 310 310 343 344 346 345 344 344 343 346 348 347 314 314 313 348 349 316 274 274 315 349 317 275 316 316 350 317 318 276 317 317 351 318 278 318 351 351 319 278 320 319 352 352 353 320 321 280 279 279 320 321 322 321 354 354 355 322 282 281 322 322 323 282 324 323 356 356 357 324 358 284 305 305 340 358 341 309 325 325 359 341 326 285 360 360 361 326 
						327 286 326 326 362 327 328 327 362 362 363 328 329 288 328 328 364 329 331 330 365 365 366 331 332 291 331 331 367 332 297 292 332 332 333 297 298 333 368 368 334 298 335 299 334 334 369 335 336 300 335 335 370 336 337 301 336 336 371 337 338 302 337 337 372 338 359 339 338 338 373 359 358 340 303 303 339 358 375 342 341 341 374 375 376 343 310 310 342 376 346 343 376 376 377 346 379 345 346 346 378 379 381 380 347 347 348 381 382 350 316 316 349 382 351 317 350 350 383 351 319 351 383 383 352 319 353 352 384 384 385 353 321 320 353 353 354 321 355 354 386 386 387 355 323 322 355 355 356 323 357 356 388 388 389 357 360 324 357 357 390 360 325 358 339 339 359 325 341 359 373 373 374 341 361 360 390 390 391 361 362 326 361 361 392 362 364 328 363 363 393 364 
						366 365 394 394 395 366 367 331 366 366 396 367 397 333 332 332 367 397 368 333 397 397 398 368 369 334 368 368 399 369 370 335 369 369 400 370 371 336 370 370 401 371 372 337 371 371 401 372 402 373 338 338 372 402 403 376 342 342 375 403 377 376 403 403 404 377 405 378 346 346 377 405 407 379 378 378 406 407 409 380 381 381 408 409 383 350 382 382 410 383 352 411 412 412 384 352 416 413 414 414 415 416 354 353 385 385 386 354 420 417 418 418 419 420 356 355 387 387 388 356 424 421 422 422 423 424 390 357 389 389 425 390 374 373 402 402 426 374 391 390 425 425 427 391 363 391 427 427 393 363 395 394 428 428 429 395 396 366 395 395 430 396 397 367 396 396 431 397 398 397 431 431 432 398 399 368 398 398 433 399 400 369 399 399 434 400 401 370 435 435 436 401 
						402 372 401 401 436 402 437 403 375 375 426 437 438 404 403 403 437 438 439 405 377 377 404 439 406 378 405 405 440 406 442 407 406 406 441 442 411 409 408 408 412 411 413 443 444 444 414 413 415 414 445 445 446 415 417 416 415 415 418 417 419 418 447 447 448 419 421 420 419 419 422 421 423 422 449 449 450 423 452 424 423 423 451 452 426 402 436 436 453 426 455 454 452 452 451 455 428 454 455 455 429 428 430 395 429 429 456 430 431 396 430 430 457 431 432 431 457 457 458 432 433 398 432 432 459 433 434 399 433 433 460 434 435 400 434 434 461 435 453 436 435 435 461 453 462 437 426 426 453 462 463 438 437 437 462 463 464 439 404 404 438 464 440 405 439 439 465 440 441 406 440 440 466 441 444 443 442 442 441 444 445 466 467 467 446 445 418 415 446 446 447 418 
						448 447 468 468 469 448 422 419 448 448 449 422 450 449 470 470 471 450 472 451 423 423 450 472 456 429 455 455 473 456 457 430 456 456 474 457 458 457 474 474 475 458 459 432 458 458 476 459 460 433 459 459 477 460 461 434 460 460 478 461 462 453 461 461 478 462 479 463 462 462 478 479 480 464 438 438 463 480 481 465 439 439 464 481 466 440 465 465 467 466 445 444 441 441 466 445 447 446 467 467 468 447 469 468 481 481 482 469 449 448 469 469 470 449 471 470 483 483 484 471 472 450 471 471 485 472 473 455 472 472 485 473 474 456 473 473 475 474 458 475 486 486 476 458 487 477 459 459 476 487 479 478 460 460 477 479 480 463 479 479 488 480 481 464 480 480 482 481 468 467 465 465 481 468 470 469 482 482 483 470 487 484 483 483 488 487 485 471 484 484 486 485 
						475 473 485 485 486 475 486 484 487 487 476 486 487 488 479 479 477 487 483 482 480 480 488 483 0 3 11 32 18 31 32 31 69 69 70 32 28 61 44 29 64 45 42 59 88 72 48 71 72 71 132 132 133 72 49 102 73 54 81 82 65 94 95 114 113 148 114 148 226 226 161 114 100 130 167 107 141 142 143 144 181 112 147 184 121 155 156 123 157 158 156 234 193 212 254 213 242 241 324 242 324 360 360 285 242 201 243 244 251 296 293 284 358 325 392 361 391 392 391 363 363 362 392 374 426 375 352 383 410 370 400 435 414 444 445 451 472 455 
					</p>
				</polylist>
			</mesh>
		</geometry>
	</library_geometries>
	<library_visual_scenes>
		<visual_scene id="RootNode" name="RootNode">
			<node id="rockkk" name="rockkk">
				<matrix>100.914261 0.000000 0.000000 0.000000 0.000000 100.914261 0.000008 0.000000 0.000000 -0.000008 100.914261 0.000000 0.000000 0.000000 0.000000 1.000000</matrix>
				<instance_geometry url="#meshId0">
					<bind_material>
						<technique_common>
							<instance_material symbol="defaultMaterial" target="#Material_001" />
						</technique_common>
					</bind_material>
				</instance_geometry>
			</node>
		</visual_scene>
	</library_visual_scenes>
	<scene>
		<instance_visual_scene url="#RootNode" />
	</scene>
</COLLADA>
