<?xml version="1.0"?>
<COLLADA xmlns="http://www.collada.org/2005/11/COLLADASchema" version="1.4.1">
	<asset>
		<contributor>
			<author>Assimp</author>
			<authoring_tool>Assimp Exporter</authoring_tool>
		</contributor>
		<created>2023-06-13T16:27:23</created>
		<modified>2023-06-13T16:27:23</modified>
		<unit name="meter" meter="0.010000" />
		<up_axis>Y_UP</up_axis>
	</asset>
	<library_effects>
		<effect id="lambert3-fx" name="lambert3">
			<profile_COMMON>
				<technique sid="standard">
					<phong>
						<diffuse>
							<color sid="diffuse">0.500000   0.500000   0.500000   1.000000</color>
						</diffuse>
					</phong>
				</technique>
			</profile_COMMON>
		</effect>
	</library_effects>
	<library_materials>
		<material id="lambert3" name="lambert3">
			<instance_effect url="#lambert3-fx"/>
		</material>
	</library_materials>
	<library_geometries>
		<geometry id="meshId0" name="meshId0_name" >
			<mesh>
				<source id="meshId0-positions" name="meshId0-positions">
					<float_array id="meshId0-positions-array" count="252"> 
						0.951057 -1.000000 -0.309017 0.809017 -1.000000 -0.587785 0.809017 1.000000 -0.587785 0.951057 1.000000 -0.309017 0.587786 -1.000000 -0.809017 0.587786 1.000000 -0.809017 0.309017 -1.000000 -0.951057 0.309017 1.000000 -0.951057 0.000000 -1.000000 -1.000000 0.000000 1.000000 -1.000000 -0.309017 -1.000000 -0.951056 -0.309017 1.000000 -0.951056 -0.587785 -1.000000 -0.809017 -0.587785 1.000000 -0.809017 -0.809017 -1.000000 -0.587785 -0.809017 1.000000 -0.587785 -0.951056 -1.000000 -0.309017 -0.951056 1.000000 -0.309017 -1.000000 -1.000000 0.000000 -1.000000 1.000000 0.000000 -0.951056 -1.000000 0.309017 -0.951056 1.000000 0.309017 -0.809017 -1.000000 0.587785 -0.809017 1.000000 0.587785 -0.587785 -1.000000 0.809017 -0.587785 1.000000 0.809017 -0.309017 -1.000000 0.951057 -0.309017 1.000000 0.951057 0.000000 -1.000000 1.000000 0.000000 1.000000 1.000000 0.309017 -1.000000 0.951057 0.309017 1.000000 0.951057 0.587785 -1.000000 0.809017 0.587785 1.000000 0.809017 0.809017 -1.000000 0.587785 0.809017 1.000000 0.587785 0.951056 -1.000000 0.309017 0.951056 1.000000 0.309017 1.000000 -1.000000 0.000000 1.000000 1.000000 0.000000 0.951057 -1.000000 -0.309017 0.951057 1.000000 -0.309017 0.809017 -1.000000 -0.587785 0.951057 -1.000000 -0.309017 0.000000 -1.000000 0.000000 0.587786 -1.000000 -0.809017 0.309017 -1.000000 -0.951057 0.000000 -1.000000 -1.000000 -0.309017 -1.000000 -0.951056 -0.587785 -1.000000 -0.809017 -0.809017 -1.000000 -0.587785 -0.951056 -1.000000 -0.309017 -1.000000 -1.000000 0.000000 -0.951056 -1.000000 0.309017 -0.809017 -1.000000 0.587785 -0.587785 -1.000000 0.809017 -0.309017 -1.000000 0.951057 0.000000 -1.000000 1.000000 0.309017 -1.000000 0.951057 0.587785 -1.000000 0.809017 0.809017 -1.000000 0.587785 0.951056 -1.000000 0.309017 1.000000 -1.000000 0.000000 0.951057 1.000000 -0.309017 
						0.809017 1.000000 -0.587785 0.000000 1.000000 0.000000 0.587786 1.000000 -0.809017 0.309017 1.000000 -0.951057 0.000000 1.000000 -1.000000 -0.309017 1.000000 -0.951056 -0.587785 1.000000 -0.809017 -0.809017 1.000000 -0.587785 -0.951056 1.000000 -0.309017 -1.000000 1.000000 0.000000 -0.951056 1.000000 0.309017 -0.809017 1.000000 0.587785 -0.587785 1.000000 0.809017 -0.309017 1.000000 0.951057 0.000000 1.000000 1.000000 0.309017 1.000000 0.951057 0.587785 1.000000 0.809017 0.809017 1.000000 0.587785 0.951056 1.000000 0.309017 1.000000 1.000000 0.000000 
					</float_array>
					<technique_common>
						<accessor count="84" offset="0" source="#meshId0-positions-array" stride="3">
							<param name="X" type="float" />
							<param name="Y" type="float" />
							<param name="Z" type="float" />
						</accessor>
					</technique_common>
				</source>
				<source id="meshId0-normals" name="meshId0-normals">
					<float_array id="meshId0-normals-array" count="252"> 
						0.951057 0.000000 -0.309016 0.809017 0.000000 -0.587785 0.809017 0.000000 -0.587785 0.951057 0.000000 -0.309016 0.587785 0.000000 -0.809017 0.587785 0.000000 -0.809017 0.309017 0.000000 -0.951057 0.309017 0.000000 -0.951057 -0.000000 0.000000 -1.000000 -0.000000 0.000000 -1.000000 -0.309017 0.000000 -0.951056 -0.309017 0.000000 -0.951056 -0.587785 0.000000 -0.809017 -0.587785 0.000000 -0.809017 -0.809017 0.000000 -0.587785 -0.809017 0.000000 -0.587785 -0.951057 0.000000 -0.309017 -0.951057 0.000000 -0.309017 -1.000000 0.000000 0.000000 -1.000000 0.000000 0.000000 -0.951056 0.000000 0.309017 -0.951056 0.000000 0.309017 -0.809017 0.000000 0.587785 -0.809017 0.000000 0.587785 -0.587785 0.000000 0.809017 -0.587785 0.000000 0.809017 -0.309017 0.000000 0.951057 -0.309017 0.000000 0.951057 0.000000 0.000000 1.000000 0.000000 0.000000 1.000000 0.309017 0.000000 0.951056 0.309017 0.000000 0.951056 0.587785 0.000000 0.809017 0.587785 0.000000 0.809017 0.809017 0.000000 0.587785 0.809017 0.000000 0.587785 0.951057 0.000000 0.309017 0.951057 0.000000 0.309017 1.000000 0.000000 0.000001 1.000000 0.000000 0.000001 0.951057 0.000000 -0.309016 0.951057 0.000000 -0.309016 0.000000 -1.000000 0.000000 0.000000 -1.000000 0.000000 0.000000 -1.000000 0.000000 0.000000 -1.000000 0.000000 0.000000 -1.000000 0.000000 0.000000 -1.000000 0.000000 0.000000 -1.000000 0.000000 0.000000 -1.000000 0.000000 0.000000 -1.000000 0.000000 0.000000 -1.000000 0.000000 0.000000 -1.000000 0.000000 0.000000 -1.000000 0.000000 0.000000 -1.000000 0.000000 0.000000 -1.000000 0.000000 0.000000 -1.000000 0.000000 0.000000 -1.000000 0.000000 0.000000 -1.000000 0.000000 0.000000 -1.000000 0.000000 0.000000 -1.000000 0.000000 0.000000 -1.000000 0.000000 0.000000 -1.000000 0.000000 0.000000 1.000000 0.000000 
						0.000000 1.000000 0.000000 0.000000 1.000000 0.000000 0.000000 1.000000 0.000000 0.000000 1.000000 0.000000 0.000000 1.000000 0.000000 0.000000 1.000000 0.000000 0.000000 1.000000 0.000000 0.000000 1.000000 0.000000 0.000000 1.000000 0.000000 0.000000 1.000000 0.000000 0.000000 1.000000 0.000000 0.000000 1.000000 0.000000 0.000000 1.000000 0.000000 0.000000 1.000000 0.000000 0.000000 1.000000 0.000000 0.000000 1.000000 0.000000 0.000000 1.000000 0.000000 0.000000 1.000000 0.000000 0.000000 1.000000 0.000000 0.000000 1.000000 0.000000 
					</float_array>
					<technique_common>
						<accessor count="84" offset="0" source="#meshId0-normals-array" stride="3">
							<param name="X" type="float" />
							<param name="Y" type="float" />
							<param name="Z" type="float" />
						</accessor>
					</technique_common>
				</source>
				<source id="meshId0-tangents" name="meshId0-tangents">
					<float_array id="meshId0-tangents-array" count="252"> 
						-0.309016 0.000000 -0.951057 -0.587785 0.000000 -0.809017 -0.587785 0.000000 -0.809017 -0.309016 0.000000 -0.951057 -0.809017 0.000000 -0.587785 -0.809017 0.000000 -0.587785 -0.951057 0.000000 -0.309017 -0.951057 0.000000 -0.309017 -1.000000 0.000000 0.000000 -1.000000 0.000000 0.000000 -0.951056 0.000000 0.309017 -0.951056 0.000000 0.309017 -0.809017 0.000000 0.587785 -0.809017 0.000000 0.587785 -0.587785 0.000000 0.809017 -0.587785 0.000000 0.809017 -0.309017 0.000000 0.951057 -0.309017 0.000000 0.951057 0.000000 0.000000 1.000000 0.000000 0.000000 1.000000 0.309017 0.000000 0.951057 0.309017 0.000000 0.951057 0.587785 0.000000 0.809017 0.587785 0.000000 0.809017 0.809017 0.000000 0.587785 0.809017 0.000000 0.587785 0.951057 0.000000 0.309017 0.951057 0.000000 0.309017 1.000000 0.000000 -0.000000 1.000000 0.000000 -0.000000 0.951057 0.000000 -0.309017 0.951057 0.000000 -0.309017 0.809017 0.000000 -0.587785 0.809017 0.000000 -0.587785 0.587785 0.000000 -0.809017 0.587785 0.000000 -0.809017 0.309017 0.000000 -0.951057 0.309017 0.000000 -0.951057 0.000001 0.000000 -1.000000 0.000001 0.000000 -1.000000 -0.309016 0.000000 -0.951057 -0.309016 0.000000 -0.951057 1.000000 0.000000 0.000000 1.000000 0.000000 -0.000000 1.000000 0.000000 -0.000000 1.000000 0.000000 0.000000 1.000000 0.000000 -0.000000 1.000000 0.000000 -0.000000 1.000000 0.000000 0.000000 1.000000 0.000000 0.000000 1.000000 0.000000 0.000000 1.000000 0.000000 0.000000 1.000000 0.000000 0.000000 1.000000 0.000000 -0.000000 1.000000 0.000000 -0.000000 1.000000 0.000000 -0.000000 1.000000 0.000000 0.000000 1.000000 0.000000 -0.000000 1.000000 0.000000 -0.000000 1.000000 0.000000 -0.000000 1.000000 0.000000 0.000000 1.000000 0.000000 -0.000000 1.000000 0.000000 0.000000 1.000000 0.000000 0.000000 
						1.000000 0.000000 0.000000 1.000000 0.000000 -0.000000 1.000000 0.000000 0.000000 1.000000 0.000000 0.000000 1.000000 0.000000 -0.000000 1.000000 0.000000 -0.000000 1.000000 0.000000 -0.000000 1.000000 0.000000 -0.000000 1.000000 0.000000 -0.000000 1.000000 0.000000 0.000000 1.000000 0.000000 0.000000 1.000000 0.000000 0.000000 1.000000 0.000000 -0.000001 1.000000 0.000000 -0.000000 1.000000 0.000000 0.000000 1.000000 0.000000 -0.000000 1.000000 0.000000 -0.000000 1.000000 0.000000 0.000000 1.000000 0.000000 0.000000 1.000000 0.000000 0.000000 
					</float_array>
					<technique_common>
						<accessor count="84" offset="0" source="#meshId0-tangents-array" stride="3">
							<param name="X" type="float" />
							<param name="Y" type="float" />
							<param name="Z" type="float" />
						</accessor>
					</technique_common>
				</source>
				<source id="meshId0-bitangents" name="meshId0-bitangents">
					<float_array id="meshId0-bitangents-array" count="252"> 
						0.000000 1.000000 0.000000 0.000000 1.000000 0.000000 0.000000 1.000000 0.000000 0.000000 1.000000 0.000000 0.000000 1.000000 0.000000 0.000000 1.000000 0.000000 0.000000 1.000000 0.000000 0.000000 1.000000 0.000000 0.000000 1.000000 0.000000 0.000000 1.000000 0.000000 0.000000 1.000000 0.000000 0.000000 1.000000 0.000000 0.000000 1.000000 0.000000 0.000000 1.000000 0.000000 0.000000 1.000000 0.000000 0.000000 1.000000 0.000000 0.000000 1.000000 0.000000 0.000000 1.000000 0.000000 0.000000 1.000000 -0.000000 0.000000 1.000000 -0.000000 0.000000 1.000000 -0.000000 0.000000 1.000000 -0.000000 0.000000 1.000000 -0.000000 0.000000 1.000000 -0.000000 0.000000 1.000000 -0.000000 0.000000 1.000000 -0.000000 0.000000 1.000000 -0.000000 0.000000 1.000000 -0.000000 -0.000000 1.000000 0.000000 -0.000000 1.000000 0.000000 -0.000000 1.000000 0.000000 -0.000000 1.000000 0.000000 -0.000000 1.000000 0.000000 -0.000000 1.000000 0.000000 -0.000000 1.000000 0.000000 -0.000000 1.000000 0.000000 -0.000000 1.000000 0.000000 -0.000000 1.000000 0.000000 -0.000000 1.000000 0.000000 -0.000000 1.000000 0.000000 0.000000 1.000000 0.000000 0.000000 1.000000 0.000000 -0.000000 0.000000 1.000000 0.000000 0.000000 1.000000 0.000000 0.000000 1.000000 -0.000000 0.000000 1.000000 0.000000 0.000000 1.000000 0.000000 0.000000 1.000000 -0.000000 0.000000 1.000000 -0.000000 0.000000 1.000000 -0.000000 0.000000 1.000000 -0.000000 0.000000 1.000000 -0.000000 0.000000 1.000000 0.000000 0.000000 1.000000 0.000000 0.000000 1.000000 0.000000 0.000000 1.000000 -0.000000 0.000000 1.000000 0.000000 0.000000 1.000000 0.000000 0.000000 1.000000 0.000000 0.000000 1.000000 -0.000000 0.000000 1.000000 0.000000 0.000000 1.000000 -0.000000 0.000000 1.000000 0.000000 0.000000 -1.000000 
						0.000000 0.000000 -1.000000 -0.000000 0.000000 -1.000000 0.000000 0.000000 -1.000000 0.000000 0.000000 -1.000000 -0.000000 0.000000 -1.000000 -0.000000 0.000000 -1.000000 -0.000000 0.000000 -1.000000 -0.000000 0.000000 -1.000000 -0.000000 0.000000 -1.000000 0.000000 0.000000 -1.000000 0.000000 0.000000 -1.000000 0.000000 0.000000 -1.000000 -0.000001 0.000000 -1.000000 -0.000000 0.000000 -1.000000 0.000000 0.000000 -1.000000 -0.000000 0.000000 -1.000000 -0.000000 0.000000 -1.000000 0.000000 0.000000 -1.000000 0.000000 0.000000 -1.000000 0.000000 0.000000 -1.000000 
					</float_array>
					<technique_common>
						<accessor count="84" offset="0" source="#meshId0-bitangents-array" stride="3">
							<param name="X" type="float" />
							<param name="Y" type="float" />
							<param name="Z" type="float" />
						</accessor>
					</technique_common>
				</source>
				<source id="meshId0-tex0" name="meshId0-tex0">
					<float_array id="meshId0-tex0-array" count="168"> 
						0.375000 0.312500 0.387500 0.312500 0.387500 0.687500 0.375000 0.687500 0.400000 0.312500 0.400000 0.687500 0.412500 0.312500 0.412500 0.687500 0.425000 0.312500 0.425000 0.687500 0.437500 0.312500 0.437500 0.687500 0.450000 0.312500 0.450000 0.687500 0.462500 0.312500 0.462500 0.687500 0.475000 0.312500 0.475000 0.687500 0.487500 0.312500 0.487500 0.687500 0.500000 0.312500 0.500000 0.687500 0.512500 0.312500 0.512500 0.687500 0.525000 0.312500 0.525000 0.687500 0.537500 0.312500 0.537500 0.687500 0.550000 0.312500 0.550000 0.687500 0.562500 0.312500 0.562500 0.687500 0.575000 0.312500 0.575000 0.687500 0.587500 0.312500 0.587500 0.687500 0.600000 0.312500 0.600000 0.687500 0.612500 0.312500 0.612500 0.687500 0.625000 0.312500 0.625000 0.687500 0.626409 0.064408 0.648603 0.107966 0.500000 0.156250 0.591842 0.029841 0.548284 0.007647 0.500000 -0.000000 0.451716 0.007647 0.408159 0.029841 0.373591 0.064409 0.351397 0.107966 0.343750 0.156250 0.351397 0.204534 0.373591 0.248091 0.408159 0.282659 0.451716 0.304853 0.500000 0.312500 0.548284 0.304853 0.591841 0.282659 0.626409 0.248091 0.648603 0.204534 0.656250 0.156250 0.648603 0.892034 
						0.626409 0.935591 0.500000 0.843750 0.591841 0.970159 0.548284 0.992353 0.500000 1.000000 0.451716 0.992353 0.408159 0.970159 0.373591 0.935591 0.351397 0.892034 0.343750 0.843750 0.351397 0.795466 0.373591 0.751909 0.408159 0.717341 0.451716 0.695147 0.500000 0.687500 0.548284 0.695147 0.591842 0.717341 0.626409 0.751908 0.648603 0.795466 0.656250 0.843750 
					</float_array>
					<technique_common>
						<accessor count="84" offset="0" source="#meshId0-tex0-array" stride="2">
							<param name="S" type="float" />
							<param name="T" type="float" />
						</accessor>
					</technique_common>
				</source>
				<vertices id="meshId0-vertices">
					<input semantic="POSITION" source="#meshId0-positions" />
				</vertices>
				<polylist count="80" material="defaultMaterial">
					<input offset="0" semantic="VERTEX" source="#meshId0-vertices" />
					<input offset="0" semantic="NORMAL" source="#meshId0-normals" />
					<input offset="0" semantic="TANGENT" source="#meshId0-tangents" />
					<input offset="0" semantic="BINORMAL" source="#meshId0-bitangents" />
					<input offset="0" semantic="TEXCOORD" source="#meshId0-tex0" set="0" />
					<vcount>
						3 3 3 3 3 3 3 3 3 3 3 3 3 3 3 3 3 3 3 3 3 3 3 3 3 3 3 3 3 3 3 3 3 3 3 3 3 3 3 3 3 3 3 3 3 3 3 3 3 3 3 3 3 3 3 3 3 3 3 3 3 3 3 3 
						3 3 3 3 3 3 3 3 3 3 3 3 3 3 3 3 
					</vcount>
					<p>
						3 0 1 1 2 3 2 1 4 4 5 2 5 4 6 6 7 5 7 6 8 8 9 7 9 8 10 10 11 9 11 10 12 12 13 11 13 12 14 14 15 13 15 14 16 16 17 15 17 16 18 18 19 17 19 18 20 20 21 19 21 20 22 22 23 21 23 22 24 24 25 23 25 24 26 26 27 25 27 26 28 28 29 27 29 28 30 30 31 29 31 30 32 32 33 31 33 32 34 34 35 33 35 34 36 36 37 35 37 36 38 38 39 37 39 38 40 40 41 39 42 43 44 45 42 44 46 45 44 47 46 44 48 47 44 49 48 44 50 49 44 51 50 44 52 51 44 53 52 44 54 53 44 55 54 44 56 55 44 57 56 44 58 57 44 59 58 44 60 59 44 61 60 44 62 61 44 43 62 44 63 64 65 64 66 65 66 67 65 67 68 65 
						68 69 65 69 70 65 70 71 65 71 72 65 72 73 65 73 74 65 74 75 65 75 76 65 76 77 65 77 78 65 78 79 65 79 80 65 80 81 65 81 82 65 82 83 65 83 63 65 
					</p>
				</polylist>
			</mesh>
		</geometry>
	</library_geometries>
	<library_visual_scenes>
		<visual_scene id="RootNode" name="RootNode">
			<node id="can_low" name="can_low">
				<matrix>9.600000 0.000000 0.000000 0.000000 0.000000 9.600000 0.000000 9.647469 0.000000 0.000000 9.600000 0.000000 0.000000 0.000000 0.000000 1.000000</matrix>
				<instance_geometry url="#meshId0">
					<bind_material>
						<technique_common>
							<instance_material symbol="defaultMaterial" target="#lambert3" />
						</technique_common>
					</bind_material>
				</instance_geometry>
			</node>
		</visual_scene>
	</library_visual_scenes>
	<scene>
		<instance_visual_scene url="#RootNode" />
	</scene>
</COLLADA>
